<svg width="205" height="140" viewBox="0 0 205 140" fill="none" xmlns="http://www.w3.org/2000/svg">
<path d="M146.998 50C141.97 47.0999 138.552 44.2999 139.356 43.7999C140.261 43.2999 144.987 45.3 150.114 48.2C155.142 51.1 158.56 53.9 157.756 54.4C156.851 54.8 152.025 52.9 146.998 50Z" fill="url(#paint0_linear_207_7466)"/>
<path d="M153.935 37.3C148.908 34.4 145.489 31.6 146.294 31.1C147.098 30.6 151.924 32.6 157.052 35.5C162.079 38.4 165.498 41.2 164.694 41.7C163.789 42.1 158.962 40.2 153.935 37.3Z" fill="url(#paint1_linear_207_7466)"/>
<path d="M133.524 74.3C128.497 71.4 125.079 68.6 125.883 68.1C126.687 67.6 131.514 69.6 136.641 72.5C141.669 75.4 145.087 78.2 144.283 78.7C143.478 79.2 138.652 77.2 133.524 74.3Z" fill="url(#paint2_linear_207_7466)"/>
<path d="M140.764 62C135.736 59.0999 132.318 56.2999 133.122 55.7999C134.027 55.2999 138.753 57.3 143.88 60.2C148.908 63.1 152.326 65.9 151.522 66.4C150.718 66.9 145.791 64.9 140.764 62Z" fill="url(#paint3_linear_207_7466)"/>
<path d="M52.8869 104C47.8597 101.1 43.0335 99.1 42.1286 99.6C41.2237 100.1 44.6422 102.8 49.77 105.8C54.7973 108.7 59.6235 110.7 60.5284 110.2C61.3327 109.6 58.0147 106.9 52.8869 104Z" fill="url(#paint4_linear_207_7466)"/>
<path d="M30.7669 108C25.7396 105.1 20.9134 103.1 20.0085 103.6C19.1036 104.1 22.5221 106.8 27.65 109.8C32.6772 112.7 37.5034 114.7 38.4083 114.2C39.2127 113.6 35.7941 110.9 30.7669 108Z" fill="url(#paint5_linear_207_7466)"/>
<path d="M95.3171 96.3C90.2898 93.4 85.4636 91.4 84.5587 91.9C83.6538 92.4 87.0723 95.1 92.2001 98.1C97.2274 101 102.054 103 102.959 102.5C103.863 102 100.344 99.2 95.3171 96.3Z" fill="url(#paint6_linear_207_7466)"/>
<path d="M73.8004 100.4C68.7731 97.5 63.9469 95.5 63.042 96C62.1371 96.5 65.5557 99.2 70.6835 102.2C75.7107 105.1 80.5369 107.1 81.4418 106.6C82.2462 106.1 78.9282 103.3 73.8004 100.4Z" fill="url(#paint7_linear_207_7466)"/>
<path d="M182.792 137L183.697 136.5C183.898 136.4 184.199 136.4 184.501 136.6C185.205 137 185.707 137.9 185.707 138.7C185.707 139.1 185.607 139.4 185.305 139.5L184.4 140L182.792 137Z" fill="#18192E"/>
<path d="M182.389 137.7C182.389 138.5 182.892 139.4 183.596 139.8C184.3 140.2 184.803 139.9 184.803 139.1C184.803 138.3 184.3 137.4 183.596 137C182.993 136.7 182.389 137 182.389 137.7Z" fill="#18192E"/>
<path d="M183.596 137.6C183.998 137.8 184.3 138.4 184.3 138.9C184.3 139.4 183.998 139.6 183.596 139.3C183.194 139.1 182.892 138.5 182.892 138C182.892 137.5 183.194 137.3 183.596 137.6Z" fill="#18192E"/>
<path d="M183.294 137.5C183.294 137.6 183.194 137.7 183.194 137.8C183.194 138.3 183.495 138.8 183.898 139.1C183.998 139.2 184.099 139.2 184.199 139.2C184.099 139.5 183.797 139.5 183.495 139.3C183.093 139.1 182.792 138.5 182.792 138C182.892 137.7 183.093 137.5 183.294 137.5Z" fill="#4A5A67"/>
<path d="M183.495 137.7C183.495 138.1 183.797 138.6 184.199 138.9C184.3 138.9 184.3 139 184.4 139V139.1C184.3 139.1 184.199 139.1 184.099 139C183.697 138.8 183.395 138.3 183.395 137.8C183.395 137.7 183.395 137.6 183.395 137.5H183.495C183.495 137.6 183.495 137.6 183.495 137.7Z" fill="#18192E"/>
<path d="M183.898 138C183.998 138.1 184.099 138.2 184.099 138.3C184.099 138.4 183.998 138.5 183.898 138.4C183.797 138.3 183.697 138.2 183.697 138.1C183.697 138 183.898 138 183.898 138Z" fill="#18192E"/>
<path d="M182.39 136.3L185.708 138.2L186.814 136.8L183.496 134.9L182.39 136.3Z" fill="url(#paint8_linear_207_7466)"/>
<path d="M94.7138 115.5L87.9773 111.6C87.5751 111.3 86.9718 111.3 86.268 111.7C84.9609 112.4 83.9555 114.3 83.9555 115.8C83.9555 116.5 84.1566 117 84.5587 117.3C84.5587 117.3 84.6593 117.3 84.6593 117.4L91.2953 121.3C91.6975 121.6 92.3007 121.6 93.0046 121.2C94.3117 120.5 95.3171 118.6 95.3171 117.1C95.4177 116.2 95.116 115.7 94.7138 115.5Z" fill="#18192E"/>
<path d="M102.154 131.2L109.092 119.4L95.3171 111.3C94.4122 110.7 93.2057 110.8 91.798 111.6C89.0833 113.1 86.9718 116.9 86.9718 120C86.9718 121.5 87.4746 122.5 88.2789 123C88.3795 123 88.3795 123.1 88.48 123.1L102.154 131.2Z" fill="#282DAD"/>
<path d="M106.679 118C105.874 117.6 104.668 117.8 103.461 118.5C100.747 120 98.6351 123.8 98.6351 126.9C98.6351 128.5 99.2383 129.5 100.043 130L100.143 130.1L102.154 131.2L109.092 119.4L106.679 118Z" fill="url(#paint9_linear_207_7466)"/>
<path d="M110.6 122.5C110.6 125.6 108.388 129.3 105.774 130.9C103.059 132.4 100.948 131.2 100.948 128.1C100.948 125 103.16 121.3 105.774 119.7C108.388 118.2 110.6 119.5 110.6 122.5Z" fill="#A9B1B1"/>
<path d="M109.293 123.3C109.293 125.6 107.684 128.3 105.774 129.4C103.863 130.5 102.255 129.6 102.255 127.4C102.255 125.1 103.863 122.4 105.774 121.3C107.684 120.2 109.293 121 109.293 123.3Z" fill="#18192E"/>
<path d="M107.081 124.5C107.081 125.4 106.478 126.4 105.673 126.9C104.869 127.3 104.266 127 104.266 126.1C104.266 125.2 104.869 124.2 105.673 123.7C106.478 123.3 107.081 123.7 107.081 124.5Z" fill="#282DAD"/>
<path d="M167.911 93.4L174.849 81.6L161.074 73.5C160.169 72.9 158.963 73 157.555 73.8C154.84 75.3 152.729 79.1 152.729 82.2C152.729 83.7 153.232 84.7 154.036 85.2C154.136 85.2 154.136 85.3 154.237 85.3L167.911 93.4Z" fill="#282DAD"/>
<path d="M172.436 80.2999C171.631 79.8999 170.425 80.0999 169.218 80.7999C166.503 82.2999 164.392 86.0999 164.392 89.1999C164.392 90.7999 164.995 91.7999 165.8 92.2999L165.9 92.3999L167.911 93.4999L174.849 81.6999L172.436 80.2999Z" fill="url(#paint10_linear_207_7466)"/>
<path d="M176.357 84.8C176.357 87.9 174.145 91.6 171.531 93.2C168.816 94.7 166.705 93.5 166.705 90.4C166.705 87.3 168.917 83.6 171.531 82C174.145 80.5 176.357 81.7 176.357 84.8Z" fill="#A9B1B1"/>
<path d="M175.05 85.6C175.05 87.9 173.441 90.6 171.531 91.7C169.62 92.8 168.012 91.9 168.012 89.7C168.012 87.5 169.62 84.7 171.531 83.6C173.441 82.4 175.05 83.3 175.05 85.6Z" fill="#18192E"/>
<path d="M172.838 86.8C172.838 87.7 172.235 88.7 171.43 89.2C170.626 89.6 170.023 89.3 170.023 88.4C170.023 87.5 170.626 86.5 171.43 86C172.235 85.6 172.838 85.9 172.838 86.8Z" fill="#282DAD"/>
<path d="M173.542 83.1C173.743 83.5 173.944 84.1 173.944 84.7C173.944 87 172.335 89.7 170.425 90.8C169.62 91.2 168.917 91.4 168.414 91.2C169.017 92.2 170.224 92.4 171.531 91.6C173.441 90.5 175.05 87.7 175.05 85.5C175.05 84.2 174.447 83.3 173.542 83.1Z" fill="#18192E"/>
<path d="M155.946 25.8V12.6L157.756 13.7L162.783 29.8L155.946 25.8Z" fill="#282DAD"/>
<path d="M159.566 98.5999C159.566 98.5999 169.62 49.2999 166.503 31.9999L155.946 25.8999C155.946 25.8999 140.462 58.2999 135.435 66.3999C130.408 74.4999 124.978 77.9999 124.475 78.4999L159.566 98.5999Z" fill="#EFEFEF"/>
<path d="M141.065 56L145.992 58.8C150.517 50.9 155.846 39.3 155.846 39.3L150.818 36.4C150.818 36.4 142.574 53.2 141.065 56Z" fill="#282DAD"/>
<path d="M145.992 58.8999L141.065 55.9999L141.166 55.8999L145.992 58.6999C150.316 51.1999 155.343 40.1999 155.846 39.2999L150.919 36.3999L151.019 36.2999L156.147 39.1999V39.2999C155.846 39.4999 150.517 50.9999 145.992 58.8999Z" fill="#D0D0D0"/>
<path d="M143.378 57.2999L143.277 57.2C147.5 49.9 153.131 37.9 153.231 37.7L153.332 37.7999C153.231 37.9999 147.601 49.9999 143.378 57.2999Z" fill="#D0D0D0"/>
<path d="M130.709 82C138.25 74.5 143.076 65 143.076 65L137.848 62C137.848 62 132.519 72 126.788 76.5L130.709 82Z" fill="#282DAD"/>
<path d="M130.81 82L130.709 81.9C137.848 74.8 142.574 65.8 143.076 65L137.948 62L138.049 61.9L143.277 64.9V65C143.177 65.1 138.351 74.6 130.81 82Z" fill="#D0D0D0"/>
<path d="M127.894 80.3999L127.793 80.2999C127.894 80.1999 136.842 71.3999 140.06 63.2999L140.16 63.3999C136.943 71.4999 127.994 80.2999 127.894 80.3999Z" fill="#D0D0D0"/>
<path d="M153.386 31.0961L153.258 31.3676L163.811 36.308L163.939 36.0366L153.386 31.0961Z" fill="#D0D0D0"/>
<path d="M154.538 95.7999C154.438 95.7999 154.337 95.6999 154.438 95.5999C162.582 65.7999 164.09 30.8999 164.09 30.4999C164.09 30.3999 164.191 30.3999 164.291 30.3999C164.392 30.3999 164.392 30.4999 164.392 30.5999C164.392 30.8999 162.884 65.8999 154.74 95.6999C154.639 95.7999 154.639 95.7999 154.538 95.7999Z" fill="#D0D0D0"/>
<path d="M134.63 84.2L134.53 84.1L148.807 63.1L160.571 34.6L160.772 34.7L149.008 63.2L134.63 84.2Z" fill="#D0D0D0"/>
<path d="M160.169 68.7L148.908 63.3V63.1L160.27 68.6L160.169 68.7Z" fill="#D0D0D0"/>
<path d="M71.0856 54.1999L72.6943 21.4999L62.6398 15.7999L42.3296 37.6999L71.0856 54.1999Z" fill="#282DAD"/>
<path d="M49.6694 41.8999L67.0638 21.2999L60.83 17.7999L42.3296 37.6999L49.6694 41.8999Z" fill="#282DAD"/>
<path d="M203.719 135.004L203.721 135.013C204.001 136.221 203.862 137.414 203.026 138.245C202.177 139.09 200.478 139.697 197.317 139.402L197.308 139.401C194.936 139.22 191.317 138.166 186.76 136.424C182.218 134.688 176.79 132.286 170.817 129.441C158.873 123.752 144.778 116.304 131.289 108.899C117.802 101.495 104.926 94.138 95.4216 88.6314C90.6696 85.8782 86.7608 83.5878 84.04 81.9857C82.6797 81.1847 81.6164 80.5558 80.8932 80.1272C80.5316 79.9129 80.2551 79.7487 80.069 79.6381L79.8584 79.5128L79.8066 79.4819L79.7781 79.4612L79.6416 79.3623L79.1223 78.9856C78.6741 78.6603 78.0321 78.194 77.257 77.63C75.7067 76.5021 73.624 74.9838 71.4944 73.4218C69.3646 71.8596 67.1888 70.2546 65.4517 68.953C63.702 67.6419 62.4303 66.6628 62.0762 66.3346C52.9954 57.7991 41.1146 43.2152 37.7376 38.9444C37.7291 38.9152 37.7191 38.867 37.7123 38.792C37.7022 38.6814 37.7018 38.5552 37.7018 38.4C37.7018 37.5578 37.9942 36.6194 38.4877 35.7779C38.9789 34.9405 39.6448 34.2408 40.3506 33.8426C40.4276 33.8051 40.5286 33.7646 40.6543 33.7146L40.665 33.7103C40.7169 33.6897 40.7736 33.6671 40.8309 33.6433C44.2178 35.0187 53.4625 38.9315 61.9415 42.5351C66.2647 44.3725 70.3869 46.1287 73.4283 47.4255C74.9489 48.0739 76.1994 48.6075 77.0697 48.979L78.0763 49.4087L78.3399 49.5213L78.4047 49.5489L184.048 109.232L184.048 109.232L184.05 109.233L184.054 109.235L184.06 109.239L184.098 109.261C184.132 109.281 184.183 109.312 184.248 109.351C184.38 109.43 184.574 109.547 184.817 109.698C185.305 110.001 185.994 110.438 186.799 110.978C188.41 112.059 190.475 113.544 192.311 115.172C195.691 118.238 201.337 123.851 203.719 135.004Z" fill="#EFEFEF" stroke="#E0E0E0"/>
<path d="M119.549 102.7C113.214 97.9 101.149 91.3 94.4122 82.3C84.9609 69.7 75.9118 50.1 86.4691 53.5L78.526 49C78.526 49 47.1558 35.6 40.7209 33C40.5198 33.1 40.2182 33.2 40.0171 33.3C38.4083 34.2 37.1013 36.4 37.1013 38.3C37.1013 38.6 37.1013 38.9 37.2018 39.1C40.5198 43.3 52.4847 58 61.6343 66.6C63.1425 68 79.4309 79.8 79.4309 79.8C79.4309 79.8 97.6296 90.6 119.951 103.1C119.85 103.1 119.649 102.9 119.549 102.7Z" fill="#282DAD"/>
<path d="M66.8627 57.7L10.0545 58.5999L0 52.9V51.7999L38.1067 41.7L66.8627 56.5999V57.7Z" fill="#282DAD"/>
<path d="M56.0037 51.9999L9.65219 55.9L3.41837 52.2999L38.1066 41.7L56.0037 51.9999Z" fill="white"/>
<path d="M9.55175 56.2L2.71466 52.3L38.1067 41.4L57.0092 52.2L9.55175 56.2ZM4.22284 52.4L9.75284 55.6L55.0988 51.8L38.1067 42L4.22284 52.4Z" fill="#18192E"/>
<path d="M66.8627 56.6L10.0545 57.5L0 51.8L38.1067 40.1L66.8627 56.6Z" fill="#282DAD"/>
<path d="M45.4466 44.3L9.6524 54.3L3.41858 50.7L38.1068 40.1L45.4466 44.3Z" fill="#282DAD"/>
<path d="M68.9743 50.3L59.523 38.9L42.7319 5.3L33.5823 0L33.1801 0.2L42.5308 35.1L67.6672 50.8L68.9743 50.3Z" fill="#282DAD"/>
<path d="M48.7646 38.7L38.9112 5.00002L35.0904 2.90002L42.5308 35.1L48.7646 38.7Z" fill="white"/>
<path d="M49.2673 39.4001L42.2291 35.4001L34.6882 2.30005L39.2127 4.80005L49.2673 39.4001ZM42.8324 34.9001L48.3624 38.1001L38.71 5.20005L35.5931 3.40005L42.8324 34.9001Z" fill="#18192E"/>
<path d="M67.6672 50.7999L58.3165 39.5L42.3297 5.49995L33.1801 0.199951L41.3243 35.7L67.6672 50.7999Z" fill="#282DAD"/>
<path d="M47.558 39.3L37.7045 5.60002L33.8838 3.40002L41.3242 35.7L47.558 39.3Z" fill="#282DAD"/>
<path d="M137.848 111.7C137.848 111.7 51.982 117.5 21.8184 115.7L11.2611 109.6V108.9C11.2611 108.9 68.4715 100.6 81.844 97.8C95.9204 94.9 101.953 91.8 102.858 91.5L137.948 111L138.853 111.7H137.848Z" fill="#D0D0D0"/>
<path d="M77.8223 67.8999L77.219 67.4999C76.9174 67.2999 76.7163 67.4999 76.7163 67.7999V69.5999C76.7163 69.8999 76.9174 70.3999 77.219 70.4999L77.8223 70.8999C78.1239 71.0999 78.325 70.8999 78.325 70.5999V68.7999C78.4255 68.4999 78.1239 68.0999 77.8223 67.8999Z" fill="#18192E"/>
<path d="M78.124 71.0999C78.0235 71.0999 77.9229 71.0999 77.8224 70.9999L77.2191 70.5999C76.9175 70.3999 76.6158 69.9999 76.6158 69.5999V67.8C76.6158 67.6 76.7164 67.5 76.8169 67.4C76.9175 67.3 77.1185 67.3 77.3196 67.4L77.9229 67.8C78.2245 68 78.5262 68.4 78.5262 68.8V70.5999C78.5262 70.7999 78.4256 70.8999 78.3251 70.9999C78.2245 70.9999 78.124 71.0999 78.124 71.0999ZM77.018 67.5999H76.9175C76.8169 67.5999 76.8169 67.7 76.8169 67.9V69.6999C76.8169 69.9999 77.018 70.3999 77.3196 70.5999L77.9229 70.9999C78.0235 71.0999 78.124 71.0999 78.2245 70.9999C78.3251 70.9999 78.3251 70.8999 78.3251 70.6999V68.9C78.3251 68.6 78.124 68.1999 77.8224 67.9999L77.2191 67.5999C77.1185 67.5999 77.018 67.5999 77.018 67.5999Z" fill="#D0D0D0"/>
<path d="M81.0397 69.7L80.4364 69.3C80.1348 69.1 79.9337 69.3 79.9337 69.6V71.4C79.9337 71.7 80.1348 72.2 80.4364 72.3L81.0397 72.7C81.3413 72.9 81.5424 72.7 81.5424 72.4V70.6C81.5424 70.3 81.2408 69.9 81.0397 69.7Z" fill="#18192E"/>
<path d="M81.2408 72.9C81.1402 72.9 81.0397 72.9 80.9391 72.8L80.3359 72.4C80.0342 72.2 79.7326 71.8 79.7326 71.4V69.6C79.7326 69.4 79.8331 69.3 79.9337 69.2C80.0342 69.1 80.2353 69.1 80.4364 69.2L81.0397 69.6C81.3413 69.8 81.643 70.2 81.643 70.6V72.4C81.643 72.6 81.5424 72.7 81.4419 72.8C81.3413 72.8 81.3413 72.9 81.2408 72.9ZM80.1348 69.3H80.0342C79.9337 69.3 79.9337 69.4 79.9337 69.6V71.4C79.9337 71.7 80.1348 72.1 80.4364 72.3L81.0397 72.7C81.1402 72.8 81.2408 72.8 81.3413 72.7C81.4419 72.7 81.4419 72.6 81.4419 72.4V70.6C81.4419 70.3 81.2408 69.9 80.9391 69.7L80.3359 69.3C80.2353 69.4 80.1348 69.3 80.1348 69.3Z" fill="#D0D0D0"/>
<path d="M84.1566 71.5L83.4527 71.1C83.1511 70.9 82.95 71.1 82.95 71.4V73.2C82.95 73.5 83.1511 74 83.4527 74.1L84.056 74.5C84.3576 74.7 84.5587 74.5 84.5587 74.2V72.4C84.6593 72.1 84.4582 71.7 84.1566 71.5Z" fill="#18192E"/>
<path d="M84.3577 74.6999C84.2571 74.6999 84.1566 74.6999 84.056 74.5999L83.4528 74.1999C83.1511 73.9999 82.8495 73.5999 82.8495 73.1999V71.3999C82.8495 71.1999 82.95 71.0999 83.0506 70.9999C83.1511 70.8999 83.3522 70.8999 83.5533 70.9999L84.1566 71.3999C84.4582 71.5999 84.7599 71.9999 84.7599 72.3999V74.1999C84.7599 74.3999 84.6593 74.4999 84.5588 74.5999C84.4582 74.5999 84.4582 74.6999 84.3577 74.6999ZM83.2517 71.0999H83.1511C83.0506 71.0999 83.0506 71.1999 83.0506 71.3999V73.1999C83.0506 73.4999 83.2517 73.8999 83.5533 74.0999L84.1566 74.4999C84.2571 74.5999 84.3577 74.5999 84.4582 74.4999C84.5588 74.4999 84.5588 74.3999 84.5588 74.1999V72.3999C84.5588 72.0999 84.3577 71.6999 84.056 71.4999L83.4528 71.1999C83.3522 71.1999 83.2517 71.0999 83.2517 71.0999Z" fill="#D0D0D0"/>
<path d="M87.2736 73.3L86.6703 72.9C86.3687 72.7 86.1676 72.9 86.1676 73.2V75C86.1676 75.3 86.3687 75.8 86.6703 75.9L87.2736 76.3C87.5752 76.5 87.7763 76.3 87.7763 76V74.2C87.7763 73.9 87.5752 73.5 87.2736 73.3Z" fill="#18192E"/>
<path d="M87.4747 76.5C87.3742 76.5 87.2736 76.5 87.1731 76.4L86.5698 76C86.2682 75.8 85.9665 75.4 85.9665 75V73.2C85.9665 73 86.0671 72.9 86.1676 72.8C86.2682 72.7 86.4693 72.7 86.6704 72.8L87.2736 73.2C87.5753 73.4 87.8769 73.8 87.8769 74.2V76C87.8769 76.2 87.7764 76.3 87.6758 76.4C87.5753 76.4 87.5753 76.5 87.4747 76.5ZM86.3687 72.9H86.2682C86.1676 72.9 86.1676 73 86.1676 73.2V75C86.1676 75.3 86.3687 75.7 86.6704 75.9L87.2736 76.3C87.3742 76.4 87.4747 76.4 87.5753 76.3C87.6758 76.3 87.6758 76.2 87.6758 76V74.2C87.6758 73.9 87.4747 73.5 87.1731 73.3L86.5698 73C86.4693 73 86.4693 72.9 86.3687 72.9Z" fill="#D0D0D0"/>
<path d="M90.3904 75.1L89.7871 74.7C89.4855 74.5 89.2844 74.7 89.2844 75V76.8C89.2844 77.1 89.4855 77.6 89.7871 77.7L90.3904 78.1C90.692 78.3 90.8931 78.1 90.8931 77.8V76C90.8931 75.7 90.692 75.3 90.3904 75.1Z" fill="#18192E"/>
<path d="M90.5916 78.3C90.4911 78.3 90.3906 78.3 90.29 78.2L89.6867 77.8C89.3851 77.6 89.0835 77.2 89.0835 76.8V75C89.0835 74.8 89.184 74.7 89.2846 74.6C89.3851 74.5 89.5862 74.5 89.7873 74.6L90.3906 75C90.6922 75.2 90.9938 75.6 90.9938 76V77.8C90.9938 78 90.8933 78.1 90.7927 78.2C90.7927 78.2 90.6922 78.3 90.5916 78.3ZM89.4856 74.7H89.3851C89.2846 74.7 89.2846 74.8 89.2846 75V76.8C89.2846 77.1 89.4857 77.5 89.7873 77.7L90.3906 78.1C90.4911 78.2 90.5916 78.2 90.6922 78.1C90.7927 78.1 90.7927 78 90.7927 77.8V76C90.7927 75.7 90.5917 75.3 90.29 75.1L89.6867 74.7C89.5862 74.8 89.5862 74.7 89.4856 74.7Z" fill="#D0D0D0"/>
<path d="M93.5073 76.9001L92.904 76.5001C92.6024 76.3001 92.4013 76.5001 92.4013 76.8001V78.6001C92.4013 78.9001 92.6024 79.4001 92.904 79.5001L93.5073 79.9001C93.8089 80.1001 94.01 79.9001 94.01 79.6001V77.8001C94.01 77.5001 93.8089 77.1001 93.5073 76.9001Z" fill="#18192E"/>
<path d="M93.7085 80C93.6079 80 93.5074 80 93.4068 79.9L92.8036 79.5C92.5019 79.3 92.2003 78.9 92.2003 78.5V76.7C92.2003 76.5 92.3008 76.4 92.4014 76.3C92.5019 76.2 92.703 76.2 92.9041 76.3L93.5074 76.7C93.809 76.9 94.1107 77.3 94.1107 77.7V79.5C94.1107 79.7 94.0101 79.8 93.9096 79.9C93.9096 80 93.809 80 93.7085 80ZM92.6025 76.5H92.5019C92.4014 76.5 92.4014 76.6 92.4014 76.8V78.6C92.4014 78.9 92.6025 79.3 92.9041 79.5L93.5074 79.9C93.6079 80 93.7085 80 93.809 79.9C93.9096 79.9 93.9096 79.8 93.9096 79.6V77.8C93.9096 77.5 93.7085 77.1 93.4068 76.9L92.8036 76.5C92.8036 76.6 92.703 76.5 92.6025 76.5Z" fill="#D0D0D0"/>
<path d="M96.6243 78.6999L96.021 78.2999C95.7194 78.0999 95.5183 78.2999 95.5183 78.5999V80.3999C95.5183 80.6999 95.7194 81.1999 96.021 81.2999L96.6243 81.6999C96.9259 81.8999 97.127 81.6999 97.127 81.3999V79.5999C97.2276 79.2999 96.9259 78.8999 96.6243 78.6999Z" fill="#18192E"/>
<path d="M96.9259 81.8C96.8254 81.8 96.7248 81.8 96.6243 81.7L96.021 81.3C95.7194 81.1 95.4178 80.7 95.4178 80.3V78.5C95.4178 78.3 95.5183 78.2 95.6188 78.1C95.7194 78 95.9205 78 96.1216 78.1L96.7248 78.5C97.0265 78.7 97.3281 79.1 97.3281 79.5V81.3C97.3281 81.5 97.2276 81.6 97.127 81.7C97.0265 81.8 96.9259 81.8 96.9259 81.8ZM95.7194 78.3H95.6188C95.5183 78.3 95.5183 78.4 95.5183 78.6V80.4C95.5183 80.7 95.7194 81.1 96.021 81.3L96.6243 81.7C96.7248 81.8 96.8254 81.8 96.9259 81.7C97.0265 81.7 97.0265 81.6 97.0265 81.4V79.6C97.0265 79.3 96.8254 78.9 96.5238 78.7L95.9205 78.3C95.9205 78.4 95.8199 78.3 95.7194 78.3Z" fill="#D0D0D0"/>
<path d="M99.7412 80.4999L99.1379 80.0999C98.8363 79.8999 98.6352 80.0999 98.6352 80.3999V82.1999C98.6352 82.4999 98.8363 82.9999 99.1379 83.0999L99.7412 83.4999C100.043 83.6999 100.244 83.4999 100.244 83.1999V81.3999C100.344 81.0999 100.043 80.6999 99.7412 80.4999Z" fill="#18192E"/>
<path d="M100.043 83.5999C99.9423 83.5999 99.8418 83.5999 99.7412 83.4999L99.138 83.0999C98.8363 82.8999 98.5347 82.4999 98.5347 82.0999V80.3C98.5347 80.1 98.6352 80 98.7358 79.9C98.8363 79.8 99.0374 79.8 99.2385 79.9L99.8418 80.3C100.143 80.5 100.445 80.9 100.445 81.3V83.0999C100.445 83.2999 100.344 83.3999 100.244 83.4999C100.143 83.5999 100.043 83.5999 100.043 83.5999ZM98.9369 80.0999H98.8363C98.7358 80.0999 98.7358 80.2 98.7358 80.4V82.1999C98.7358 82.4999 98.9369 82.8999 99.2385 83.0999L99.8418 83.4999C99.9423 83.5999 100.043 83.5999 100.143 83.4999C100.244 83.4999 100.244 83.3999 100.244 83.1999V81.4C100.244 81.1 100.043 80.6999 99.7412 80.4999L99.138 80.0999C99.0374 80.1999 98.9369 80.0999 98.9369 80.0999Z" fill="#D0D0D0"/>
<path d="M102.959 82.3L102.355 81.9C102.054 81.7 101.853 81.9 101.853 82.2V84C101.853 84.3 102.054 84.8 102.355 84.9L102.959 85.3C103.26 85.5 103.461 85.3 103.461 85V83.2C103.461 82.9 103.16 82.5 102.959 82.3Z" fill="#18192E"/>
<path d="M103.16 85.4C103.059 85.4 102.959 85.4 102.858 85.3L102.255 84.9C101.953 84.7 101.652 84.3 101.652 83.9V82.1C101.652 81.9 101.752 81.8 101.853 81.7C101.953 81.6 102.154 81.6 102.355 81.7L102.959 82.1C103.26 82.3 103.562 82.7 103.562 83.1V85C103.562 85.2 103.461 85.3 103.361 85.4C103.26 85.4 103.26 85.4 103.16 85.4ZM102.054 81.9H101.953C101.853 81.9 101.853 82 101.853 82.2V84C101.853 84.3 102.054 84.7 102.355 84.9L102.959 85.3C103.059 85.4 103.16 85.4 103.26 85.3C103.361 85.3 103.361 85.2 103.361 85V83.2C103.361 82.9 103.16 82.5 102.858 82.3L102.255 81.9C102.154 82 102.054 81.9 102.054 81.9Z" fill="#D0D0D0"/>
<path d="M106.075 84.1L105.472 83.7C105.171 83.5 104.969 83.7 104.969 84V85.8C104.969 86.1 105.171 86.6 105.472 86.7L106.075 87.1C106.377 87.3 106.578 87.1 106.578 86.8V85C106.578 84.7 106.377 84.3 106.075 84.1Z" fill="#18192E"/>
<path d="M106.277 87.2C106.176 87.2 106.076 87.2 105.975 87.1L105.372 86.7C105.07 86.5 104.768 86.1 104.768 85.7V84C104.768 83.8 104.869 83.7 104.97 83.6C105.07 83.5 105.271 83.5 105.472 83.6L106.076 84C106.377 84.2 106.679 84.6 106.679 85V86.8C106.679 87 106.578 87.1 106.478 87.2C106.377 87.2 106.377 87.2 106.277 87.2ZM105.171 83.7H105.07C104.97 83.7 104.97 83.8 104.97 84V85.8C104.97 86.1 105.171 86.5 105.472 86.7L106.076 87.1C106.176 87.2 106.277 87.2 106.377 87.1C106.478 87.1 106.478 87 106.478 86.8V85C106.478 84.7 106.277 84.3 105.975 84.1L105.372 83.7C105.271 83.8 105.171 83.7 105.171 83.7Z" fill="#D0D0D0"/>
<path d="M109.192 85.8999L108.589 85.4999C108.288 85.2999 108.086 85.4999 108.086 85.7999V87.5999C108.086 87.8999 108.288 88.3999 108.589 88.4999L109.192 88.8999C109.494 89.0999 109.695 88.8999 109.695 88.5999V86.7999C109.695 86.4999 109.494 86.0999 109.192 85.8999Z" fill="#18192E"/>
<path d="M109.394 89C109.293 89 109.193 89 109.092 88.9L108.489 88.5C108.187 88.3 107.885 87.9 107.885 87.5V85.7C107.885 85.5 107.986 85.4 108.087 85.3C108.187 85.2 108.388 85.2 108.589 85.3L109.193 85.7C109.494 85.9 109.796 86.3 109.796 86.7V88.5C109.796 88.7 109.695 88.8 109.595 88.9C109.494 89 109.494 89 109.394 89ZM108.288 85.5H108.187C108.087 85.5 108.087 85.6 108.087 85.8V87.6C108.087 87.9 108.288 88.3 108.589 88.5L109.193 88.9C109.293 89 109.394 89 109.494 88.9C109.595 88.9 109.595 88.8 109.595 88.6V86.8C109.595 86.5 109.394 86.1 109.092 85.9L108.489 85.5C108.388 85.6 108.388 85.5 108.288 85.5Z" fill="#D0D0D0"/>
<path d="M112.309 87.7L111.706 87.3C111.404 87.1 111.203 87.3 111.203 87.6V89.4C111.203 89.7 111.404 90.2 111.706 90.3L112.309 90.7C112.611 90.9 112.812 90.7 112.812 90.4V88.6C112.812 88.3 112.611 87.9 112.309 87.7Z" fill="#18192E"/>
<path d="M112.51 90.8C112.41 90.8 112.309 90.8 112.209 90.7L111.606 90.3C111.304 90.1 111.002 89.7 111.002 89.3V87.5C111.002 87.3 111.103 87.2 111.203 87.1C111.304 87 111.505 87 111.706 87.1L112.309 87.5C112.611 87.7 112.913 88.1 112.913 88.5V90.3C112.913 90.5 112.812 90.6 112.712 90.7C112.712 90.8 112.611 90.8 112.51 90.8ZM111.404 87.3H111.304C111.203 87.3 111.203 87.4 111.203 87.6V89.4C111.203 89.7 111.404 90.1 111.706 90.3L112.309 90.7C112.41 90.8 112.51 90.8 112.611 90.7C112.712 90.7 112.712 90.6 112.712 90.4V88.6C112.712 88.3 112.51 87.9 112.209 87.7L111.606 87.3C111.505 87.3 111.505 87.3 111.404 87.3Z" fill="#D0D0D0"/>
<path d="M115.426 89.5L114.823 89.1C114.521 88.9 114.32 89.1 114.32 89.4V91.2C114.32 91.5 114.521 92 114.823 92.1L115.426 92.5C115.728 92.7 115.929 92.5 115.929 92.2V90.4C115.929 90.1 115.728 89.7 115.426 89.5Z" fill="#18192E"/>
<path d="M115.627 92.6001C115.527 92.6001 115.426 92.6001 115.326 92.5001L114.723 92.1001C114.421 91.9001 114.119 91.5001 114.119 91.1001V89.3001C114.119 89.1001 114.22 89.0001 114.32 88.9001C114.421 88.8001 114.622 88.8001 114.823 88.9001L115.426 89.3001C115.728 89.5001 116.03 89.9001 116.03 90.3001V92.1001C116.03 92.3001 115.929 92.4001 115.829 92.5001C115.829 92.6001 115.728 92.6001 115.627 92.6001ZM114.521 89.1001H114.421C114.32 89.1001 114.32 89.2001 114.32 89.4001V91.2001C114.32 91.5001 114.521 91.9001 114.823 92.1001L115.426 92.5001C115.527 92.6001 115.627 92.6001 115.728 92.5001C115.829 92.5001 115.829 92.4001 115.829 92.2001V90.4001C115.829 90.1001 115.627 89.7001 115.326 89.5001L114.723 89.1001C114.723 89.1001 114.622 89.1001 114.521 89.1001Z" fill="#D0D0D0"/>
<path d="M118.543 91.3001L117.94 90.9001C117.638 90.7001 117.437 90.9001 117.437 91.2001V93.0001C117.437 93.3001 117.638 93.8001 117.94 93.9001L118.543 94.3001C118.845 94.5001 119.046 94.3001 119.046 94.0001V92.2001C119.146 91.9001 118.845 91.5001 118.543 91.3001Z" fill="#18192E"/>
<path d="M118.845 94.4C118.744 94.4 118.644 94.4 118.543 94.3L117.94 93.9C117.638 93.7 117.337 93.3 117.337 92.9V91.1C117.337 90.9 117.437 90.8 117.538 90.7C117.638 90.6 117.839 90.6 118.041 90.7L118.644 91.1C118.945 91.3 119.247 91.7 119.247 92.1V94C119.247 94.2 119.147 94.3 119.046 94.4C118.945 94.4 118.845 94.4 118.845 94.4ZM117.638 90.9H117.538C117.437 90.9 117.437 91 117.437 91.2V93C117.437 93.3 117.638 93.7 117.94 93.9L118.543 94.3C118.644 94.4 118.744 94.4 118.845 94.3C118.945 94.3 118.945 94.2 118.945 94V92.2C118.945 91.9 118.744 91.5 118.443 91.3L117.839 90.9C117.839 90.9 117.739 90.9 117.638 90.9Z" fill="#D0D0D0"/>
<path d="M121.66 93.0999L121.057 92.6999C120.755 92.4999 120.554 92.6999 120.554 92.9999V94.7999C120.554 95.0999 120.755 95.5999 121.057 95.6999L121.66 96.0999C121.962 96.2999 122.163 96.0999 122.163 95.7999V93.9999C122.263 93.6999 121.962 93.2999 121.66 93.0999Z" fill="#18192E"/>
<path d="M121.962 96.1999C121.861 96.1999 121.761 96.1999 121.66 96.0999L121.057 95.6999C120.755 95.4999 120.454 95.0999 120.454 94.6999V92.9999C120.454 92.7999 120.554 92.6999 120.655 92.5999C120.755 92.4999 120.956 92.4999 121.157 92.5999L121.761 92.9999C122.062 93.1999 122.364 93.5999 122.364 93.9999V95.7999C122.364 95.9999 122.263 96.0999 122.163 96.1999C122.062 96.1999 121.962 96.1999 121.962 96.1999ZM120.856 92.6999H120.755C120.655 92.6999 120.655 92.7999 120.655 92.9999V94.7999C120.655 95.0999 120.856 95.4999 121.157 95.6999L121.761 96.0999C121.861 96.1999 121.962 96.1999 122.062 96.0999C122.163 96.0999 122.163 95.9999 122.163 95.7999V93.9999C122.163 93.6999 121.962 93.2999 121.66 93.0999L121.057 92.6999C120.956 92.6999 120.856 92.6999 120.856 92.6999Z" fill="#D0D0D0"/>
<path d="M124.877 94.9001L124.274 94.5001C123.973 94.3001 123.771 94.5001 123.771 94.8001V96.6001C123.771 96.9001 123.973 97.4001 124.274 97.5001L124.877 97.9001C125.179 98.1001 125.38 97.9001 125.38 97.6001V95.8001C125.38 95.5001 125.079 95.1001 124.877 94.9001Z" fill="#18192E"/>
<path d="M125.079 98.0001C124.978 98.0001 124.877 98.0001 124.777 97.9001L124.174 97.5001C123.872 97.3001 123.57 96.9001 123.57 96.5001V94.7001C123.57 94.5001 123.671 94.4001 123.771 94.3001C123.872 94.2001 124.073 94.2001 124.274 94.3001L124.877 94.7001C125.179 94.9001 125.481 95.3001 125.481 95.7001V97.5001C125.481 97.7001 125.38 97.8001 125.28 97.9001C125.179 98.0001 125.179 98.0001 125.079 98.0001ZM123.973 94.5001H123.872C123.771 94.5001 123.771 94.6001 123.771 94.8001V96.6001C123.771 96.9001 123.973 97.3001 124.274 97.5001L124.877 97.9001C124.978 98.0001 125.079 98.0001 125.179 97.9001C125.28 97.9001 125.28 97.8001 125.28 97.6001V95.8001C125.28 95.5001 125.079 95.1001 124.777 94.9001L124.174 94.5001C124.073 94.5001 123.973 94.5001 123.973 94.5001Z" fill="#D0D0D0"/>
<path d="M127.994 96.7L127.391 96.3C127.09 96.1 126.888 96.3 126.888 96.6V98.4C126.888 98.7 127.09 99.2 127.391 99.3L127.994 99.7C128.296 99.9 128.497 99.7 128.497 99.4V97.6C128.497 97.3 128.296 96.9 127.994 96.7Z" fill="#18192E"/>
<path d="M128.196 99.8C128.095 99.8 127.995 99.8 127.894 99.7L127.291 99.3C126.989 99.1 126.687 98.7 126.687 98.3V96.5C126.687 96.3 126.788 96.2 126.889 96.1C126.989 96 127.19 96 127.391 96.1L127.995 96.5C128.296 96.7 128.598 97.1 128.598 97.5V99.3C128.598 99.5 128.497 99.6 128.397 99.7C128.296 99.8 128.296 99.8 128.196 99.8ZM127.09 96.3H126.989C126.889 96.3 126.889 96.4 126.889 96.6V98.4C126.889 98.7 127.09 99.1 127.391 99.3L127.995 99.7C128.095 99.8 128.196 99.8 128.296 99.7C128.397 99.7 128.397 99.6 128.397 99.4V97.6C128.397 97.3 128.196 96.9 127.894 96.7L127.291 96.3C127.19 96.3 127.09 96.3 127.09 96.3Z" fill="#D0D0D0"/>
<path d="M131.111 98.5L130.508 98.1C130.206 97.9 130.005 98.1 130.005 98.4V100.2C130.005 100.5 130.206 101 130.508 101.1L131.111 101.5C131.413 101.7 131.614 101.5 131.614 101.2V99.4C131.614 99.1 131.413 98.7 131.111 98.5Z" fill="#18192E"/>
<path d="M131.313 101.6C131.212 101.6 131.111 101.6 131.011 101.5L130.408 101.1C130.106 100.9 129.804 100.5 129.804 100.1V98.3001C129.804 98.1001 129.905 98.0001 130.005 97.9001C130.106 97.8001 130.307 97.8001 130.508 97.9001L131.111 98.3001C131.413 98.5001 131.715 98.9001 131.715 99.3001V101.1C131.715 101.3 131.614 101.4 131.514 101.5C131.413 101.6 131.413 101.6 131.313 101.6ZM130.206 98.1001H130.106C130.005 98.1001 130.005 98.2001 130.005 98.4001V100.2C130.005 100.5 130.206 100.9 130.508 101.1L131.111 101.5C131.212 101.6 131.312 101.6 131.413 101.5C131.514 101.5 131.514 101.4 131.514 101.2V99.4001C131.514 99.1001 131.312 98.7001 131.011 98.5001L130.408 98.1001C130.307 98.1001 130.307 98.1001 130.206 98.1001Z" fill="#D0D0D0"/>
<path d="M134.228 100.3L133.625 99.9C133.323 99.7 133.122 99.9 133.122 100.2V102C133.122 102.3 133.323 102.8 133.625 102.9L134.228 103.3C134.53 103.5 134.731 103.3 134.731 103V101.2C134.731 100.9 134.53 100.5 134.228 100.3Z" fill="#18192E"/>
<path d="M134.429 103.4C134.329 103.4 134.228 103.4 134.128 103.3L133.524 102.9C133.223 102.7 132.921 102.3 132.921 101.9V100.1C132.921 99.8999 133.022 99.7999 133.122 99.6999C133.223 99.5999 133.424 99.5999 133.625 99.6999L134.228 100.1C134.53 100.3 134.832 100.7 134.832 101.1V102.9C134.832 103.1 134.731 103.2 134.63 103.3C134.63 103.4 134.53 103.4 134.429 103.4ZM133.323 99.8999H133.223C133.122 99.8999 133.122 99.9999 133.122 100.2V102C133.122 102.3 133.323 102.7 133.625 102.9L134.228 103.3C134.329 103.4 134.429 103.4 134.53 103.3C134.63 103.3 134.63 103.2 134.63 103V101.2C134.63 100.9 134.429 100.5 134.128 100.3L133.524 99.8999C133.424 99.8999 133.424 99.8999 133.323 99.8999Z" fill="#D0D0D0"/>
<path d="M137.345 102.1L136.742 101.7C136.44 101.5 136.239 101.7 136.239 102V103.8C136.239 104.1 136.44 104.6 136.742 104.7L137.345 105.1C137.647 105.3 137.848 105.1 137.848 104.8V103C137.848 102.7 137.647 102.3 137.345 102.1Z" fill="#18192E"/>
<path d="M137.546 105.2C137.446 105.2 137.345 105.2 137.245 105.1L136.641 104.7C136.34 104.5 136.038 104.1 136.038 103.7V102C136.038 101.8 136.139 101.7 136.239 101.6C136.34 101.5 136.541 101.5 136.742 101.6L137.345 102C137.647 102.2 137.949 102.6 137.949 103V104.8C137.949 105 137.848 105.1 137.747 105.2C137.747 105.2 137.647 105.2 137.546 105.2ZM136.44 101.7H136.34C136.239 101.7 136.239 101.8 136.239 102V103.8C136.239 104.1 136.44 104.5 136.742 104.7L137.345 105.1C137.446 105.2 137.546 105.2 137.647 105.1C137.747 105.1 137.747 105 137.747 104.8V103C137.747 102.7 137.546 102.3 137.245 102.1L136.641 101.7C136.641 101.7 136.541 101.7 136.44 101.7Z" fill="#D0D0D0"/>
<path d="M140.462 103.9L139.859 103.5C139.557 103.3 139.356 103.5 139.356 103.8V105.6C139.356 105.9 139.557 106.4 139.859 106.5L140.462 106.9C140.764 107.1 140.965 106.9 140.965 106.6V104.8C141.065 104.5 140.764 104 140.462 103.9Z" fill="#18192E"/>
<path d="M140.764 107C140.663 107 140.563 107 140.462 106.9L139.859 106.5C139.557 106.3 139.256 105.9 139.256 105.5V103.7C139.256 103.5 139.356 103.4 139.457 103.3C139.557 103.2 139.758 103.2 139.959 103.3L140.563 103.7C140.864 103.9 141.166 104.3 141.166 104.7V106.5C141.166 106.7 141.065 106.8 140.965 106.9C140.864 107 140.764 107 140.764 107ZM139.557 103.5H139.457C139.356 103.5 139.356 103.6 139.356 103.8V105.6C139.356 105.9 139.557 106.3 139.859 106.5L140.462 106.9C140.563 107 140.663 107 140.764 106.9C140.864 106.9 140.864 106.8 140.864 106.6V104.8C140.864 104.5 140.663 104.1 140.362 103.9L139.758 103.5C139.758 103.5 139.658 103.5 139.557 103.5Z" fill="#D0D0D0"/>
<path d="M143.579 105.7L142.976 105.3C142.674 105.1 142.473 105.3 142.473 105.6V107.4C142.473 107.7 142.674 108.2 142.976 108.3L143.579 108.7C143.881 108.9 144.082 108.7 144.082 108.4V106.6C144.182 106.3 143.881 105.8 143.579 105.7Z" fill="#18192E"/>
<path d="M143.881 108.8C143.78 108.8 143.68 108.8 143.579 108.7L142.976 108.3C142.674 108.1 142.372 107.7 142.372 107.3V105.5C142.372 105.3 142.473 105.2 142.574 105.1C142.674 105 142.875 105 143.076 105.1L143.68 105.5C143.981 105.7 144.283 106.1 144.283 106.5V108.3C144.283 108.5 144.182 108.6 144.082 108.7C143.981 108.8 143.881 108.8 143.881 108.8ZM142.775 105.3H142.674C142.574 105.3 142.574 105.4 142.574 105.6V107.4C142.574 107.7 142.775 108.1 143.076 108.3L143.68 108.7C143.78 108.8 143.881 108.8 143.981 108.7C144.082 108.7 144.082 108.6 144.082 108.4V106.6C144.082 106.3 143.881 105.9 143.579 105.7L142.976 105.3C142.875 105.3 142.775 105.3 142.775 105.3Z" fill="#D0D0D0"/>
<path d="M146.696 107.5L146.093 107.1C145.791 106.9 145.59 107.1 145.59 107.4V109.2C145.59 109.5 145.791 110 146.093 110.1L146.696 110.5C146.998 110.7 147.199 110.5 147.199 110.2V108.4C147.299 108.1 146.998 107.6 146.696 107.5Z" fill="#18192E"/>
<path d="M146.998 110.6C146.897 110.6 146.797 110.6 146.696 110.5L146.093 110.1C145.791 109.9 145.489 109.5 145.489 109.1V107.3C145.489 107.1 145.59 107 145.691 106.9C145.791 106.8 145.992 106.8 146.193 106.9L146.797 107.3C147.098 107.5 147.4 107.9 147.4 108.3V110.1C147.4 110.3 147.299 110.4 147.199 110.5C147.098 110.6 146.998 110.6 146.998 110.6ZM145.892 107.1H145.791C145.691 107.1 145.691 107.2 145.691 107.4V109.2C145.691 109.5 145.892 109.9 146.193 110.1L146.797 110.5C146.897 110.6 146.998 110.6 147.098 110.5C147.199 110.5 147.199 110.4 147.199 110.2V108.4C147.199 108.1 146.998 107.7 146.696 107.5L146.093 107.1C145.992 107.1 145.892 107.1 145.892 107.1Z" fill="#D0D0D0"/>
<path d="M149.913 109.3L149.31 108.9C149.008 108.7 148.807 108.9 148.807 109.2V111C148.807 111.3 149.008 111.8 149.31 111.9L149.913 112.3C150.215 112.5 150.416 112.3 150.416 112V110.2C150.416 109.9 150.215 109.4 149.913 109.3Z" fill="#18192E"/>
<path d="M150.114 112.4C150.014 112.4 149.913 112.4 149.813 112.3L149.21 111.9C148.908 111.7 148.606 111.3 148.606 110.9V109.1C148.606 108.9 148.707 108.8 148.807 108.7C148.908 108.6 149.109 108.6 149.31 108.7L149.913 109.1C150.215 109.3 150.517 109.7 150.517 110.1V111.9C150.517 112.1 150.416 112.2 150.316 112.3C150.215 112.4 150.215 112.4 150.114 112.4ZM149.008 108.9H148.908C148.807 108.9 148.807 109 148.807 109.2V111C148.807 111.3 149.008 111.7 149.31 111.9L149.913 112.3C150.014 112.4 150.114 112.4 150.215 112.3C150.316 112.3 150.316 112.2 150.316 112V110.2C150.316 109.9 150.114 109.5 149.813 109.3L149.21 108.9C149.109 108.9 149.008 108.9 149.008 108.9Z" fill="#D0D0D0"/>
<path d="M153.03 111.1L152.427 110.7C152.125 110.5 151.924 110.7 151.924 111V112.8C151.924 113.1 152.125 113.6 152.427 113.7L153.03 114.1C153.332 114.3 153.533 114.1 153.533 113.8V112C153.533 111.7 153.332 111.2 153.03 111.1Z" fill="#18192E"/>
<path d="M153.231 114.2C153.131 114.2 153.03 114.2 152.93 114.1L152.326 113.7C152.025 113.5 151.723 113.1 151.723 112.7V111C151.723 110.8 151.824 110.7 151.924 110.6C152.025 110.5 152.226 110.5 152.427 110.6L153.03 111C153.332 111.2 153.634 111.6 153.634 112V113.8C153.634 114 153.533 114.1 153.433 114.2C153.332 114.2 153.332 114.2 153.231 114.2ZM152.125 110.7H152.025C151.924 110.7 151.924 110.8 151.924 111V112.8C151.924 113.1 152.125 113.5 152.427 113.7L153.03 114.1C153.131 114.2 153.231 114.2 153.332 114.1C153.432 114.1 153.433 114 153.433 113.8V112C153.433 111.7 153.231 111.3 152.93 111.1L152.326 110.7C152.226 110.7 152.226 110.7 152.125 110.7Z" fill="#D0D0D0"/>
<path d="M156.147 112.9L155.544 112.5C155.242 112.3 155.041 112.5 155.041 112.8V114.6C155.041 114.9 155.242 115.4 155.544 115.5L156.147 115.9C156.449 116.1 156.65 115.9 156.65 115.6V113.8C156.65 113.5 156.449 113 156.147 112.9Z" fill="#18192E"/>
<path d="M156.348 116C156.248 116 156.147 116 156.047 115.9L155.443 115.5C155.142 115.3 154.84 114.9 154.84 114.5V112.7C154.84 112.5 154.941 112.4 155.041 112.3C155.142 112.2 155.343 112.2 155.544 112.3L156.147 112.7C156.449 112.9 156.751 113.3 156.751 113.7V115.5C156.751 115.7 156.65 115.8 156.549 115.9C156.549 116 156.449 116 156.348 116ZM155.242 112.5H155.142C155.041 112.5 155.041 112.6 155.041 112.8V114.6C155.041 114.9 155.242 115.3 155.544 115.5L156.147 115.9C156.248 116 156.348 116 156.449 115.9C156.549 115.9 156.549 115.8 156.549 115.6V113.8C156.549 113.5 156.348 113.1 156.047 112.9L155.443 112.5C155.343 112.5 155.343 112.5 155.242 112.5Z" fill="#D0D0D0"/>
<path d="M159.264 114.7L158.661 114.3C158.359 114.1 158.158 114.3 158.158 114.6V116.4C158.158 116.7 158.359 117.2 158.661 117.3L159.264 117.7C159.566 117.9 159.767 117.7 159.767 117.4V115.6C159.767 115.2 159.566 114.8 159.264 114.7Z" fill="#18192E"/>
<path d="M159.465 117.8C159.365 117.8 159.264 117.8 159.164 117.7L158.56 117.3C158.259 117.1 157.957 116.7 157.957 116.3V114.5C157.957 114.3 158.058 114.2 158.158 114.1C158.259 114 158.46 114 158.661 114.1L159.264 114.5C159.566 114.7 159.867 115.1 159.867 115.5V117.3C159.867 117.5 159.767 117.6 159.666 117.7C159.666 117.8 159.566 117.8 159.465 117.8ZM158.359 114.3H158.259C158.158 114.3 158.158 114.4 158.158 114.6V116.4C158.158 116.7 158.359 117.1 158.661 117.3L159.264 117.7C159.365 117.8 159.465 117.8 159.566 117.7C159.666 117.7 159.666 117.6 159.666 117.4V115.6C159.666 115.3 159.465 114.9 159.164 114.7L158.56 114.3C158.46 114.3 158.46 114.3 158.359 114.3Z" fill="#D0D0D0"/>
<path d="M162.381 116.5L161.778 116.1C161.476 115.9 161.275 116.1 161.275 116.4V118.2C161.275 118.5 161.476 119 161.778 119.1L162.381 119.5C162.683 119.7 162.884 119.5 162.884 119.2V117.4C162.984 117 162.683 116.6 162.381 116.5Z" fill="#18192E"/>
<path d="M162.683 119.6C162.582 119.6 162.482 119.6 162.381 119.5L161.778 119.1C161.476 118.9 161.174 118.5 161.174 118.1V116.3C161.174 116.1 161.275 116 161.376 115.9C161.476 115.8 161.677 115.8 161.878 115.9L162.482 116.3C162.783 116.5 163.085 116.9 163.085 117.3V119.1C163.085 119.3 162.984 119.4 162.884 119.5C162.783 119.6 162.683 119.6 162.683 119.6ZM161.476 116.1H161.376C161.275 116.1 161.275 116.2 161.275 116.4V118.2C161.275 118.5 161.476 118.9 161.778 119.1L162.381 119.5C162.482 119.6 162.582 119.6 162.683 119.5C162.783 119.5 162.783 119.4 162.783 119.2V117.4C162.783 117.1 162.582 116.7 162.28 116.5L161.677 116.1C161.677 116.1 161.577 116.1 161.476 116.1Z" fill="#D0D0D0"/>
<path d="M168.112 126.2C167.911 126.2 167.71 126.1 167.509 126L166.101 125.2C165.397 124.8 164.895 123.9 164.895 123.1V119.2C164.895 118.8 164.995 118.5 165.297 118.4C165.498 118.3 165.9 118.3 166.202 118.5L167.609 119.3C168.313 119.7 168.816 120.6 168.816 121.4V125.3C168.816 125.7 168.715 126 168.414 126.1C168.313 126.2 168.213 126.2 168.112 126.2ZM165.598 118.5C165.498 118.5 165.397 118.5 165.297 118.6C165.096 118.7 164.995 119 164.995 119.3V123.2C164.995 123.9 165.498 124.8 166.101 125.2L167.509 126C167.81 126.2 168.112 126.2 168.313 126.1C168.514 126 168.615 125.7 168.615 125.4V121.5C168.615 120.8 168.112 119.9 167.509 119.5L166.101 118.7C165.9 118.6 165.8 118.5 165.598 118.5Z" fill="#D0D0D0"/>
<path d="M74.4037 72.7C74.2026 72.7 74.0016 72.6 73.8005 72.5L72.3928 71.7C71.689 71.3 71.1863 70.4 71.1863 69.6V65.7C71.1863 65.3 71.2868 65 71.5885 64.9C71.7895 64.8 72.1917 64.8 72.4934 65L73.901 65.8C74.6048 66.2 75.1075 67.1 75.1075 67.9V71.8C75.1075 72.2 75.007 72.5 74.7054 72.6C74.6048 72.7 74.5043 72.7 74.4037 72.7ZM71.8901 65C71.7895 65 71.689 65 71.5885 65.1C71.3874 65.2 71.2868 65.5 71.2868 65.8V69.7C71.2868 70.4 71.7895 71.3 72.3928 71.7L73.8005 72.5C74.1021 72.7 74.4037 72.7 74.6048 72.6C74.8059 72.5 74.9065 72.2 74.9065 71.9V68C74.9065 67.3 74.4037 66.4 73.8005 66L72.3928 65.1C72.1917 65 71.9906 65 71.8901 65Z" fill="#D0D0D0"/>
<path d="M194.958 131.3C192.142 131.3 189.025 130.7 186.21 129.6L185.305 125.9C187.618 126.6 189.93 126.9 192.042 126.9C194.354 126.9 196.265 126.5 197.672 125.7C198.778 125.1 199.482 124.2 199.683 123.2C200.689 124.8 201.493 126.6 202.197 128.4C201.895 129 201.292 129.6 200.488 130.1C199.08 130.9 197.17 131.3 194.958 131.3Z" fill="#18192E"/>
<path d="M199.683 123.4C200.588 125 201.393 126.6 202.096 128.4C201.795 129.1 201.192 129.6 200.387 130.1C199.08 130.9 197.17 131.3 194.857 131.3C192.142 131.3 189.026 130.7 186.11 129.6L185.305 126.1C187.517 126.8 189.83 127.1 191.941 127.1C194.254 127.1 196.265 126.7 197.572 125.9C198.678 125.2 199.382 124.4 199.683 123.4ZM199.583 123C199.382 124 198.778 125 197.572 125.7C196.164 126.5 194.153 126.9 191.941 126.9C189.83 126.9 187.417 126.5 185.104 125.8L186.009 129.6C188.925 130.7 192.142 131.4 194.857 131.4C197.069 131.4 199.08 131 200.488 130.2C201.393 129.7 201.895 129.1 202.297 128.4C201.493 126.4 200.588 124.6 199.583 123Z" fill="#D0D0D0"/>
<path d="M137.848 111C137.848 111 51.982 116.8 21.8184 115L11.2611 108.9C11.2611 108.9 67.7676 100 81.844 97.1C95.9204 94.2 101.953 91.1 102.858 90.8L137.848 111Z" fill="#EFEFEF"/>
<path d="M63.7459 100.4L68.6726 103.2C54.8979 105.8 34.6882 108.9 34.6882 108.9L29.6609 106C29.6609 106 58.2159 101.3 63.7459 100.4Z" fill="#282DAD"/>
<path d="M34.6882 108.9L29.6609 106L29.7615 105.9L34.7888 108.8C35.5931 108.7 55.0989 105.7 68.572 103.2L63.8464 100.5L63.9469 100.4L69.0748 103.3H68.8737C55.0989 105.8 34.8893 108.9 34.6882 108.9Z" fill="#8D8D8D"/>
<path d="M32.0739 107.4V107.3C32.275 107.3 53.1885 104 65.9577 101.6V101.7C53.289 104.1 32.3755 107.4 32.0739 107.4Z" fill="#8D8D8D"/>
<path d="M74.2025 98.6L79.4309 101.6C79.4309 101.6 95.9204 98.9 109.092 94.5L102.858 90.9C102.757 90.9 94.1105 95.1 74.2025 98.6Z" fill="#282DAD"/>
<path d="M79.4309 101.6L74.2025 98.6L74.3031 98.5L79.4309 101.5C80.2353 101.4 96.3225 98.6 108.991 94.4V94.5C96.1215 98.8 79.632 101.6 79.4309 101.6Z" fill="#8D8D8D"/>
<path d="M76.5151 99.9V99.8C90.692 97.9 106.075 92.8 106.176 92.7V92.8C106.075 92.9 90.692 98 76.5151 99.9Z" fill="#8D8D8D"/>
<path d="M20.7652 107.283L20.5909 107.528L29.2066 113.596L29.381 113.351L20.7652 107.283Z" fill="#8D8D8D"/>
<path d="M19.5058 113.8C19.4052 113.8 19.4052 113.7 19.4052 113.7C19.4052 113.6 19.5058 113.6 19.5058 113.5C20.109 113.5 80.939 112.6 132.821 108C132.921 108 133.022 108.1 133.022 108.1C133.022 108.2 132.921 108.3 132.921 108.3C81.0396 112.9 20.109 113.8 19.5058 113.8Z" fill="#8D8D8D"/>
<path d="M26.6446 111.7V111.6L76.314 104.8L112.812 96.6L112.913 96.7L76.314 104.9L26.6446 111.7Z" fill="#8D8D8D"/>
<path d="M85.8657 111.4L76.2134 104.9L76.3139 104.8L85.9663 111.3L85.8657 111.4Z" fill="#8D8D8D"/>
<path d="M11.3616 108.9L9.7529 95.6001L11.5627 96.7001L18.1987 112.8L11.3616 108.9Z" fill="#282DAD"/>
<path d="M11.3616 109.7L9.75287 122.9L11.5627 123.9L18.3998 113.7L11.3616 109.7Z" fill="#282DAD"/>
<path d="M107.785 120.8C107.986 121.2 108.187 121.8 108.187 122.4C108.187 124.7 106.578 127.4 104.668 128.5C103.863 128.9 103.16 129.1 102.657 128.9C103.26 129.9 104.467 130.1 105.774 129.3C107.684 128.2 109.293 125.4 109.293 123.2C109.293 121.9 108.69 121 107.785 120.8Z" fill="#18192E"/>
<path d="M200.387 124.4C199.985 123.6 199.985 123.7 199.583 123C199.382 124 198.778 125 197.572 125.7C194.757 127.3 189.93 127.3 185.104 125.8L186.009 129.6C194.354 132 199.683 127.3 200.387 124.4Z" fill="#18192E"/>
<path d="M67.6671 50.8001L28.6555 43.0001L38.1068 40.1001L37.3024 39.3001C37.3024 39.3001 36.498 35.4001 40.8215 33.2001L41.3242 35.7001L67.6671 50.8001Z" fill="#D0D0D0"/>
<path d="M66.8628 57.7L57.1099 62.2L53.1886 57.9L66.8628 57.7Z" fill="#D0D0D0"/>
<defs>
<linearGradient id="paint0_linear_207_7466" x1="150.823" y1="46.7952" x2="146.263" y2="51.3801" gradientUnits="userSpaceOnUse">
<stop stop-color="#E2F0F0"/>
<stop offset="0.00802994" stop-color="#E3F1F1"/>
<stop offset="0.1384" stop-color="#F3F9F9"/>
<stop offset="0.2875" stop-color="#FCFEFE"/>
<stop offset="0.4961" stop-color="white"/>
<stop offset="0.7071" stop-color="#FBFEFE"/>
<stop offset="0.913" stop-color="#EFFAFA"/>
<stop offset="1" stop-color="#E8F7F7"/>
</linearGradient>
<linearGradient id="paint1_linear_207_7466" x1="157.738" y1="34.0888" x2="153.178" y2="38.6738" gradientUnits="userSpaceOnUse">
<stop stop-color="#E2F0F0"/>
<stop offset="0.00802994" stop-color="#E3F1F1"/>
<stop offset="0.1384" stop-color="#F3F9F9"/>
<stop offset="0.2875" stop-color="#FCFEFE"/>
<stop offset="0.4961" stop-color="white"/>
<stop offset="0.7071" stop-color="#FBFEFE"/>
<stop offset="0.913" stop-color="#EFFAFA"/>
<stop offset="1" stop-color="#E8F7F7"/>
</linearGradient>
<linearGradient id="paint2_linear_207_7466" x1="137.397" y1="71.149" x2="132.837" y2="75.734" gradientUnits="userSpaceOnUse">
<stop stop-color="#E2F0F0"/>
<stop offset="0.00802994" stop-color="#E3F1F1"/>
<stop offset="0.1384" stop-color="#F3F9F9"/>
<stop offset="0.2875" stop-color="#FCFEFE"/>
<stop offset="0.4961" stop-color="white"/>
<stop offset="0.7071" stop-color="#FBFEFE"/>
<stop offset="0.913" stop-color="#EFFAFA"/>
<stop offset="1" stop-color="#E8F7F7"/>
</linearGradient>
<linearGradient id="paint3_linear_207_7466" x1="144.598" y1="58.8078" x2="140.037" y2="63.3928" gradientUnits="userSpaceOnUse">
<stop stop-color="#E2F0F0"/>
<stop offset="0.00802994" stop-color="#E3F1F1"/>
<stop offset="0.1384" stop-color="#F3F9F9"/>
<stop offset="0.2875" stop-color="#FCFEFE"/>
<stop offset="0.4961" stop-color="white"/>
<stop offset="0.7071" stop-color="#FBFEFE"/>
<stop offset="0.913" stop-color="#EFFAFA"/>
<stop offset="1" stop-color="#E8F7F7"/>
</linearGradient>
<linearGradient id="paint4_linear_207_7466" x1="49.0561" y1="107.16" x2="53.6162" y2="102.575" gradientUnits="userSpaceOnUse">
<stop stop-color="#E2F0F0"/>
<stop offset="0.00802994" stop-color="#E3F1F1"/>
<stop offset="0.1384" stop-color="#F3F9F9"/>
<stop offset="0.2875" stop-color="#FCFEFE"/>
<stop offset="0.4961" stop-color="white"/>
<stop offset="0.7071" stop-color="#FBFEFE"/>
<stop offset="0.913" stop-color="#EFFAFA"/>
<stop offset="1" stop-color="#E8F7F7"/>
</linearGradient>
<linearGradient id="paint5_linear_207_7466" x1="26.9287" y1="111.131" x2="31.4887" y2="106.546" gradientUnits="userSpaceOnUse">
<stop stop-color="#E2F0F0"/>
<stop offset="0.00802994" stop-color="#E3F1F1"/>
<stop offset="0.1384" stop-color="#F3F9F9"/>
<stop offset="0.2875" stop-color="#FCFEFE"/>
<stop offset="0.4961" stop-color="white"/>
<stop offset="0.7071" stop-color="#FBFEFE"/>
<stop offset="0.913" stop-color="#EFFAFA"/>
<stop offset="1" stop-color="#E8F7F7"/>
</linearGradient>
<linearGradient id="paint6_linear_207_7466" x1="91.467" y1="99.4506" x2="96.027" y2="94.8657" gradientUnits="userSpaceOnUse">
<stop stop-color="#E2F0F0"/>
<stop offset="0.00802994" stop-color="#E3F1F1"/>
<stop offset="0.1384" stop-color="#F3F9F9"/>
<stop offset="0.2875" stop-color="#FCFEFE"/>
<stop offset="0.4961" stop-color="white"/>
<stop offset="0.7071" stop-color="#FBFEFE"/>
<stop offset="0.913" stop-color="#EFFAFA"/>
<stop offset="1" stop-color="#E8F7F7"/>
</linearGradient>
<linearGradient id="paint7_linear_207_7466" x1="69.9757" y1="103.586" x2="74.5357" y2="99.0006" gradientUnits="userSpaceOnUse">
<stop stop-color="#E2F0F0"/>
<stop offset="0.00802994" stop-color="#E3F1F1"/>
<stop offset="0.1384" stop-color="#F3F9F9"/>
<stop offset="0.2875" stop-color="#FCFEFE"/>
<stop offset="0.4961" stop-color="white"/>
<stop offset="0.7071" stop-color="#FBFEFE"/>
<stop offset="0.913" stop-color="#EFFAFA"/>
<stop offset="1" stop-color="#E8F7F7"/>
</linearGradient>
<linearGradient id="paint8_linear_207_7466" x1="185.981" y1="137.961" x2="183.185" y2="135.15" gradientUnits="userSpaceOnUse">
<stop stop-color="#E2F0F0"/>
<stop offset="0.00802994" stop-color="#E3F1F1"/>
<stop offset="0.1384" stop-color="#F3F9F9"/>
<stop offset="0.2875" stop-color="#FCFEFE"/>
<stop offset="0.4961" stop-color="white"/>
<stop offset="0.7071" stop-color="#FBFEFE"/>
<stop offset="0.913" stop-color="#EFFAFA"/>
<stop offset="1" stop-color="#E8F7F7"/>
</linearGradient>
<linearGradient id="paint9_linear_207_7466" x1="106.124" y1="118.165" x2="99.7213" y2="129.208" gradientUnits="userSpaceOnUse">
<stop stop-color="#E2F0F0"/>
<stop offset="0.00802994" stop-color="#E3F1F1"/>
<stop offset="0.1384" stop-color="#F3F9F9"/>
<stop offset="0.2875" stop-color="#FCFEFE"/>
<stop offset="0.4961" stop-color="white"/>
<stop offset="0.7071" stop-color="#FBFEFE"/>
<stop offset="0.913" stop-color="#EFFAFA"/>
<stop offset="1" stop-color="#E8F7F7"/>
</linearGradient>
<linearGradient id="paint10_linear_207_7466" x1="171.699" y1="80.4814" x2="165.496" y2="92.3614" gradientUnits="userSpaceOnUse">
<stop stop-color="#E2F0F0"/>
<stop offset="0.00802994" stop-color="#E3F1F1"/>
<stop offset="0.1384" stop-color="#F3F9F9"/>
<stop offset="0.2875" stop-color="#FCFEFE"/>
<stop offset="0.4961" stop-color="white"/>
<stop offset="0.7071" stop-color="#FBFEFE"/>
<stop offset="0.913" stop-color="#EFFAFA"/>
<stop offset="1" stop-color="#E8F7F7"/>
</linearGradient>
</defs>
</svg>
