<svg width="116" height="30" viewBox="0 0 116 30" fill="none" xmlns="http://www.w3.org/2000/svg">
<g clip-path="url(#clip0_172_723)">
<path d="M41.378 10.4442C42.2352 11.3015 42.2352 12.6914 41.378 13.5486L25.8033 29.1234C24.9461 29.9806 23.5562 29.9806 22.699 29.1234L12.8976 19.3222C12.0403 18.465 12.0403 17.0751 12.8976 16.2178L28.4725 0.642951C29.3297 -0.214317 30.7196 -0.214317 31.5768 0.642951L41.378 10.4442Z" fill="#18192E"/>
<path opacity="0.6" d="M29.4263 10.4442C30.2835 11.3015 30.2835 12.6914 29.4263 13.5486L13.8516 29.1234C12.9943 29.9806 11.6044 29.9806 10.7472 29.1234L0.945931 19.3222C0.088661 18.465 0.088661 17.0751 0.945931 16.2178L16.5208 0.642951C17.378 -0.214317 18.7679 -0.214317 19.6251 0.642951L29.4263 10.4442Z" fill="#18192E"/>
<path d="M58.5647 15.9795C59.3919 16.1338 60.0721 16.5475 60.6051 17.2206C61.1378 17.8937 61.4045 18.6648 61.4045 19.5345C61.4045 20.3196 61.208 21.014 60.8155 21.6169C60.4368 22.2059 59.8829 22.6687 59.1538 23.0053C58.4246 23.3419 57.5619 23.5102 56.5664 23.5102H50.235V8.82764H56.2928C57.2886 8.82764 58.144 8.9889 58.8593 9.31144C59.5884 9.63398 60.1353 10.0827 60.4997 10.6577C60.8784 11.2326 61.0679 11.8847 61.0679 12.6139C61.0679 13.4693 60.8363 14.1845 60.3735 14.7595C59.925 15.3345 59.3221 15.7411 58.5647 15.9795ZM53.1797 14.8857H55.8721C56.5734 14.8857 57.1134 14.7315 57.4921 14.4229C57.8704 14.1004 58.0599 13.6446 58.0599 13.0557C58.0599 12.4667 57.8704 12.0109 57.4921 11.6884C57.1134 11.3659 56.5734 11.2046 55.8721 11.2046H53.1797V14.8857ZM56.1457 21.112C56.861 21.112 57.4149 20.9437 57.8074 20.6071C58.2143 20.2705 58.4173 19.7938 58.4173 19.177C58.4173 18.5459 58.2069 18.055 57.7862 17.7044C57.3658 17.3398 56.7977 17.1575 56.0824 17.1575H53.1797V21.112H56.1457Z" fill="#18192E"/>
<path d="M68.0843 23.6992C66.9626 23.6992 65.9529 23.4537 65.0554 22.9631C64.158 22.4582 63.4497 21.7499 62.9309 20.8386C62.426 19.9269 62.1736 18.8751 62.1736 17.6832C62.1736 16.4912 62.433 15.4395 62.9518 14.528C63.4848 13.6165 64.207 12.9153 65.1183 12.4245C66.0301 11.9196 67.0468 11.6672 68.1685 11.6672C69.2902 11.6672 70.3069 11.9196 71.2186 12.4245C72.1299 12.9153 72.8452 13.6165 73.364 14.528C73.897 15.4395 74.1633 16.4912 74.1633 17.6832C74.1633 18.8751 73.89 19.9269 73.3431 20.8386C72.81 21.7499 72.0809 22.4582 71.1553 22.9631C70.244 23.4537 69.2203 23.6992 68.0843 23.6992ZM68.0843 21.1331C68.6174 21.1331 69.1149 21.0069 69.5777 20.7545C70.0544 20.4877 70.4331 20.0952 70.7137 19.5764C70.9943 19.0576 71.1344 18.4265 71.1344 17.6832C71.1344 16.5754 70.8399 15.727 70.2509 15.138C69.6761 14.535 68.9679 14.2335 68.1264 14.2335C67.2849 14.2335 66.577 14.535 66.0019 15.138C65.441 15.727 65.1604 16.5754 65.1604 17.6832C65.1604 18.7909 65.4341 19.6467 65.981 20.2496C66.5419 20.8386 67.2429 21.1331 68.0843 21.1331Z" fill="#18192E"/>
<path d="M78.4277 13.666C78.8063 13.049 79.2973 12.5652 79.9002 12.2146C80.5174 11.864 81.2184 11.6887 82.0039 11.6887V14.7808H81.2253C80.2997 14.7808 79.5988 14.9982 79.1221 15.4329C78.6592 15.8676 78.4277 16.6249 78.4277 17.7047V23.5105H75.4829V11.857H78.4277V13.666Z" fill="#18192E"/>
<path d="M82.3884 17.6414C82.3884 16.4635 82.6196 15.4188 83.0824 14.5072C83.5592 13.5957 84.2042 12.8946 85.0178 12.4037C85.8311 11.9129 86.7355 11.6675 87.731 11.6675C88.4883 11.6675 89.2105 11.8358 89.8979 12.1724C90.585 12.4949 91.132 12.9296 91.5384 13.4765V7.94434H94.5256V23.5104H91.5384V21.7853C91.174 22.3605 90.6622 22.8229 90.0029 23.1738C89.3437 23.5243 88.5794 23.6995 87.7101 23.6995C86.7285 23.6995 85.8311 23.4471 85.0178 22.9422C84.2042 22.4373 83.5592 21.7294 83.0824 20.8177C82.6196 19.8921 82.3884 18.8333 82.3884 17.6414ZM91.5596 17.6835C91.5596 16.9683 91.4192 16.3583 91.1389 15.8535C90.8583 15.3346 90.4796 14.9419 90.0029 14.6755C89.5262 14.395 89.0144 14.2548 88.4675 14.2548C87.9205 14.2548 87.4156 14.388 86.9528 14.6545C86.49 14.9209 86.1113 15.3136 85.8168 15.8324C85.5366 16.3373 85.3961 16.9403 85.3961 17.6414C85.3961 18.3427 85.5366 18.9595 85.8168 19.4925C86.1113 20.0113 86.49 20.4112 86.9528 20.6914C87.4295 20.9721 87.9344 21.1122 88.4675 21.1122C89.0144 21.1122 89.5262 20.979 90.0029 20.7127C90.4796 20.4321 90.8583 20.0395 91.1389 19.5346C91.4192 19.0158 91.5596 18.3986 91.5596 17.6835Z" fill="#18192E"/>
<path d="M107.394 17.4308C107.394 17.8515 107.366 18.2301 107.31 18.5667H98.7904C98.8607 19.4081 99.1548 20.067 99.6739 20.5441C100.193 21.0208 100.831 21.2593 101.588 21.2593C102.682 21.2593 103.46 20.7896 103.923 19.8497H107.099C106.763 20.9718 106.118 21.8974 105.164 22.6265C104.211 23.3418 103.039 23.6992 101.651 23.6992C100.529 23.6992 99.5196 23.4537 98.6221 22.9631C97.7386 22.4582 97.0446 21.7499 96.5397 20.8386C96.0487 19.9269 95.8036 18.8751 95.8036 17.6832C95.8036 16.4772 96.0487 15.4185 96.5397 14.507C97.0303 13.5954 97.7177 12.8943 98.6009 12.4034C99.4844 11.9127 100.501 11.6672 101.651 11.6672C102.759 11.6672 103.748 11.9056 104.617 12.3824C105.501 12.8592 106.181 13.5393 106.657 14.4228C107.148 15.2923 107.394 16.2949 107.394 17.4308ZM104.344 16.5894C104.329 15.8322 104.056 15.2292 103.523 14.7804C102.99 14.3176 102.338 14.0863 101.567 14.0863C100.838 14.0863 100.221 14.3106 99.716 14.7594C99.2251 15.1941 98.9236 15.8041 98.8113 16.5894H104.344Z" fill="#18192E"/>
<path d="M111.646 13.666C112.025 13.049 112.516 12.5652 113.119 12.2146C113.736 11.864 114.437 11.6887 115.222 11.6887V14.7808H114.444C113.518 14.7808 112.817 14.9982 112.34 15.4329C111.878 15.8676 111.646 16.6249 111.646 17.7047V23.5105H108.701V11.857H111.646V13.666Z" fill="#18192E"/>
</g>
<defs>
<clipPath id="clip0_172_723">
<rect width="115.244" height="30" fill="white"/>
</clipPath>
</defs>
</svg>
