<svg width="219" height="41" viewBox="0 0 219 41" fill="none" xmlns="http://www.w3.org/2000/svg">
<path d="M40.8392 0.5L60.8323 20.4931L40.8376 40.4879L20.8445 20.4947L40.8392 0.5Z" fill="#282DAD"/>
<path d="M13.7717 20.5034L30.984 3.29183C28.0086 1.53415 24.5494 0.506836 20.8421 0.506836C9.80114 0.506836 0.847778 9.4602 0.847778 20.5034C0.847778 31.5467 9.80114 40.5 20.8421 40.5C24.5487 40.5 28.0086 39.472 30.984 37.7143L13.7717 20.5034Z" fill="#18192E"/>
<path d="M82.5391 35.3C78.0058 35.3 74.3658 33.9266 71.6191 31.18C68.8724 28.4066 67.4991 24.8466 67.4991 20.5C67.4991 16.1533 68.8724 12.6066 71.6191 9.85995C74.3658 7.08662 78.0058 5.69995 82.5391 5.69995C86.5924 5.69995 89.8858 6.69995 92.4191 8.69995C94.9791 10.6733 96.4458 13.3266 96.8191 16.66H89.9391C89.5658 15.06 88.7391 13.8066 87.4591 12.9C86.1791 11.9666 84.5524 11.5 82.5791 11.5C79.9658 11.5 77.9258 12.3133 76.4591 13.94C74.9924 15.54 74.2591 17.7266 74.2591 20.5C74.2591 23.2733 74.9924 25.4733 76.4591 27.1C77.9258 28.7 79.9658 29.5 82.5791 29.5C84.5524 29.5 86.1791 29.0466 87.4591 28.1399C88.7391 27.2066 89.5658 25.94 89.9391 24.34H96.8191C96.4458 27.6733 94.9791 30.34 92.4191 32.34C89.8858 34.3133 86.5924 35.3 82.5391 35.3Z" fill="#18192E"/>
<path d="M108.064 35.02C105.264 35.02 103.051 34.0733 101.424 32.18C99.7977 30.2866 98.9844 27.8466 98.9844 24.86C98.9844 21.9266 99.8244 19.5 101.504 17.58C103.184 15.66 105.398 14.7 108.144 14.7C109.504 14.7 110.718 14.9933 111.784 15.58C112.851 16.1666 113.651 16.9666 114.184 17.98V15.22H120.264V34.4999H114.184V31.78C113.651 32.74 112.824 33.5266 111.704 34.1399C110.611 34.7266 109.398 35.02 108.064 35.02ZM109.824 29.94C111.291 29.94 112.424 29.46 113.224 28.5C114.024 27.54 114.424 26.3266 114.424 24.86C114.424 23.42 114.024 22.22 113.224 21.26C112.424 20.3 111.291 19.82 109.824 19.82C108.438 19.82 107.318 20.2866 106.464 21.22C105.638 22.1533 105.224 23.3666 105.224 24.86C105.224 26.3533 105.638 27.58 106.464 28.54C107.318 29.4733 108.438 29.94 109.824 29.94Z" fill="#18192E"/>
<path d="M125.345 34.4999V15.22H131.465V19.26C131.785 17.8733 132.439 16.8066 133.425 16.06C134.439 15.2866 135.559 14.9 136.785 14.9C137.425 14.9 137.959 14.9533 138.385 15.06V20.74C137.665 20.66 137.052 20.62 136.545 20.62C133.159 20.62 131.465 22.7666 131.465 27.06V34.4999H125.345Z" fill="#18192E"/>
<path d="M171.833 19.7799V24.66H169.193C168.473 28.0466 166.887 30.6733 164.433 32.54C162.007 34.38 158.873 35.3 155.033 35.3C150.607 35.3 147.02 33.9266 144.273 31.18C141.553 28.4066 140.207 24.8866 140.233 20.62C140.233 16.38 141.58 12.8333 144.273 9.97995C146.993 7.12662 150.7 5.69995 155.393 5.69995C159.1 5.69995 162.167 6.59328 164.593 8.37995C167.047 10.1666 168.393 12.4333 168.633 15.18H161.553C161.287 13.98 160.607 13.0066 159.513 12.2599C158.447 11.5133 157.087 11.14 155.433 11.14C152.687 11.14 150.58 12.0066 149.113 13.7399C147.673 15.4733 146.967 17.7266 146.993 20.5C146.967 23.1666 147.7 25.3666 149.193 27.1C150.713 28.8066 152.713 29.66 155.193 29.66C159.113 29.66 161.553 27.9933 162.513 24.66H157.513V19.7799H171.833Z" fill="#18192E"/>
<path d="M192.227 32.22C190.307 34.14 187.721 35.1 184.467 35.1C181.214 35.1 178.614 34.14 176.667 32.22C174.721 30.3 173.747 27.8466 173.747 24.86C173.747 21.8733 174.721 19.4333 176.667 17.54C178.614 15.62 181.214 14.66 184.467 14.66C187.721 14.66 190.307 15.62 192.227 17.54C194.174 19.4333 195.147 21.8733 195.147 24.86C195.147 27.8466 194.174 30.3 192.227 32.22ZM184.467 29.9C185.881 29.9 187.001 29.4333 187.827 28.5C188.654 27.5666 189.067 26.3533 189.067 24.86C189.067 23.3666 188.654 22.1533 187.827 21.22C187.001 20.2866 185.881 19.82 184.467 19.82C183.027 19.82 181.894 20.2866 181.067 21.22C180.267 22.1533 179.867 23.3666 179.867 24.86C179.867 26.3533 180.267 27.5666 181.067 28.5C181.894 29.4333 183.027 29.9 184.467 29.9Z" fill="#18192E"/>
<path d="M198.666 34.4999V15.22H204.786V18.02C205.932 15.8066 208.012 14.7 211.026 14.7C215.719 14.7 218.066 17.3266 218.066 22.58V34.4999H211.906V24.58C211.906 22.9266 211.639 21.7266 211.106 20.98C210.599 20.2333 209.732 19.86 208.506 19.86C206.026 19.86 204.786 21.38 204.786 24.42V34.4999H198.666Z" fill="#18192E"/>
</svg>
