<svg width="30" height="30" viewBox="0 0 30 30" fill="none" xmlns="http://www.w3.org/2000/svg">
<rect opacity="0.1" width="30" height="30" fill="#F8F8F8"/>
<path fill-rule="evenodd" clip-rule="evenodd" d="M16.9035 14.5696L15.5894 12.9375L21.3468 7.1801C21.7536 6.7733 22.4131 6.7733 22.8199 7.1801C23.2267 7.58689 23.2267 8.24644 22.8199 8.65324L16.9035 14.5696ZM13.0986 15.4282L14.4131 17.06L8.65324 22.8199C8.24644 23.2267 7.58689 23.2267 7.1801 22.8199C6.7733 22.4131 6.7733 21.7536 7.1801 21.3468L13.0986 15.4282Z" fill="white"/>
<path d="M10.1698 6.875H8.55936C7.66165 6.875 7.21279 6.875 7.02512 7.11128C6.9666 7.18497 6.92546 7.27092 6.90479 7.36272C6.83852 7.6571 7.1201 8.00665 7.68326 8.70575L18.961 22.7057C19.1083 22.8885 19.1819 22.9799 19.2789 23.0375C19.3109 23.0565 19.3445 23.0726 19.3794 23.0856C19.4851 23.125 19.6024 23.125 19.8371 23.125H21.4416C22.339 23.125 22.7878 23.125 22.9754 22.8888C23.034 22.8151 23.0751 22.7292 23.0958 22.6374C23.1621 22.343 22.8807 21.9935 22.3179 21.2945L11.0461 7.29448C10.8988 7.11161 10.8252 7.02017 10.7282 6.96257C10.6962 6.94357 10.6625 6.92746 10.6277 6.91444C10.522 6.875 10.4046 6.875 10.1698 6.875Z" fill="white" fill-opacity="0.25"/>
</svg>
