<svg width="30" height="30" viewBox="0 0 30 30" fill="none" xmlns="http://www.w3.org/2000/svg">
<rect opacity="0.1" width="30" height="30" fill="#F8F8F8"/>
<path d="M6.91462 13.7649C7.00392 12.191 7.04857 11.404 7.56711 10.6715C7.71505 10.4625 7.9647 10.1976 8.16459 10.0376C8.86517 9.47668 9.64863 9.38554 11.2155 9.20327C12.4038 9.06505 13.7312 8.9585 15 8.9585C16.2688 8.9585 17.5962 9.06505 18.7845 9.20327C20.3514 9.38554 21.1348 9.47668 21.8354 10.0376C22.0353 10.1976 22.2849 10.4625 22.4329 10.6715C22.9514 11.404 22.9961 12.191 23.0854 13.7649C23.1099 14.1972 23.125 14.6183 23.125 15.0002C23.125 15.382 23.1099 15.8032 23.0854 16.2354C22.9961 17.8093 22.9514 18.5963 22.4329 19.3288C22.2849 19.5378 22.0353 19.8027 21.8354 19.9627C21.1348 20.5236 20.3514 20.6148 18.7845 20.7971C17.5962 20.9353 16.2688 21.0418 15 21.0418C13.7312 21.0418 12.4038 20.9353 11.2155 20.7971C9.64863 20.6148 8.86517 20.5236 8.16459 19.9627C7.9647 19.8027 7.71505 19.5378 7.56711 19.3288C7.04857 18.5963 7.00392 17.8093 6.91462 16.2354C6.8901 15.8032 6.875 15.382 6.875 15.0002C6.875 14.6183 6.8901 14.1972 6.91462 13.7649Z" fill="white" fill-opacity="0.25"/>
<path d="M15.4814 13.1572C16.7271 13.78 17.3499 14.0914 17.5279 14.525C17.6528 14.8293 17.6528 15.1704 17.5279 15.4746C17.3499 15.9082 16.7271 16.2196 15.4814 16.8425V16.8425C14.4448 17.3608 13.9266 17.6199 13.5071 17.5368C13.2113 17.4782 12.9467 17.3146 12.762 17.0763C12.5 16.7383 12.5 16.1588 12.5 14.9998V14.9998C12.5 13.8409 12.5 13.2614 12.762 12.9234C12.9467 12.685 13.2113 12.5215 13.5071 12.4629C13.9266 12.3798 14.4448 12.6389 15.4814 13.1572V13.1572Z" fill="white"/>
</svg>
