<svg width="30" height="30" viewBox="0 0 30 30" fill="none" xmlns="http://www.w3.org/2000/svg">
<rect opacity="0.1" width="30" height="30" fill="#F8F8F8"/>
<path d="M19.1666 8.7963V9.16667C19.1666 9.55495 19.1666 9.74909 19.1032 9.90224C19.0186 10.1064 18.8564 10.2687 18.6522 10.3532C18.4991 10.4167 18.3049 10.4167 17.9166 10.4167C17.5284 10.4167 17.3342 10.4167 17.1811 10.4801C16.9769 10.5647 16.8147 10.7269 16.7301 10.9311C16.6666 11.0842 16.6666 11.2784 16.6666 11.6667V12.0833H13.3333V12.037C13.3333 10.5257 13.3333 9.77006 13.6066 9.18403C13.8964 8.56256 14.3959 8.06306 15.0173 7.77327C15.6034 7.5 16.359 7.5 17.8703 7.5C18.3022 7.5 18.5181 7.5 18.6855 7.57808C18.8631 7.66088 19.0058 7.80359 19.0886 7.98115C19.1666 8.14859 19.1666 8.36449 19.1666 8.7963Z" fill="white"/>
<path d="M14.8333 22.5002H15.1666C15.7916 22.5002 16.1041 22.5002 16.3231 22.341C16.3939 22.2896 16.4561 22.2274 16.5075 22.1566C16.6666 21.9376 16.6666 21.6251 16.6666 21.0002V16.2502H17.7083C18.2935 16.2502 18.5861 16.2502 18.7963 16.1097C18.8873 16.0489 18.9654 15.9708 19.0262 15.8798C19.1666 15.6696 19.1666 15.377 19.1666 14.7918C19.1666 14.2066 19.1666 13.914 19.0262 13.7039C18.9654 13.6129 18.8873 13.5347 18.7963 13.4739C18.5861 13.3335 18.2935 13.3335 17.7083 13.3335H16.6666V12.0835H13.3333V13.3335H12.2916C11.7065 13.3335 11.4139 13.3335 11.2037 13.4739C11.1127 13.5347 11.0346 13.6129 10.9738 13.7039C10.8333 13.914 10.8333 14.2066 10.8333 14.7918C10.8333 15.377 10.8333 15.6696 10.9738 15.8798C11.0346 15.9708 11.1127 16.0489 11.2037 16.1097C11.4139 16.2502 11.7065 16.2502 12.2916 16.2502H13.3333V21.0002C13.3333 21.6251 13.3333 21.9376 13.4925 22.1566C13.5439 22.2274 13.6061 22.2896 13.6768 22.341C13.8959 22.5002 14.2084 22.5002 14.8333 22.5002Z" fill="white" fill-opacity="0.25"/>
</svg>
