<svg width="24" height="24" viewBox="0 0 24 24" fill="none" xmlns="http://www.w3.org/2000/svg">
<path d="M17 4.55556V5C17 5.46594 17 5.69891 16.9239 5.88268C16.8224 6.12771 16.6277 6.32239 16.3827 6.42388C16.1989 6.5 15.9659 6.5 15.5 6.5C15.0341 6.5 14.8011 6.5 14.6173 6.57612C14.3723 6.67761 14.1776 6.87229 14.0761 7.11732C14 7.30109 14 7.53406 14 8V8.5H10V8.44445C10 6.63086 10 5.72407 10.3279 5.02084C10.6757 4.27507 11.2751 3.67568 12.0208 3.32792C12.7241 3 13.6309 3 15.4444 3C15.9626 3 16.2217 3 16.4226 3.09369C16.6357 3.19305 16.8069 3.36431 16.9063 3.57738C17 3.77831 17 4.03739 17 4.55556Z" fill="#18192E"/>
<path d="M11.8 21H12.2C12.9499 21 13.3249 21 13.5878 20.809C13.6727 20.7473 13.7473 20.6727 13.809 20.5878C14 20.3249 14 19.9499 14 19.2V13.5H15.25C15.9522 13.5 16.3033 13.5 16.5556 13.3315C16.6648 13.2585 16.7585 13.1648 16.8315 13.0556C17 12.8033 17 12.4522 17 11.75C17 11.0478 17 10.6967 16.8315 10.4444C16.7585 10.3352 16.6648 10.2415 16.5556 10.1685C16.3033 10 15.9522 10 15.25 10H14V8.5H10V10H8.75C8.04777 10 7.69665 10 7.44443 10.1685C7.33524 10.2415 7.24149 10.3352 7.16853 10.4444C7 10.6967 7 11.0478 7 11.75C7 12.4522 7 12.8033 7.16853 13.0556C7.24149 13.1648 7.33524 13.2585 7.44443 13.3315C7.69665 13.5 8.04777 13.5 8.75 13.5H10V19.2C10 19.9499 10 20.3249 10.191 20.5878C10.2527 20.6727 10.3273 20.7473 10.4122 20.809C10.6751 21 11.0501 21 11.8 21Z" fill="#18192E" fill-opacity="0.25"/>
</svg>
