<svg width="50" height="50" viewBox="0 0 50 50" fill="none" xmlns="http://www.w3.org/2000/svg">
<path fill-rule="evenodd" clip-rule="evenodd" d="M11.6759 6.03876C11.1118 6.89625 11.2052 8.09924 11.3918 10.5052L11.3924 10.5126C11.3781 10.5139 11.3638 10.5153 11.3497 10.5168C7.84211 10.8822 5.20697 13.8862 5.30159 17.4116C5.31101 17.7625 5.36542 18.1765 5.45775 18.8791L5.4654 18.9373L5.66175 20.4317L5.67585 20.5391C5.8521 21.8813 5.95653 22.6766 6.19762 23.3531C6.98259 25.5555 8.85138 27.1948 11.1373 27.6862C11.5932 27.7842 12.0913 27.8185 12.7552 27.8305C12.9901 30.1696 13.3022 31.5824 14.1517 32.6442C14.5255 33.1115 14.9672 33.5202 15.462 33.8568C16.9894 34.8958 19.0859 34.8958 23.2788 34.8958H24.2509V36.1273L15.9083 41.1329C13.435 42.6169 12.1984 43.3588 12.2056 44.0749C12.2078 44.2929 12.267 44.5065 12.3773 44.6945C12.7395 45.3123 14.1816 45.3123 17.0659 45.3123H32.935C35.8193 45.3123 37.2614 45.3123 37.6236 44.6945C37.7339 44.5065 37.7931 44.2929 37.7953 44.0749C37.8025 43.3588 36.5659 42.6169 34.0926 41.1329L25.7509 36.1279V34.8958H26.7273C30.9201 34.8958 33.0166 34.8958 34.544 33.8568C35.0388 33.5202 35.4805 33.1115 35.8544 32.6442C36.7039 31.5824 37.0159 30.1696 37.2508 27.8304C37.9127 27.8184 38.4097 27.784 38.8646 27.6862C41.1505 27.1948 43.0193 25.5555 43.8042 23.3531C44.0453 22.6767 44.1498 21.8814 44.326 20.5392L44.326 20.5391L44.326 20.5391L44.3401 20.4317L44.5365 18.9373L44.5441 18.879C44.6365 18.1765 44.6909 17.7625 44.7003 17.4116C44.7949 13.8862 42.1598 10.8822 38.6521 10.5168C38.6394 10.5155 38.6265 10.5142 38.6136 10.513L38.6142 10.5052C38.8009 8.09924 38.8942 6.89625 38.3301 6.03876C38.1485 5.76274 37.9226 5.5186 37.6615 5.31622C36.8502 4.6875 35.6436 4.6875 33.2304 4.6875H16.7757C14.3625 4.6875 13.1559 4.6875 12.3446 5.31622C12.0834 5.5186 11.8575 5.76274 11.6759 6.03876ZM38.4975 12.0088L37.4949 24.9313C37.4566 25.4248 37.4206 25.8892 37.3849 26.3268C37.9059 26.314 38.2451 26.2851 38.5494 26.2197C40.3273 25.8375 41.7808 24.5625 42.3913 22.8495C42.572 22.3426 42.6583 21.7177 42.8529 20.2363L43.0493 18.7419C43.1514 17.9646 43.1938 17.634 43.2008 17.3713C43.2744 14.6297 41.2253 12.2934 38.4975 12.0088ZM12.6211 26.3269C12.5854 25.8893 12.5494 25.4248 12.5111 24.9313L11.5085 12.0084C11.5074 12.0085 11.5063 12.0086 11.5052 12.0087C8.77701 12.2929 6.72746 14.6294 6.80105 17.3713C6.8081 17.634 6.85049 17.9646 6.95262 18.7419L7.14897 20.2363C7.3436 21.7177 7.42989 22.3426 7.61056 22.8495C8.22109 24.5625 9.6746 25.8375 11.4525 26.2197C11.7576 26.2852 12.0978 26.3142 12.6211 26.3269Z" fill="#282DAD" fill-opacity="0.18"/>
<path d="M24.2021 13.0935C24.5116 12.4665 24.6664 12.153 24.8989 12.1003C24.9715 12.0839 25.0469 12.0839 25.1195 12.1003C25.3521 12.153 25.5068 12.4665 25.8163 13.0935L27.2489 15.9964C27.3399 16.1807 27.3854 16.2729 27.4587 16.3379C27.4829 16.3593 27.5091 16.3783 27.5369 16.3947C27.6214 16.4444 27.7231 16.4592 27.9266 16.4887L31.13 16.9542C31.822 17.0548 32.168 17.105 32.2899 17.3099C32.328 17.3739 32.3513 17.4456 32.3581 17.5198C32.3799 17.7572 32.1296 18.0012 31.6288 18.4893L29.3108 20.7489C29.1636 20.8924 29.09 20.9641 29.0508 21.054C29.0379 21.0836 29.0279 21.1144 29.021 21.1459C28.9998 21.2416 29.0172 21.3429 29.0519 21.5455L29.5991 24.736C29.7174 25.4252 29.7765 25.7698 29.6193 25.9491C29.5702 26.0051 29.5092 26.0494 29.4408 26.0788C29.2217 26.1729 28.9122 26.0102 28.2933 25.6848L25.428 24.1784C25.2461 24.0828 25.1551 24.035 25.0575 24.0255C25.0254 24.0224 24.993 24.0224 24.9609 24.0255C24.8633 24.035 24.7723 24.0828 24.5904 24.1784L21.7251 25.6848C21.1062 26.0102 20.7967 26.1729 20.5777 26.0788C20.5093 26.0494 20.4483 26.0051 20.3992 25.9491C20.242 25.7698 20.3011 25.4252 20.4193 24.736L20.9665 21.5455C21.0012 21.3429 21.0186 21.2416 20.9975 21.1459C20.9905 21.1144 20.9805 21.0836 20.9676 21.054C20.9284 20.9641 20.8548 20.8924 20.7077 20.7489L18.3896 18.4893C17.8889 18.0012 17.6385 17.7572 17.6603 17.5198C17.6671 17.4456 17.6904 17.3739 17.7285 17.3099C17.8504 17.105 18.1964 17.0548 18.8884 16.9542L22.0919 16.4887C22.2953 16.4592 22.397 16.4444 22.4815 16.3947C22.5093 16.3783 22.5355 16.3593 22.5597 16.3379C22.6331 16.2729 22.6785 16.1807 22.7695 15.9964L24.2021 13.0935Z" fill="#282DAD"/>
</svg>
