<svg width="138" height="25" viewBox="0 0 138 25" fill="none" xmlns="http://www.w3.org/2000/svg">
<g clip-path="url(#clip0_172_768)">
<path d="M44.5232 22.3343C42.544 22.3343 40.7945 21.9456 39.2744 21.1682C37.7543 20.3728 36.5793 19.2505 35.7487 17.8014C34.9181 16.3522 34.5027 14.6467 34.5027 12.685C34.5027 10.7233 34.9181 9.01789 35.7487 7.56871C36.5793 6.10181 37.7543 4.97962 39.2744 4.202C40.7945 3.4067 42.544 3.00903 44.5232 3.00903C45.8665 3.00903 47.0506 3.15046 48.0756 3.43322C49.1183 3.69831 50.0725 4.12244 50.9384 4.70567V8.54955C50.1611 7.91331 49.2686 7.45382 48.2613 7.17104C47.2714 6.8706 46.1405 6.72039 44.8681 6.72039C43.684 6.72039 42.6144 6.96782 41.6602 7.46265C40.7237 7.9398 39.9814 8.62906 39.4335 9.53039C38.8856 10.4317 38.6116 11.4832 38.6116 12.685C38.6116 13.9045 38.859 14.9737 39.3539 15.8927C39.8665 16.794 40.5821 17.4921 41.501 17.9869C42.42 18.4818 43.4805 18.7292 44.6824 18.7292C45.7782 18.7292 46.7321 18.5348 47.5452 18.146V14.5672H44.5496V11.5981H51.4422V20.532C49.6924 21.7337 47.3866 22.3343 44.5232 22.3343Z" fill="#18192E"/>
<path d="M52.3728 9.21232H56.2429V11.0415C56.7557 10.4229 57.4714 9.95456 58.3903 9.63648C59.3092 9.30069 60.3522 9.13281 61.5184 9.13281V12.1814C60.299 12.1814 59.2209 12.3669 58.2843 12.7381C57.3653 13.1092 56.7291 13.6748 56.3756 14.4347V21.937H52.3728V9.21232Z" fill="#18192E"/>
<path d="M69.2112 22.3344C66.7722 22.3344 64.8544 21.7513 63.4584 20.5848C62.0624 19.4008 61.3643 17.7484 61.3643 15.6276C61.3643 13.5245 61.983 11.8633 63.2199 10.6439C64.4748 9.42439 66.2596 8.8147 68.575 8.8147C70.0946 8.8147 71.3846 9.09748 72.4451 9.66299C73.5054 10.2285 74.3098 11.015 74.8577 12.0223C75.4054 13.012 75.6792 14.1343 75.6792 15.389V17.0061H65.1818C65.4645 18.6321 66.9841 19.445 69.7411 19.445C70.554 19.445 71.3937 19.3743 72.2594 19.2329C73.1257 19.0916 73.8769 18.8971 74.5131 18.6497V21.4596C73.8944 21.7247 73.0991 21.9371 72.1269 22.0958C71.1551 22.255 70.183 22.3344 69.2112 22.3344ZM71.8883 14.4082C71.8355 13.5599 71.5173 12.906 70.9341 12.4465C70.3512 11.9693 69.5467 11.7307 68.5217 11.7307C67.5145 11.7307 66.7189 11.9693 66.136 12.4465C65.5528 12.9237 65.2346 13.5776 65.1818 14.4082H71.8883Z" fill="#18192E"/>
<path d="M83.8843 22.3344C81.4455 22.3344 79.5278 21.7513 78.1318 20.5848C76.7357 19.4008 76.0374 17.7484 76.0374 15.6276C76.0374 13.5245 76.6561 11.8633 77.8932 10.6439C79.1479 9.42439 80.9329 8.8147 83.2479 8.8147C84.768 8.8147 86.0582 9.09748 87.1187 9.66299C88.1787 10.2285 88.9827 11.015 89.5306 12.0223C90.0785 13.012 90.3528 14.1343 90.3528 15.389V17.0061H79.8549C80.1376 18.6321 81.6574 19.445 84.4145 19.445C85.2275 19.445 86.067 19.3743 86.9329 19.2329C87.7986 19.0916 88.55 18.8971 89.1862 18.6497V21.4596C88.5675 21.7247 87.7724 21.9371 86.8002 22.0958C85.8282 22.255 84.8563 22.3344 83.8843 22.3344ZM86.5619 14.4082C86.5086 13.5599 86.1906 12.906 85.6077 12.4465C85.024 11.9693 84.2201 11.7307 83.1951 11.7307C82.1878 11.7307 81.3925 11.9693 80.8093 12.4465C80.2259 12.9237 79.9079 13.5776 79.8549 14.4082H86.5619Z" fill="#18192E"/>
<path d="M91.2415 9.21234H95.1118V10.7764C95.6952 10.1225 96.3842 9.6365 97.1795 9.31839C97.9926 8.98259 98.8408 8.8147 99.7246 8.8147C101.457 8.8147 102.747 9.28304 103.595 10.2197C104.461 11.1387 104.894 12.3847 104.894 13.9575V21.9371H100.891V14.4082C100.891 12.7646 100.131 11.9428 98.6109 11.9428C97.9394 11.9428 97.3123 12.1107 96.7288 12.4465C96.1457 12.7646 95.651 13.2418 95.2443 13.878V21.9371H91.2415V9.21234Z" fill="#18192E"/>
<path d="M108.426 7.25056C107.807 7.25056 107.286 7.04734 106.862 6.64084C106.437 6.23437 106.226 5.72185 106.226 5.1033C106.226 4.50243 106.437 3.99876 106.862 3.59225C107.286 3.16811 107.807 2.95605 108.426 2.95605C109.044 2.95605 109.566 3.16811 109.99 3.59225C110.414 3.99876 110.626 4.50243 110.626 5.1033C110.626 5.72185 110.414 6.23437 109.99 6.64084C109.566 7.04734 109.044 7.25056 108.426 7.25056ZM106.411 9.21227H110.441V21.937H106.411V9.21227Z" fill="#18192E"/>
<path d="M117.267 22.3344C116.313 22.3344 115.288 22.2284 114.192 22.0164C113.114 21.8221 112.266 21.5394 111.647 21.1682V18.04C112.354 18.4641 113.202 18.8088 114.192 19.0739C115.182 19.339 116.101 19.4715 116.949 19.4715C117.674 19.4715 118.204 19.4097 118.54 19.2859C118.875 19.1622 119.043 18.9325 119.043 18.5967C119.043 18.3316 118.946 18.1196 118.752 17.9605C118.558 17.7837 118.257 17.6335 117.851 17.5098C117.462 17.3684 116.808 17.1652 115.889 16.9001C114.811 16.582 113.962 16.2639 113.344 15.9457C112.743 15.61 112.284 15.1947 111.966 14.6998C111.665 14.205 111.515 13.5687 111.515 12.7911C111.515 11.4656 112.036 10.476 113.079 9.82206C114.139 9.15047 115.571 8.8147 117.374 8.8147C118.257 8.8147 119.167 8.91189 120.104 9.10631C121.058 9.28304 121.792 9.52161 122.304 9.82206V12.8707C121.792 12.5349 121.12 12.2609 120.289 12.0489C119.477 11.8368 118.681 11.7307 117.903 11.7307C117.179 11.7307 116.613 11.8014 116.207 11.9428C115.818 12.0842 115.624 12.3493 115.624 12.7381C115.624 13.0739 115.809 13.3301 116.18 13.5069C116.569 13.6836 117.285 13.9045 118.328 14.1696L118.858 14.3022C119.971 14.6026 120.837 14.9384 121.456 15.3095C122.074 15.663 122.507 16.096 122.755 16.6085C123.02 17.1033 123.152 17.7307 123.152 18.4907C123.152 19.6572 122.649 20.5938 121.642 21.3008C120.634 21.9899 119.176 22.3344 117.267 22.3344Z" fill="#18192E"/>
<path d="M124.078 2.34644H128.081V10.6704C128.682 10.0519 129.362 9.59237 130.122 9.29193C130.882 8.9738 131.695 8.81475 132.561 8.81475C134.293 8.81475 135.583 9.28309 136.431 10.2197C137.297 11.1387 137.73 12.3847 137.73 13.9576V21.9371H133.727V14.4083C133.727 12.7647 132.967 11.9429 131.448 11.9429C130.776 11.9429 130.149 12.1108 129.565 12.4466C128.982 12.7647 128.487 13.2419 128.081 13.8781V21.9371H124.078V2.34644Z" fill="#18192E"/>
<path fill-rule="evenodd" clip-rule="evenodd" d="M20.8319 6.09717C20.8319 9.46456 18.1023 12.1943 14.7349 12.1943C11.3675 12.1943 8.63771 9.46456 8.63771 6.09717C8.63771 2.72979 11.3675 0 14.7349 0C18.1023 0 20.8319 2.72979 20.8319 6.09717ZM0.552364 11.7512C7.19509 11.3035 12.9844 16.2769 13.5237 22.9338C13.5796 23.6236 13.5769 24.3044 13.5198 24.972C6.8771 25.4199 1.08776 20.4463 0.548493 13.7895C0.49265 13.0997 0.495309 12.4186 0.552364 11.7512ZM17.8178 24.739C24.4746 24.1998 29.448 18.4103 29.0003 11.7675C28.3328 11.7105 27.6519 11.7078 26.962 11.7637C20.3051 12.3029 15.3318 18.0923 15.7796 24.735C16.447 24.7921 17.128 24.7949 17.8178 24.739Z" fill="#18192E"/>
</g>
<defs>
<clipPath id="clip0_172_768">
<rect width="137.383" height="25" fill="white" transform="translate(0.5)"/>
</clipPath>
</defs>
</svg>
