<svg width="111" height="31" viewBox="0 0 111 31" fill="none" xmlns="http://www.w3.org/2000/svg">
<path opacity="0.8" d="M16.9066 12.8381H24.8038L16.9066 0.895996H9.00952L16.9066 12.8381Z" fill="#18192E"/>
<path opacity="0.9" d="M8.81909 12.8381H0.921875L8.81909 0.895996H16.7162L8.81909 12.8381Z" fill="#18192E"/>
<path opacity="0.6" d="M16.9082 24.7797V12.8376H24.8051V24.7797H16.9082Z" fill="#18192E"/>
<path d="M0.920898 24.7797V12.8376H8.81803V24.7797H0.920898Z" fill="#18192E"/>
<path d="M44.9954 8.54443V24.7953H41.7358V17.8803H34.7746V24.7953H31.5154V8.54443H34.7746V15.2264H41.7358V8.54443H44.9954Z" fill="#18192E"/>
<path d="M52.9996 25.0052C51.758 25.0052 50.6403 24.7337 49.647 24.1903C48.6536 23.6316 47.87 22.8476 47.2957 21.839C46.7366 20.8301 46.4575 19.6658 46.4575 18.3467C46.4575 17.0274 46.7446 15.8633 47.3189 14.8544C47.9085 13.8455 48.7081 13.0694 49.7168 12.5261C50.7257 11.9674 51.8511 11.688 53.0927 11.688C54.3343 11.688 55.4596 11.9674 56.4686 12.5261C57.4776 13.0694 58.2692 13.8455 58.8435 14.8544C59.4331 15.8633 59.7282 17.0274 59.7282 18.3467C59.7282 19.6658 59.4254 20.8301 58.8202 21.839C58.2303 22.8476 57.4231 23.6316 56.3988 24.1903C55.3898 24.7337 54.2569 25.0052 52.9996 25.0052ZM52.9996 22.1647C53.5896 22.1647 54.1405 22.0251 54.6527 21.7459C55.1805 21.4508 55.5995 21.0161 55.91 20.4418C56.2203 19.8676 56.3755 19.1693 56.3755 18.3467C56.3755 17.1204 56.0495 16.1814 55.3978 15.5295C54.7613 14.8621 53.9773 14.5284 53.0461 14.5284C52.1149 14.5284 51.3309 14.8621 50.6948 15.5295C50.0737 16.1814 49.7633 17.1204 49.7633 18.3467C49.7633 19.5728 50.066 20.5196 50.6712 21.187C51.2924 21.839 52.0684 22.1647 52.9996 22.1647Z" fill="#18192E"/>
<path d="M77.2058 11.7107C78.7887 11.7107 80.0618 12.1996 81.0242 13.1775C82.0016 14.1398 82.4908 15.4901 82.4908 17.2286V24.7952H79.2317V17.6708C79.2317 16.662 78.9752 15.8937 78.4629 15.366C77.9506 14.8227 77.252 14.5511 76.3677 14.5511C75.4826 14.5511 74.7768 14.8227 74.2486 15.366C73.7372 15.8937 73.481 16.662 73.481 17.6708V24.7952H70.2214V17.6708C70.2214 16.662 69.9652 15.8937 69.453 15.366C68.9409 14.8227 68.2423 14.5511 67.3576 14.5511C66.4573 14.5511 65.7434 14.8227 65.2157 15.366C64.7035 15.8937 64.4473 16.662 64.4473 17.6708V24.7952H61.188V11.897H64.4473V13.4568C64.8664 12.9136 65.4021 12.4867 66.0539 12.1763C66.7212 11.8659 67.4506 11.7107 68.2423 11.7107C69.2513 11.7107 70.1516 11.928 70.9432 12.3626C71.7345 12.7816 72.3477 13.387 72.7824 14.1786C73.2014 13.4335 73.8065 12.836 74.5984 12.3859C75.4054 11.9357 76.2745 11.7107 77.2058 11.7107Z" fill="#18192E"/>
<path d="M96.6427 18.0673C96.6427 18.5329 96.6117 18.9519 96.5495 19.3246H87.1203C87.1976 20.2558 87.5243 20.9852 88.0978 21.5129C88.6722 22.0407 89.3789 22.3046 90.2169 22.3046C91.4279 22.3046 92.289 21.7845 92.8013 20.7447H96.3169C95.944 21.9862 95.2303 23.0108 94.1747 23.8177C93.1191 24.6094 91.8229 25.0052 90.2862 25.0052C89.045 25.0052 87.9273 24.7337 86.9339 24.1903C85.9564 23.6316 85.1876 22.8476 84.6292 21.839C84.0859 20.8301 83.8142 19.6658 83.8142 18.3467C83.8142 17.0118 84.0859 15.8399 84.6292 14.8311C85.1725 13.8222 85.9334 13.0461 86.9108 12.5029C87.8883 11.9597 89.014 11.688 90.2862 11.688C91.5122 11.688 92.6068 11.9519 93.5692 12.4796C94.5475 13.0073 95.3004 13.7601 95.8277 14.7379C96.3711 15.7003 96.6427 16.8101 96.6427 18.0673ZM93.2665 17.1361C93.2514 16.2978 92.9486 15.6304 92.3592 15.1338C91.7688 14.6215 91.047 14.3655 90.1938 14.3655C89.386 14.3655 88.7032 14.6138 88.1448 15.1104C87.6015 15.5916 87.2677 16.2667 87.1434 17.1361H93.2665Z" fill="#18192E"/>
<path d="M110.43 11.8979L102.444 30.8961H98.9749L101.769 24.4703L96.6001 11.8979H100.256L103.585 20.9082L106.961 11.8979H110.43Z" fill="#18192E"/>
</svg>
