<svg width="219" height="40" viewBox="0 0 219 40" fill="none" xmlns="http://www.w3.org/2000/svg">
<path d="M40.8391 0L60.8322 19.9931L40.8375 39.9879L20.8444 19.9947L40.8391 0Z" fill="#282DAD"/>
<path d="M13.7715 20.0034L30.9839 2.79183C28.0084 1.03415 24.5493 0.00683594 20.842 0.00683594C9.80102 0.00683594 0.847656 8.9602 0.847656 20.0034C0.847656 31.0467 9.80102 40 20.842 40C24.5486 40 28.0084 38.972 30.9839 37.2143L13.7715 20.0034Z" fill="white"/>
<path d="M82.539 34.8002C78.0057 34.8002 74.3657 33.4269 71.619 30.6802C68.8724 27.9069 67.499 24.3469 67.499 20.0002C67.499 15.6535 68.8724 12.1069 71.619 9.36019C74.3657 6.58686 78.0057 5.2002 82.539 5.2002C86.5924 5.2002 89.8857 6.20019 92.419 8.20019C94.979 10.1735 96.4457 12.8269 96.819 16.1602H89.939C89.5657 14.5602 88.739 13.3069 87.459 12.4002C86.179 11.4669 84.5524 11.0002 82.579 11.0002C79.9657 11.0002 77.9257 11.8135 76.459 13.4402C74.9924 15.0402 74.259 17.2269 74.259 20.0002C74.259 22.7735 74.9924 24.9735 76.459 26.6002C77.9257 28.2002 79.9657 29.0002 82.579 29.0002C84.5524 29.0002 86.179 28.5469 87.459 27.6402C88.739 26.7069 89.5657 25.4402 89.939 23.8402H96.819C96.4457 27.1735 94.979 29.8402 92.419 31.8402C89.8857 33.8135 86.5924 34.8002 82.539 34.8002Z" fill="white"/>
<path d="M108.064 34.5202C105.264 34.5202 103.051 33.5735 101.424 31.6802C99.7977 29.7869 98.9843 27.3469 98.9843 24.3602C98.9843 21.4269 99.8243 19.0002 101.504 17.0802C103.184 15.1602 105.398 14.2002 108.144 14.2002C109.504 14.2002 110.718 14.4935 111.784 15.0802C112.851 15.6669 113.651 16.4669 114.184 17.4802V14.7202H120.264V34.0002H114.184V31.2802C113.651 32.2402 112.824 33.0269 111.704 33.6402C110.611 34.2269 109.398 34.5202 108.064 34.5202ZM109.824 29.4402C111.291 29.4402 112.424 28.9602 113.224 28.0002C114.024 27.0402 114.424 25.8269 114.424 24.3602C114.424 22.9202 114.024 21.7202 113.224 20.7602C112.424 19.8002 111.291 19.3202 109.824 19.3202C108.438 19.3202 107.318 19.7869 106.464 20.7202C105.638 21.6535 105.224 22.8669 105.224 24.3602C105.224 25.8535 105.638 27.0802 106.464 28.0402C107.318 28.9735 108.438 29.4402 109.824 29.4402Z" fill="white"/>
<path d="M125.345 34.0002V14.7202H131.465V18.7602C131.785 17.3735 132.439 16.3069 133.425 15.5602C134.439 14.7869 135.559 14.4002 136.785 14.4002C137.425 14.4002 137.959 14.4535 138.385 14.5602V20.2402C137.665 20.1602 137.052 20.1202 136.545 20.1202C133.159 20.1202 131.465 22.2669 131.465 26.5602V34.0002H125.345Z" fill="white"/>
<path d="M171.833 19.2802V24.1602H169.193C168.473 27.5469 166.887 30.1735 164.433 32.0402C162.007 33.8802 158.873 34.8002 155.033 34.8002C150.607 34.8002 147.02 33.4269 144.273 30.6802C141.553 27.9069 140.207 24.3869 140.233 20.1202C140.233 15.8802 141.58 12.3335 144.273 9.48019C146.993 6.62686 150.7 5.2002 155.393 5.2002C159.1 5.2002 162.167 6.09353 164.593 7.88019C167.047 9.66686 168.393 11.9335 168.633 14.6802H161.553C161.287 13.4802 160.607 12.5069 159.513 11.7602C158.447 11.0135 157.087 10.6402 155.433 10.6402C152.687 10.6402 150.58 11.5069 149.113 13.2402C147.673 14.9735 146.967 17.2269 146.993 20.0002C146.967 22.6669 147.7 24.8669 149.193 26.6002C150.713 28.3069 152.713 29.1602 155.193 29.1602C159.113 29.1602 161.553 27.4935 162.513 24.1602H157.513V19.2802H171.833Z" fill="white"/>
<path d="M192.227 31.7202C190.307 33.6402 187.72 34.6002 184.467 34.6002C181.214 34.6002 178.614 33.6402 176.667 31.7202C174.72 29.8002 173.747 27.3469 173.747 24.3602C173.747 21.3735 174.72 18.9335 176.667 17.0402C178.614 15.1202 181.214 14.1602 184.467 14.1602C187.72 14.1602 190.307 15.1202 192.227 17.0402C194.174 18.9335 195.147 21.3735 195.147 24.3602C195.147 27.3469 194.174 29.8002 192.227 31.7202ZM184.467 29.4002C185.88 29.4002 187 28.9335 187.827 28.0002C188.654 27.0669 189.067 25.8535 189.067 24.3602C189.067 22.8669 188.654 21.6535 187.827 20.7202C187 19.7869 185.88 19.3202 184.467 19.3202C183.027 19.3202 181.894 19.7869 181.067 20.7202C180.267 21.6535 179.867 22.8669 179.867 24.3602C179.867 25.8535 180.267 27.0669 181.067 28.0002C181.894 28.9335 183.027 29.4002 184.467 29.4002Z" fill="white"/>
<path d="M198.666 34.0002V14.7202H204.786V17.5202C205.932 15.3069 208.012 14.2002 211.026 14.2002C215.719 14.2002 218.066 16.8269 218.066 22.0802V34.0002H211.906V24.0802C211.906 22.4269 211.639 21.2269 211.106 20.4802C210.599 19.7335 209.732 19.3602 208.506 19.3602C206.026 19.3602 204.786 20.8802 204.786 23.9202V34.0002H198.666Z" fill="white"/>
</svg>
