<svg width="156" height="31" viewBox="0 0 156 31" fill="none" xmlns="http://www.w3.org/2000/svg">
<path d="M3.97363 3.84094C6.08441 1.82563 8.95057 0.649308 11.8556 0.503023C12.8498 0.503023 13.8469 0.508954 14.8412 0.5C14.7905 1.56586 14.8412 2.63473 14.8113 3.70059C14.671 6.08301 13.7903 8.41182 12.3064 10.2807C10.3777 12.7947 7.42795 14.4815 4.29608 14.9174C2.9287 15.1384 1.54039 14.998 0.16405 15.0368C0.187888 13.8634 0.113234 12.6872 0.205796 11.5168C0.474528 8.61485 1.84493 5.83521 3.97363 3.84094Z" fill="#18192E"/>
<path d="M15.7622 0.5C16.8281 0.511977 17.8939 0.49407 18.9628 0.505931C21.6229 0.694078 24.2472 1.71516 26.2504 3.48558C28.4598 5.38147 29.9735 8.09239 30.3618 10.9884C30.5316 12.3319 30.4244 13.6903 30.4903 15.0397C29.5585 15.0368 28.6302 15.0338 27.6984 15.0397C25.4087 14.9771 23.1575 14.2367 21.2408 12.9887C20.357 12.3558 19.4493 11.7139 18.7866 10.8361C17.3326 9.21196 16.3444 7.17282 15.9712 5.0232C15.6906 3.53035 15.804 2.00773 15.7622 0.5Z" fill="#18192E"/>
<path d="M0.166754 15.8916C1.11319 15.9454 2.06265 15.8468 3.00606 15.9514C7.04553 16.0379 10.9657 18.3069 13.0586 21.7612C14.2588 23.696 14.9036 25.9886 14.8201 28.2668C14.8171 29.013 14.8291 29.7568 14.8082 30.5C13.3094 30.4554 11.7957 30.5778 10.3118 30.2881C7.01576 29.733 3.9854 27.7714 2.16114 24.9708C0.778872 22.9347 0.0891928 20.4476 0.160824 17.9905C0.160824 17.2889 0.160824 16.5902 0.166754 15.8916Z" fill="#18192E"/>
<path d="M25.4457 16.2083C27.0702 15.847 28.7447 15.9068 30.3959 15.9068L30.4676 15.9784C30.4318 17.5399 30.5542 19.1192 30.2407 20.6628C29.5809 24.126 27.2881 27.2191 24.2038 28.9179C22.284 29.9866 20.0807 30.5125 17.8863 30.4881C17.1847 30.4912 16.4801 30.4765 15.7784 30.4972C15.7784 29.2045 15.7247 27.9056 15.871 26.6189C16.2114 23.5051 17.8953 20.606 20.3165 18.6476C21.8153 17.4652 23.5768 16.6084 25.4457 16.2083Z" fill="#18192E"/>
<path d="M42.7241 24.7191C42.7241 25.2447 42.5421 25.6895 42.1786 26.0535C41.8347 26.3973 41.4 26.5686 40.8747 26.5686C40.3691 26.5686 39.9444 26.3973 39.6012 26.0535C39.2573 25.6895 39.0854 25.2447 39.0854 24.7191V5.97912C39.0854 5.45352 39.2573 5.01885 39.6012 4.67523C39.9647 4.31138 40.4096 4.12939 40.9353 4.12939C41.4607 4.12939 41.8853 4.31138 42.2089 4.67523C42.5522 5.01885 42.7241 5.45352 42.7241 5.97912V24.7191Z" fill="#18192E"/>
<path d="M57.3301 10.3455C57.8555 10.3455 58.2903 10.5273 58.634 10.8913C58.9774 11.2349 59.1493 11.6696 59.1493 12.1952V19.8975C59.1493 22.0402 58.5532 23.7384 57.3605 24.9918C56.1673 26.2454 54.4493 26.8717 52.205 26.8717C49.9613 26.8717 48.2429 26.2454 47.0502 24.9918C45.8777 23.7384 45.2913 22.0402 45.2913 19.8975V12.1952C45.2913 11.6696 45.4631 11.2349 45.807 10.8913C46.1507 10.5273 46.585 10.3455 47.1109 10.3455C47.6367 10.3455 48.0709 10.5273 48.4148 10.8913C48.7585 11.2349 48.9305 11.6696 48.9305 12.1952V19.8975C48.9305 21.1305 49.2034 22.0503 49.749 22.6569C50.2949 23.2431 51.1136 23.5362 52.205 23.5362C53.3174 23.5362 54.146 23.2431 54.692 22.6569C55.2376 22.0503 55.5106 21.1305 55.5106 19.8975V12.1952C55.5106 11.6696 55.6825 11.2349 56.0262 10.8913C56.3696 10.5273 56.8044 10.3455 57.3301 10.3455Z" fill="#18192E"/>
<path d="M70.0928 10.041C71.7102 10.041 72.9029 10.4352 73.6713 11.2236C74.4394 11.9918 74.9449 12.9925 75.1871 14.2256L74.672 13.9527L74.9145 13.4675C75.1568 13.0026 75.531 12.5073 76.0364 11.9817C76.5416 11.436 77.1482 10.9811 77.8556 10.6172C78.5836 10.233 79.392 10.041 80.2819 10.041C81.7374 10.041 82.839 10.3543 83.5869 10.9811C84.3553 11.6077 84.8806 12.4467 85.1638 13.4979C85.4468 14.5289 85.5885 15.6812 85.5885 16.9548V24.7176C85.5885 25.2432 85.4166 25.688 85.0727 26.052C84.729 26.3958 84.2947 26.5671 83.7688 26.5671C83.2436 26.5671 82.8087 26.3958 82.465 26.052C82.1211 25.688 81.9492 25.2432 81.9492 24.7176V16.9548C81.9492 16.2877 81.8689 15.6913 81.7071 15.1656C81.5453 14.6198 81.2521 14.1852 80.8273 13.8617C80.4033 13.5384 79.7965 13.3766 79.0083 13.3766C78.2398 13.3766 77.583 13.5384 77.0371 13.8617C76.491 14.1852 76.0769 14.6198 75.7938 15.1656C75.5308 15.6913 75.3994 16.2877 75.3994 16.9548V24.7176C75.3994 25.2432 75.2276 25.688 74.8843 26.052C74.5405 26.3958 74.1057 26.5671 73.5804 26.5671C73.0546 26.5671 72.6198 26.3958 72.2765 26.052C71.9327 25.688 71.7608 25.2432 71.7608 24.7176V16.9548C71.7608 16.2877 71.6799 15.6913 71.5181 15.1656C71.3563 14.6198 71.0631 14.1852 70.6389 13.8617C70.2142 13.5384 69.6075 13.3766 68.8193 13.3766C68.0514 13.3766 67.3941 13.5384 66.848 13.8617C66.3026 14.1852 65.8879 14.6198 65.6048 15.1656C65.3424 15.6913 65.211 16.2877 65.211 16.9548V24.7176C65.211 25.2432 65.039 25.688 64.6953 26.052C64.3514 26.3958 63.9172 26.5671 63.3914 26.5671C62.8656 26.5671 62.4312 26.3958 62.0875 26.052C61.7436 25.688 61.5718 25.2432 61.5718 24.7176V12.194C61.5718 11.6684 61.7436 11.2337 62.0875 10.8901C62.4312 10.5262 62.8656 10.3443 63.3914 10.3443C63.9172 10.3443 64.3514 10.5262 64.6953 10.8901C65.039 11.2337 65.211 11.6684 65.211 12.194V13.4979L64.756 13.407C64.938 13.0632 65.1908 12.6994 65.5138 12.3153C65.8374 11.911 66.2317 11.537 66.6969 11.1933C67.1615 10.8497 67.6771 10.5767 68.243 10.3745C68.8092 10.1522 69.4259 10.041 70.0928 10.041Z" fill="#18192E"/>
<path d="M91.4373 24.7184C91.4373 25.244 91.2652 25.6886 90.9222 26.0527C90.5792 26.3965 90.1439 26.5678 89.6181 26.5678C89.0928 26.5678 88.6579 26.3965 88.3142 26.0527C87.9709 25.6886 87.7989 25.244 87.7989 24.7184V12.1946C87.7989 11.669 87.9709 11.2345 88.3142 10.8907C88.6579 10.5269 89.0928 10.3449 89.6181 10.3449C90.1439 10.3449 90.5792 10.5269 90.9222 10.8907C91.2652 11.2345 91.4373 11.669 91.4373 12.1946V24.7184ZM89.5877 8.37389C88.9006 8.37389 88.4152 8.26273 88.1322 8.04028C87.8495 7.81794 87.708 7.42374 87.708 6.85767V6.28149C87.708 5.6953 87.8596 5.3011 88.1626 5.09888C88.4861 4.87655 88.9714 4.76538 89.6181 4.76538C90.3259 4.76538 90.821 4.87655 91.1036 5.09888C91.3873 5.32133 91.5292 5.71553 91.5292 6.28149V6.85767C91.5292 7.44397 91.3769 7.84829 91.0734 8.07063C90.771 8.27284 90.2753 8.37389 89.5877 8.37389Z" fill="#18192E"/>
<path d="M102.334 10.0413C103.83 10.0413 104.962 10.3545 105.73 10.9813C106.518 11.6079 107.054 12.4469 107.337 13.4981C107.64 14.5291 107.793 15.6815 107.793 16.955V24.7179C107.793 25.2435 107.621 25.6883 107.276 26.0522C106.932 26.3961 106.498 26.5674 105.973 26.5674C105.447 26.5674 105.012 26.3961 104.669 26.0522C104.325 25.6883 104.153 25.2435 104.153 24.7179V16.955C104.153 16.2879 104.062 15.6916 103.881 15.1659C103.719 14.62 103.416 14.1855 102.97 13.862C102.526 13.5386 101.889 13.3769 101.06 13.3769C100.252 13.3769 99.5644 13.5386 98.9981 13.862C98.4527 14.1855 98.0283 14.62 97.7248 15.1659C97.441 15.6916 97.3003 16.2879 97.3003 16.955V24.7179C97.3003 25.2435 97.1282 25.6883 96.7852 26.0522C96.441 26.3961 96.0061 26.5674 95.4805 26.5674C94.9549 26.5674 94.52 26.3961 94.1769 26.0522C93.8327 25.6883 93.6606 25.2435 93.6606 24.7179V12.1942C93.6606 11.6686 93.8327 11.234 94.1769 10.8904C94.52 10.5264 94.9549 10.3445 95.4805 10.3445C96.0061 10.3445 96.441 10.5264 96.7852 10.8904C97.1282 11.234 97.3003 11.6686 97.3003 12.1942V13.4981L96.8457 13.4072C97.0271 13.0635 97.2899 12.6996 97.6341 12.3155C97.9771 11.9112 98.3818 11.5372 98.8469 11.1935C99.312 10.8499 99.8376 10.577 100.424 10.3748C101.01 10.1524 101.646 10.0413 102.334 10.0413Z" fill="#18192E"/>
<path d="M125.795 18.471C125.795 20.1286 125.421 21.5944 124.673 22.8679C123.945 24.1213 122.955 25.1017 121.701 25.8093C120.468 26.5166 119.083 26.8705 117.547 26.8705C116.01 26.8705 114.616 26.5166 113.362 25.8093C112.13 25.1017 111.139 24.1213 110.39 22.8679C109.663 21.5944 109.299 20.1286 109.299 18.471C109.299 16.8133 109.663 15.3577 110.39 14.1043C111.139 12.8308 112.13 11.8402 113.362 11.1327C114.616 10.4049 116.01 10.041 117.547 10.041C119.083 10.041 120.468 10.4049 121.701 11.1327C122.955 11.8402 123.945 12.8308 124.673 14.1043C125.421 15.3577 125.795 16.8133 125.795 18.471ZM122.157 18.471C122.157 17.44 121.944 16.5505 121.52 15.8025C121.115 15.0342 120.559 14.4379 119.851 14.0134C119.165 13.5888 118.396 13.3766 117.547 13.3766C116.698 13.3766 115.919 13.5888 115.212 14.0134C114.525 14.4379 113.968 15.0342 113.545 15.8025C113.14 16.5505 112.938 17.44 112.938 18.471C112.938 19.4817 113.14 20.3712 113.545 21.1395C113.968 21.8874 114.525 22.4737 115.212 22.8983C115.919 23.3228 116.698 23.535 117.547 23.535C118.396 23.535 119.165 23.3228 119.851 22.8983C120.559 22.4737 121.115 21.8874 121.52 21.1395C121.944 20.3712 122.157 19.4817 122.157 18.471Z" fill="#18192E"/>
<path d="M139.357 10.3455C139.883 10.3455 140.318 10.5273 140.662 10.8913C141.005 11.2349 141.177 11.6696 141.177 12.1952V19.8975C141.177 22.0402 140.581 23.7384 139.388 24.9918C138.195 26.2454 136.477 26.8717 134.233 26.8717C131.989 26.8717 130.27 26.2454 129.078 24.9918C127.906 23.7384 127.319 22.0402 127.319 19.8975V12.1952C127.319 11.6696 127.491 11.2349 127.835 10.8913C128.178 10.5273 128.613 10.3455 129.138 10.3455C129.664 10.3455 130.099 10.5273 130.442 10.8913C130.786 11.2349 130.958 11.6696 130.958 12.1952V19.8975C130.958 21.1305 131.23 22.0503 131.777 22.6569C132.322 23.2431 133.141 23.5362 134.233 23.5362C135.345 23.5362 136.174 23.2431 136.719 22.6569C137.266 22.0503 137.538 21.1305 137.538 19.8975V12.1952C137.538 11.6696 137.71 11.2349 138.054 10.8913C138.397 10.5273 138.832 10.3455 139.357 10.3455Z" fill="#18192E"/>
<path d="M142.66 24.0505C142.458 23.7675 142.367 23.4036 142.387 22.9588C142.408 22.5142 142.67 22.1301 143.176 21.8066C143.5 21.6044 143.843 21.5236 144.207 21.564C144.57 21.5843 144.924 21.7661 145.268 22.1099C145.854 22.696 146.471 23.1509 147.118 23.4743C147.765 23.7978 148.573 23.9596 149.544 23.9596C149.847 23.9393 150.18 23.8989 150.544 23.8383C150.908 23.7574 151.222 23.5957 151.485 23.353C151.767 23.0902 151.909 22.696 151.909 22.1704C151.909 21.7258 151.757 21.3719 151.453 21.1091C151.151 20.8463 150.746 20.624 150.241 20.442C149.756 20.26 149.21 20.0883 148.604 19.9265C147.976 19.7445 147.33 19.5424 146.662 19.32C146.016 19.0976 145.419 18.8146 144.874 18.471C144.329 18.1071 143.883 17.632 143.539 17.0458C143.196 16.4595 143.024 15.7216 143.024 14.8321C143.024 13.8213 143.306 12.9622 143.873 12.2546C144.439 11.5471 145.167 11.0013 146.057 10.6172C146.966 10.233 147.916 10.041 148.907 10.041C149.534 10.041 150.19 10.1218 150.878 10.2836C151.565 10.4251 152.222 10.6677 152.849 11.0114C153.476 11.3348 154.001 11.7695 154.426 12.3153C154.648 12.6186 154.779 12.9824 154.82 13.407C154.86 13.8314 154.669 14.2155 154.244 14.5592C153.941 14.8018 153.587 14.9129 153.182 14.8927C152.779 14.8524 152.445 14.7108 152.182 14.4682C151.838 14.0235 151.373 13.6698 150.787 13.407C150.221 13.1442 149.564 13.0128 148.816 13.0128C148.513 13.0128 148.179 13.0531 147.815 13.134C147.472 13.1946 147.168 13.3463 146.905 13.5888C146.643 13.8112 146.511 14.1751 146.511 14.6805C146.511 15.1455 146.662 15.5195 146.966 15.8025C147.269 16.0653 147.674 16.2877 148.179 16.4696C148.704 16.6314 149.26 16.7931 149.847 16.9548C150.453 17.1165 151.07 17.3086 151.696 17.531C152.323 17.7533 152.899 18.0464 153.426 18.4103C153.951 18.7741 154.376 19.2493 154.699 19.8355C155.022 20.4015 155.184 21.1294 155.184 22.0188C155.184 23.0499 154.88 23.9292 154.274 24.6569C153.667 25.3847 152.909 25.9407 152 26.325C151.091 26.6885 150.16 26.8705 149.21 26.8705C148.017 26.8705 146.825 26.6683 145.632 26.2643C144.439 25.8396 143.448 25.1017 142.66 24.0505Z" fill="#18192E"/>
</svg>
