<svg width="147" height="30" viewBox="0 0 147 30" fill="none" xmlns="http://www.w3.org/2000/svg">
<path d="M26.0446 20.103C31.3156 17.131 38.0166 18.9815 41.0446 24.2245L36.4745 26.86C31.1754 29.9161 24.3904 28.0376 21.3904 22.7105L26.0446 20.103Z" fill="#18192E"/>
<path d="M24.11 18.0283C27.138 12.8134 33.8109 11.019 39.0259 14.019L36.3063 18.7573C33.2782 23.9723 26.6053 25.7667 21.3904 22.7667L24.11 18.0283Z" fill="#18192E" fill-opacity="0.8"/>
<path d="M21.166 17.5234C21.166 11.187 26.2969 6.05615 32.6333 6.05615V11.4113C32.6333 17.7477 27.5025 22.8786 21.166 22.8786V17.5234Z" fill="#18192E" fill-opacity="0.8"/>
<path d="M18.4465 17.7198C15.4185 12.5049 17.2129 5.83199 22.4558 2.80396L25.1755 7.54227C28.2035 12.7572 26.4091 19.4582 21.1661 22.4582L18.4465 17.7198Z" fill="#18192E" fill-opacity="0.8"/>
<path d="M21.1658 16.7386C21.1658 10.8227 16.3715 6.02832 10.4556 6.02832V12.1405C10.4556 18.0564 15.25 22.8508 21.1658 22.8508V16.7386Z" fill="#18192E" fill-opacity="0.8"/>
<path d="M18.839 18.0281C15.839 12.7851 9.13805 10.9907 3.9231 14.0188L6.64272 18.7571C9.67076 23.972 16.3437 25.7664 21.5586 22.7664L18.839 18.0281Z" fill="#18192E" fill-opacity="0.8"/>
<path d="M16.9043 20.1031C11.6333 17.1311 4.96041 18.9536 1.93237 24.1966L6.50247 26.8321C11.7735 29.9162 18.5585 28.0377 21.5866 22.7106L16.9043 20.1031Z" fill="#18192E"/>
<path d="M60.5024 10.1499V22.0097H58.1192V14.2994L54.951 22.0097H53.1566L49.9603 14.2994V22.0097H47.5771V10.1499H50.2687L54.0538 18.9817L57.8388 10.1499H60.5024Z" fill="#18192E"/>
<path d="M63.3903 11.4676C62.9697 11.4676 62.6333 11.3274 62.3249 11.075C62.0445 10.7947 61.9043 10.4582 61.9043 10.0657C61.9043 9.67316 62.0445 9.33672 62.3249 9.08438C62.6052 8.80401 62.9697 8.66382 63.3903 8.66382C63.8108 8.66382 64.1473 8.80401 64.4277 9.08438C64.708 9.33672 64.8482 9.67316 64.8482 10.0657C64.8482 10.4582 64.708 10.7947 64.4277 11.075C64.1473 11.3554 63.8108 11.4676 63.3903 11.4676ZM64.5678 12.5891V22.0096H62.1847V12.5891H64.5678Z" fill="#18192E"/>
<path d="M71.4649 12.4768C72.5864 12.4768 73.4836 12.8413 74.1845 13.5422C74.8855 14.2432 75.2219 15.2245 75.2219 16.4862V22.0095H72.8387V16.8226C72.8387 16.0656 72.6425 15.5048 72.278 15.1123C71.9135 14.6918 71.3808 14.4955 70.7359 14.4955C70.0911 14.4955 69.5584 14.6918 69.1658 15.1123C68.8014 15.5048 68.6051 16.0936 68.6051 16.8226V22.0095H66.2219V12.589H68.6051V13.7665C68.9135 13.346 69.3341 13.0376 69.8107 12.8133C70.3154 12.589 70.8761 12.4768 71.4649 12.4768Z" fill="#18192E"/>
<path d="M76.1753 17.2712C76.1753 16.3179 76.3716 15.4768 76.736 14.7478C77.1286 14.0188 77.6332 13.4581 78.3061 13.0375C78.951 12.645 79.708 12.4487 80.4931 12.4487C81.1099 12.4487 81.6987 12.5889 82.2314 12.8693C82.7921 13.1216 83.2407 13.4861 83.5491 13.9347V9.44873H85.9603V22.0095H83.5491V20.6076C83.2407 21.0842 82.8482 21.4487 82.3155 21.7291C81.7828 22.0095 81.166 22.1497 80.465 22.1497C79.68 22.1497 78.951 21.9534 78.2781 21.5328C77.6332 21.1123 77.1005 20.5515 76.708 19.8226C76.3716 19.0936 76.1753 18.2244 76.1753 17.2712ZM83.5772 17.2992C83.5772 16.7104 83.465 16.2338 83.2407 15.8132C83.0164 15.3927 82.708 15.0842 82.3155 14.8599C81.923 14.6356 81.5304 14.5235 81.0818 14.5235C80.6332 14.5235 80.2407 14.6356 79.8482 14.8599C79.4837 15.0842 79.1753 15.3927 78.923 15.8132C78.6987 16.2338 78.5865 16.7104 78.5865 17.2712C78.5865 17.8319 78.6987 18.3366 78.923 18.7571C79.1473 19.1777 79.4557 19.4861 79.8482 19.7385C80.2407 19.9627 80.6332 20.0749 81.0818 20.0749C81.5304 20.0749 81.923 19.9627 82.3155 19.7385C82.708 19.5142 83.0164 19.2057 83.2407 18.7852C83.465 18.3927 83.5772 17.888 83.5772 17.2992Z" fill="#18192E"/>
<path d="M91.9324 14.5515H90.2781V22.0095H87.8669V14.5515H86.8015V12.5889H87.8669V12.1123C87.8669 10.9627 88.2034 10.0936 88.8482 9.56087C89.4931 9.02816 90.5024 8.77582 91.8202 8.80386V10.8226C91.2314 10.8226 90.8389 10.9067 90.6146 11.1029C90.3903 11.2992 90.2781 11.6637 90.2781 12.1964V12.5889H91.9324V14.5515Z" fill="#18192E"/>
<path d="M101.689 12.5891V22.0097H99.3063V20.8321C98.9979 21.2527 98.6054 21.5611 98.1007 21.8134C97.6241 22.0377 97.0914 22.1499 96.5026 22.1499C95.7736 22.1499 95.1287 22.0097 94.54 21.7013C93.9792 21.3928 93.5306 20.9162 93.1942 20.3274C92.8858 19.7106 92.7175 18.9816 92.7175 18.1405V12.5891H95.1007V17.776C95.1007 18.533 95.297 19.0938 95.6615 19.5143C96.0259 19.9069 96.5587 20.1031 97.2035 20.1031C97.8484 20.1031 98.3811 19.9069 98.7456 19.5143C99.1101 19.0938 99.3063 18.533 99.3063 17.776V12.5891H101.689Z" fill="#18192E"/>
<path d="M105.727 9.44873V22.0095H103.344V9.44873H105.727Z" fill="#18192E"/>
<path d="M112.624 12.4768C113.745 12.4768 114.643 12.8413 115.343 13.5422C116.044 14.2432 116.381 15.2245 116.381 16.4862V22.0095H113.998V16.8226C113.998 16.0656 113.801 15.5048 113.437 15.1123C113.072 14.6918 112.54 14.4955 111.895 14.4955C111.25 14.4955 110.717 14.6918 110.325 15.1123C109.96 15.5048 109.764 16.0936 109.764 16.8226V22.0095H107.381V12.589H109.764V13.7665C110.072 13.346 110.493 13.0376 110.97 12.8133C111.502 12.589 112.035 12.4768 112.624 12.4768Z" fill="#18192E"/>
<path d="M126.699 17.1029C126.699 17.4394 126.671 17.7478 126.643 18.0282H119.774C119.83 18.7011 120.082 19.2338 120.474 19.6263C120.895 20.0188 121.4 20.2151 122.017 20.2151C122.914 20.2151 123.531 19.8226 123.895 19.0656H126.474C126.194 19.9627 125.689 20.7198 124.904 21.3085C124.147 21.8973 123.194 22.1777 122.073 22.1777C121.175 22.1777 120.362 21.9814 119.633 21.5889C118.932 21.1684 118.372 20.6076 117.951 19.8786C117.559 19.1497 117.362 18.2805 117.362 17.3272C117.362 16.3459 117.559 15.5048 117.951 14.7478C118.344 14.0188 118.904 13.4581 119.605 13.0375C120.306 12.645 121.147 12.4487 122.073 12.4487C122.97 12.4487 123.755 12.645 124.456 13.0375C125.157 13.43 125.717 13.9627 126.11 14.6917C126.502 15.3646 126.699 16.1777 126.699 17.1029ZM124.259 16.43C124.259 15.8132 124.035 15.3366 123.587 14.9721C123.166 14.6076 122.633 14.4113 122.017 14.4113C121.428 14.4113 120.923 14.5796 120.531 14.9441C120.138 15.3085 119.886 15.7852 119.802 16.43H124.259Z" fill="#18192E"/>
<path d="M131.381 22.1777C130.624 22.1777 129.923 22.0375 129.306 21.7571C128.689 21.4768 128.213 21.0842 127.848 20.6076C127.484 20.131 127.315 19.5983 127.259 19.0375H129.642C129.699 19.402 129.867 19.7104 130.175 19.9347C130.484 20.159 130.876 20.2992 131.353 20.2992C131.801 20.2992 132.166 20.2151 132.418 20.0188C132.67 19.8506 132.811 19.5983 132.811 19.3179C132.811 19.0095 132.642 18.7852 132.334 18.645C132.026 18.4768 131.549 18.3085 130.848 18.1403C130.147 17.9721 129.558 17.8039 129.11 17.6076C128.661 17.4394 128.269 17.159 127.96 16.7665C127.652 16.402 127.484 15.8973 127.484 15.2525C127.484 14.7198 127.624 14.2431 127.932 13.8226C128.241 13.402 128.661 13.0656 129.222 12.8132C129.783 12.5609 130.456 12.4487 131.213 12.4487C132.334 12.4487 133.231 12.7291 133.904 13.2899C134.577 13.8506 134.942 14.6076 134.998 15.5609H132.727C132.699 15.1964 132.53 14.888 132.25 14.6637C131.97 14.4394 131.605 14.3272 131.156 14.3272C130.736 14.3272 130.399 14.4113 130.147 14.5515C129.923 14.7198 129.811 14.9441 129.811 15.2244C129.811 15.5328 129.979 15.7852 130.287 15.9534C130.596 16.1216 131.1 16.2899 131.773 16.4581C132.446 16.6263 133.007 16.7945 133.456 16.9908C133.904 17.159 134.269 17.4674 134.605 17.8319C134.942 18.1964 135.11 18.7011 135.11 19.3179C135.11 19.8506 134.97 20.3553 134.661 20.7758C134.353 21.1964 133.932 21.5328 133.371 21.7852C132.755 22.0375 132.11 22.1777 131.381 22.1777Z" fill="#18192E"/>
<path d="M139.96 22.1777C139.203 22.1777 138.502 22.0375 137.886 21.7571C137.269 21.4768 136.792 21.0842 136.428 20.6076C136.063 20.131 135.895 19.5983 135.839 19.0375H138.222C138.278 19.402 138.446 19.7104 138.755 19.9347C139.063 20.159 139.456 20.2992 139.932 20.2992C140.381 20.2992 140.745 20.2151 140.998 20.0188C141.25 19.8506 141.39 19.5983 141.39 19.3179C141.39 19.0095 141.222 18.7852 140.914 18.645C140.605 18.4768 140.129 18.3085 139.428 18.1403C138.727 17.9721 138.138 17.8039 137.689 17.6076C137.241 17.4394 136.848 17.159 136.54 16.7665C136.231 16.402 136.063 15.8973 136.063 15.2525C136.063 14.7198 136.203 14.2431 136.512 13.8226C136.82 13.402 137.241 13.0656 137.801 12.8132C138.362 12.5609 139.035 12.4487 139.792 12.4487C140.914 12.4487 141.811 12.7291 142.484 13.2899C143.157 13.8506 143.521 14.6076 143.577 15.5609H141.278C141.25 15.1964 141.082 14.888 140.801 14.6637C140.521 14.4394 140.157 14.3272 139.708 14.3272C139.287 14.3272 138.951 14.4113 138.699 14.5515C138.474 14.7198 138.362 14.9441 138.362 15.2244C138.362 15.5328 138.53 15.7852 138.839 15.9534C139.147 16.1216 139.652 16.2899 140.325 16.4581C140.998 16.6263 141.558 16.7945 142.007 16.9908C142.456 17.159 142.82 17.4674 143.157 17.8319C143.493 18.1964 143.661 18.7011 143.661 19.3179C143.661 19.8506 143.521 20.3553 143.213 20.7758C142.904 21.1964 142.484 21.5328 141.923 21.7852C141.334 22.0375 140.689 22.1777 139.96 22.1777Z" fill="#18192E"/>
</svg>
