<svg width="50" height="50" viewBox="0 0 50 50" fill="none" xmlns="http://www.w3.org/2000/svg">
<path d="M28.125 25C28.125 26.7259 26.7259 28.125 25 28.125C23.2741 28.125 21.875 26.7259 21.875 25C21.875 23.2741 23.2741 21.875 25 21.875C26.7259 21.875 28.125 23.2741 28.125 25Z" fill="#282DAD"/>
<path d="M35.4166 24.9999C35.4166 30.7529 30.7529 35.4166 25 35.4166C19.247 35.4166 14.5833 30.7529 14.5833 24.9999C14.5833 19.247 19.247 14.5833 25 14.5833C30.7529 14.5833 35.4166 19.247 35.4166 24.9999Z" stroke="#282DAD" stroke-width="1.5" stroke-linejoin="round"/>
<path d="M25 45.3125C36.2183 45.3125 45.3125 36.2183 45.3125 25C45.3125 13.7817 36.2183 4.6875 25 4.6875C13.7817 4.6875 4.6875 13.7817 4.6875 25C4.6875 36.2183 13.7817 45.3125 25 45.3125Z" fill="#282DAD" fill-opacity="0.18"/>
</svg>
