<svg width="211" height="30" viewBox="0 0 211 30" fill="none" xmlns="http://www.w3.org/2000/svg">
<path d="M39.2119 27.6061V0.821045H44.1275L56.7624 19.6854V0.821045H61.678V27.6061H56.7624L44.1275 8.78V27.6061H39.2119Z" fill="#18192E"/>
<path d="M74.1094 28.0654C72.189 28.0654 70.4866 27.6574 69.0017 26.8408C67.5168 26.0246 66.3519 24.8767 65.5069 23.3971C64.6618 21.9177 64.2395 20.2083 64.2395 18.2697C64.2395 16.3054 64.649 14.5579 65.4686 13.0274C66.3132 11.4968 67.4655 10.3106 68.9248 9.46879C70.4097 8.60148 72.1508 8.16772 74.1476 8.16772C76.017 8.16772 77.668 8.57588 79.1019 9.39229C80.5353 10.2086 81.6488 11.331 82.4432 12.7595C83.2623 14.1626 83.6724 15.7314 83.6724 17.466C83.6724 17.7467 83.6595 18.0401 83.6338 18.3461C83.6338 18.6523 83.621 18.971 83.5953 19.3028H69.1169C69.2192 20.7823 69.7312 21.9431 70.6531 22.785C71.6001 23.6266 72.7397 24.0477 74.0711 24.0477C75.0696 24.0477 75.9014 23.8306 76.5671 23.3971C77.2584 22.9379 77.7704 22.3511 78.1035 21.637H83.0963C82.7377 22.8358 82.136 23.9327 81.2912 24.9278C80.4721 25.8972 79.4475 26.6622 78.2186 27.2235C77.0154 27.7847 75.6456 28.0654 74.1094 28.0654ZM74.1476 12.1473C72.9444 12.1473 71.8818 12.4917 70.9603 13.1805C70.0384 13.8437 69.4496 14.8641 69.1938 16.2416H78.6796C78.6026 14.9916 78.1417 13.9967 77.297 13.257C76.452 12.5172 75.4022 12.1473 74.1476 12.1473Z" fill="#18192E"/>
<path d="M82.7681 27.6047L89.6804 18.1151L82.7681 8.62549H88.0294L92.8689 15.3601L97.6688 8.62549H102.969L96.0177 18.1151L102.969 27.6047H97.6688L92.8689 20.8702L88.0294 27.6047H82.7681Z" fill="#18192E"/>
<path d="M112.667 27.6063C110.671 27.6063 109.071 27.1215 107.868 26.1521C106.664 25.1827 106.062 23.4611 106.062 20.9865V12.7214H102.798V8.627H106.062L106.638 3.53784H110.978V8.627H116.124V12.7214H110.978V21.025C110.978 21.9431 111.17 22.581 111.554 22.938C111.964 23.2697 112.655 23.4353 113.628 23.4353H116.009V27.6063H112.667Z" fill="#18192E"/>
<path d="M118.424 27.6062V8.62698H122.764L123.186 11.1907C123.801 10.2723 124.608 9.54528 125.606 9.00964C126.63 8.4484 127.807 8.16772 129.139 8.16772C132.084 8.16772 134.17 9.303 135.399 11.5734C136.09 10.5274 137.012 9.69836 138.164 9.08613C139.342 8.47389 140.622 8.16772 142.005 8.16772C144.488 8.16772 146.395 8.90755 147.726 10.3871C149.058 11.8667 149.723 14.035 149.723 16.8921V27.6062H144.808V17.3513C144.808 15.7186 144.488 14.4687 143.848 13.6013C143.234 12.734 142.273 12.3004 140.968 12.3004C139.636 12.3004 138.561 12.785 137.742 13.7544C136.948 14.7237 136.551 16.0758 136.551 17.8105V27.6062H131.635V17.3513C131.635 15.7186 131.315 14.4687 130.676 13.6013C130.035 12.734 129.049 12.3004 127.718 12.3004C126.412 12.3004 125.35 12.785 124.531 13.7544C123.738 14.7237 123.34 16.0758 123.34 17.8105V27.6062H118.424Z" fill="#18192E"/>
<path d="M161.61 28.0657C159.768 28.0657 158.103 27.6445 156.619 26.8029C155.159 25.961 153.994 24.8002 153.123 23.3208C152.278 21.8158 151.856 20.0811 151.856 18.1168C151.856 16.1525 152.291 14.4307 153.162 12.9511C154.032 11.446 155.197 10.2725 156.656 9.43074C158.141 8.58892 159.805 8.16797 161.649 8.16797C163.467 8.16797 165.105 8.58892 166.564 9.43074C168.05 10.2725 169.214 11.446 170.059 12.9511C170.93 14.4307 171.365 16.1525 171.365 18.1168C171.365 20.0811 170.93 21.8158 170.059 23.3208C169.214 24.8002 168.05 25.961 166.564 26.8029C165.079 27.6445 163.428 28.0657 161.61 28.0657ZM161.61 23.8181C162.891 23.8181 164.004 23.3462 164.952 22.4026C165.899 21.4332 166.373 20.0045 166.373 18.1168C166.373 16.2291 165.899 14.8133 164.952 13.8695C164.004 12.9001 162.904 12.4154 161.649 12.4154C160.344 12.4154 159.216 12.9001 158.27 13.8695C157.348 14.8133 156.887 16.2291 156.887 18.1168C156.887 20.0045 157.348 21.4332 158.27 22.4026C159.216 23.3462 160.331 23.8181 161.61 23.8181Z" fill="#18192E"/>
<path d="M178.048 27.6047L171.059 8.62549H176.206L181.044 22.9749L185.883 8.62549H191.029L184.001 27.6047H178.048Z" fill="#18192E"/>
<path d="M200.527 28.0654C198.608 28.0654 196.904 27.6574 195.419 26.8408C193.935 26.0246 192.769 24.8767 191.924 23.3971C191.08 21.9177 190.658 20.2083 190.658 18.2697C190.658 16.3054 191.067 14.5579 191.886 13.0274C192.732 11.4968 193.883 10.3106 195.343 9.46879C196.827 8.60148 198.569 8.16772 200.566 8.16772C202.434 8.16772 204.086 8.57588 205.52 9.39229C206.954 10.2086 208.067 11.331 208.86 12.7595C209.681 14.1626 210.09 15.7314 210.09 17.466C210.09 17.7467 210.077 18.0401 210.051 18.3461C210.051 18.6523 210.038 18.971 210.013 19.3028H195.535C195.637 20.7823 196.149 21.9431 197.071 22.785C198.019 23.6266 199.157 24.0477 200.489 24.0477C201.488 24.0477 202.32 23.8306 202.985 23.3971C203.676 22.9379 204.188 22.3511 204.521 21.637H209.514C209.155 22.8358 208.553 23.9327 207.708 24.9278C206.889 25.8972 205.866 26.6622 204.637 27.2235C203.433 27.7847 202.064 28.0654 200.527 28.0654ZM200.566 12.1473C199.362 12.1473 198.299 12.4917 197.378 13.1805C196.457 13.8437 195.868 14.8641 195.612 16.2416H205.097C205.02 14.9916 204.56 13.9967 203.715 13.257C202.87 12.5172 201.82 12.1473 200.566 12.1473Z" fill="#18192E"/>
<path d="M14.9724 0.300358V12.409C14.9724 13.791 13.848 14.9114 12.4609 14.9114H0.30817V9.90661H6.39077L0 3.53893L3.55172 0L9.94941 6.37447V0.300358H14.9724Z" fill="#18192E"/>
<path d="M29.8083 15.0823H17.6556C16.2685 15.0823 15.144 16.2026 15.144 17.5847V29.6933H20.1673V23.6321L26.5584 30.0001L30.1101 26.4613L23.7127 20.0872H29.8083V15.0823Z" fill="#18192E"/>
</svg>
