<svg width="145" height="31" viewBox="0 0 145 31" fill="none" xmlns="http://www.w3.org/2000/svg">
<path d="M5.85004 0.5H0.705811C0.429696 0.5 0.205811 0.723886 0.205811 1V10.6935L5.85004 0.5Z" fill="#18192E"/>
<path d="M0.205811 13.8113C0.222039 13.812 0.238495 13.8125 0.254953 13.8125H8.09792C8.71175 13.8125 9.19415 14.3369 9.14181 14.9475L8.46318 22.8624C8.36672 23.9871 9.8769 24.4455 10.424 23.4575L18.5736 8.73931C18.9595 8.04229 18.4545 7.18754 17.6566 7.18754H9.81369C9.19975 7.18754 8.71747 6.66309 8.76981 6.05257L9.24592 0.5H17.1603C24.4535 0.5 27.7228 9.67326 22.0822 14.3106L17.6728 17.9358C17.384 18.1733 17.3272 18.5942 17.5425 18.9001L25.1513 29.712C25.3848 30.0435 25.1478 30.5 24.7425 30.5H0.705811C0.429696 30.5 0.205811 30.276 0.205811 30V13.8113Z" fill="#18192E"/>
<path d="M85.8838 16.7402V24.3208H90.0714V15.8098C90.0714 14.8064 89.8519 13.9306 89.4143 13.1826C88.9949 12.4162 88.3928 11.8232 87.6084 11.4038C86.8234 10.9658 85.9114 10.7469 84.8714 10.7469C83.8499 10.7469 82.9463 10.9658 82.1623 11.4038C81.9539 11.5152 81.7579 11.6397 81.5739 11.7768C81.4743 11.8509 81.3788 11.9287 81.2863 12.0103V5H77.0994V24.3208H81.2863V16.7402C81.2863 16.2842 81.3869 15.8829 81.5878 15.5361C81.7884 15.1712 82.0619 14.8975 82.4084 14.7151C82.7554 14.5144 83.1564 14.4141 83.6124 14.4141C84.2693 14.4141 84.8078 14.633 85.2274 15.0709C85.6653 15.4905 85.8838 16.0469 85.8838 16.7402Z" fill="#18192E"/>
<path fill-rule="evenodd" clip-rule="evenodd" d="M39.3629 16.3573V24.3208H35.0669V5H42.9478C44.2253 5 45.3474 5.2464 46.3143 5.73874C47.2808 6.21314 48.0383 6.8792 48.5859 7.73657C49.1328 8.59394 49.4063 9.57931 49.4063 10.6921C49.4063 11.8232 49.1328 12.8176 48.5859 13.6751C48.0383 14.5144 47.2724 15.1712 46.2869 15.6455C45.7373 15.9102 45.1339 16.101 44.4764 16.2179L50.6659 24.3208H45.5753L39.8128 16.3573H39.3629ZM39.3629 13.1826H42.4284C43.2859 13.1826 43.9429 12.9637 44.3989 12.5256C44.8728 12.0879 45.1103 11.4949 45.1103 10.7469C45.1103 10.0537 44.8823 9.47897 44.4259 9.02297C43.9699 8.56663 43.3133 8.33863 42.4558 8.33863H39.3629V13.1826Z" fill="#18192E"/>
<path fill-rule="evenodd" clip-rule="evenodd" d="M53.4288 23.7454C54.5603 24.3291 55.8463 24.6211 57.2873 24.6211C58.4008 24.6211 59.4223 24.4295 60.3528 24.0464C61.2828 23.6631 62.0768 23.0884 62.7338 22.3223L60.4348 20.0234C60.0333 20.4794 59.5683 20.8262 59.0388 21.0634C58.5098 21.2822 57.9173 21.3919 57.2597 21.3919C56.5488 21.3919 55.9283 21.2458 55.3993 20.9538C54.8883 20.6438 54.4873 20.2151 54.1953 19.6677C54.1033 19.4777 54.0273 19.2755 53.9663 19.061L63.4997 19.0383C63.5728 18.6917 63.6183 18.3906 63.6363 18.1352C63.6493 18.0398 63.6593 17.9467 63.6678 17.8557C63.6723 17.8105 63.6753 17.7661 63.6783 17.7222C63.6828 17.656 63.6863 17.5911 63.6883 17.5273L63.6903 17.457L63.6913 17.3689C63.6913 16.0735 63.3998 14.924 62.8158 13.9207C62.2503 12.9171 61.4658 12.1328 60.4623 11.5671C59.4588 11.0017 58.2997 10.7188 56.9868 10.7188C55.6363 10.7188 54.4233 11.0198 53.3468 11.6218C52.2703 12.2239 51.4128 13.0542 50.7743 14.1124C50.1538 15.1521 49.8438 16.3381 49.8438 17.6699C49.8438 19.0017 50.1633 20.1968 50.8013 21.2549C51.4403 22.3129 52.3163 23.1433 53.4288 23.7454ZM53.9673 16.1867C53.9878 16.1154 54.0098 16.0456 54.0334 15.9773C54.0734 15.8621 54.1178 15.751 54.1678 15.6448C54.4418 15.0974 54.8157 14.6777 55.2898 14.3859C55.7823 14.0757 56.3574 13.9207 57.0138 13.9207C57.6338 13.9207 58.1538 14.0576 58.5738 14.3313L58.6303 14.3649L58.6863 14.4008C58.7338 14.4323 58.7793 14.4656 58.8237 14.5002C58.8673 14.5342 58.9098 14.5698 58.9508 14.6069C59.2053 14.8374 59.4078 15.1287 59.5588 15.4807C59.6508 15.6868 59.7248 15.9165 59.7813 16.1702L53.9673 16.1867Z" fill="#18192E"/>
<path d="M71.0494 24.6211C69.6805 24.6211 68.4399 24.32 67.327 23.7179C66.2144 23.116 65.339 22.2856 64.6999 21.2275C64.0614 20.1694 63.7419 18.9834 63.7419 17.6699C63.7419 16.3381 64.0614 15.1521 64.6999 14.1124C65.3569 13.0542 66.2414 12.2239 67.3544 11.6218C68.4674 11.0198 69.7169 10.7188 71.1039 10.7188C72.1434 10.7188 73.0919 10.9014 73.95 11.2661C74.387 11.4392 74.7994 11.6577 75.1864 11.9216C75.5744 12.1865 75.9379 12.497 76.2759 12.8535L73.594 15.5354C73.2839 15.1887 72.919 14.9334 72.4994 14.769C72.3099 14.6917 72.107 14.6326 71.8889 14.5916C71.7894 14.5728 71.6874 14.5578 71.5824 14.5469C71.4739 14.5354 71.3624 14.528 71.2474 14.5249C71.1999 14.5234 71.1525 14.5228 71.1039 14.5228C70.9559 14.5228 70.8119 14.531 70.6719 14.5473L70.5965 14.5571L70.5494 14.564C70.5009 14.5715 70.4525 14.5804 70.4045 14.5898C70.0765 14.6558 69.7714 14.7703 69.4889 14.9334C69.0329 15.1887 68.6685 15.5535 68.3944 16.0278C68.139 16.4841 68.011 17.0222 68.011 17.6425C68.011 18.2629 68.139 18.8103 68.3944 19.2843C68.6685 19.7587 69.0424 20.1328 69.5165 20.4065C69.9904 20.6801 70.5199 20.8171 71.1039 20.8171C71.6514 20.8171 72.1344 20.7258 72.5539 20.5434C72.9919 20.3427 73.3659 20.069 73.6759 19.7224L76.331 22.4044C75.6374 23.134 74.8529 23.6904 73.9774 24.0737C73.1014 24.4384 72.1254 24.6211 71.0494 24.6211Z" fill="#18192E"/>
<path fill-rule="evenodd" clip-rule="evenodd" d="M97.2209 24.5955C95.9992 24.5955 94.9032 24.2944 93.9375 23.6921C92.9878 23.0901 92.2312 22.2693 91.6655 21.2292C91.118 20.1894 90.8438 19.0033 90.8438 17.6716C90.8438 16.3398 91.118 15.1537 91.6655 14.114C92.2312 13.074 92.9878 12.2532 93.9375 11.6509C94.9032 11.0488 95.9992 10.7478 97.2209 10.7478C98.1146 10.7478 98.918 10.9211 99.6289 11.2678C100.108 11.4951 100.527 11.7812 100.887 12.126V11.0214H104.992V24.3217H100.887V23.2441C100.641 23.4773 100.364 23.6838 100.057 23.8638C100.001 23.8967 99.9432 23.9289 99.8849 23.9601C99.8106 23.9999 99.734 24.0383 99.6563 24.0753C98.9272 24.4221 98.1146 24.5955 97.2209 24.5955ZM98.07 20.8188C98.9637 20.8188 99.6838 20.5269 100.231 19.9431C100.779 19.3411 101.052 18.5837 101.052 17.6716C101.052 17.3613 101.02 17.0693 100.956 16.7957C100.892 16.522 100.797 16.2665 100.669 16.0295C100.431 15.5551 100.085 15.1904 99.6289 14.935C99.3832 14.7809 99.1135 14.6704 98.8209 14.603C98.5935 14.5505 98.3523 14.5244 98.0963 14.5244C97.8049 14.5244 97.5295 14.5585 97.27 14.627C97.1112 14.6686 96.958 14.7231 96.8118 14.7902C96.718 14.8333 96.6266 14.8815 96.5363 14.935C96.0986 15.1904 95.7432 15.5551 95.4689 16.0295C95.214 16.5039 95.0872 17.0512 95.0872 17.6716C95.0872 18.2736 95.214 18.812 95.4689 19.2861C95.7249 19.7605 96.0803 20.1345 96.5363 20.4081C96.9923 20.6819 97.5032 20.8188 98.07 20.8188Z" fill="#18192E"/>
<path d="M111.034 11.0214H106.846V24.3217H111.034V17.0149C111.034 16.1572 111.235 15.5188 111.635 15.0991C112.055 14.6614 112.612 14.4423 113.304 14.4423C113.652 14.4423 113.962 14.4971 114.236 14.6067C114.509 14.716 114.738 14.871 114.919 15.0718L117.41 11.9246C117.045 11.5231 116.616 11.2313 116.124 11.0488C115.65 10.8481 115.093 10.7478 114.454 10.7478C112.995 10.7478 111.855 11.1767 111.034 12.0342V11.0214Z" fill="#18192E"/>
<path fill-rule="evenodd" clip-rule="evenodd" d="M122.694 30.2875C121.235 30.2875 119.948 30.0319 118.836 29.5214C117.741 29.0289 116.875 28.3264 116.236 27.414L118.807 24.8415C119.283 25.4072 119.812 25.8359 120.396 26.1279C120.997 26.4195 121.718 26.5654 122.557 26.5654C123.597 26.5654 124.408 26.3104 124.992 25.7995C125.595 25.2886 125.896 24.5678 125.896 23.6374V22.7974C125.612 23.0254 125.292 23.2231 124.939 23.3911C124.208 23.7377 123.397 23.9111 122.503 23.9111C121.279 23.9111 120.195 23.6193 119.246 23.0353C118.297 22.4517 117.549 21.658 117.001 20.6545C116.454 19.6511 116.181 18.5383 116.181 17.3159C116.181 16.0751 116.454 14.9624 117.001 13.9769C117.549 12.9736 118.297 12.1892 119.246 11.6235C120.195 11.0398 121.279 10.7478 122.503 10.7478C123.415 10.7478 124.227 10.9211 124.939 11.2678C125.004 11.2971 125.068 11.3276 125.131 11.3593C125.441 11.5161 125.724 11.7014 125.979 11.9152V11.0214H130.084V23.528C130.084 24.8965 129.764 26.0824 129.125 27.0854C128.487 28.0889 127.612 28.8734 126.499 29.439C125.384 30.0049 124.117 30.2875 122.694 30.2875ZM123.296 20.1894C123.88 20.1894 124.382 20.0615 124.801 19.8062C124.909 19.7433 125.009 19.6755 125.104 19.6028C125.393 19.3798 125.621 19.1101 125.787 18.7936C125.857 18.6633 125.917 18.5283 125.966 18.3884C126.031 18.207 126.078 18.0173 126.107 17.8196C126.131 17.6572 126.142 17.4893 126.142 17.3159C126.142 16.7686 126.023 16.2758 125.787 15.8381C125.567 15.4001 125.239 15.0534 124.801 14.7981C124.382 14.5427 123.88 14.415 123.296 14.415C123.124 14.415 122.958 14.427 122.797 14.4507L122.713 14.4644L122.639 14.478C122.48 14.51 122.327 14.5542 122.181 14.6105C122.099 14.6421 122.019 14.6774 121.941 14.7166C121.891 14.7422 121.84 14.7693 121.791 14.7981C121.353 15.0534 121.015 15.4001 120.779 15.8381C120.655 16.0662 120.564 16.3091 120.504 16.5669C120.449 16.8039 120.423 17.0537 120.423 17.3159C120.423 17.8267 120.541 18.3101 120.779 18.7663C121.015 19.204 121.343 19.5508 121.764 19.8062C121.999 19.9433 122.255 20.0439 122.533 20.1073C122.772 20.1621 123.027 20.1894 123.296 20.1894Z" fill="#18192E"/>
<path fill-rule="evenodd" clip-rule="evenodd" d="M134.653 23.7454C135.783 24.3291 137.07 24.6211 138.511 24.6211C139.624 24.6211 140.646 24.4295 141.576 24.0464C142.507 23.6631 143.3 23.0884 143.957 22.3223L141.659 20.0234C141.258 20.4794 140.792 20.8262 140.263 21.0634C139.734 21.2822 139.141 21.3919 138.484 21.3919C137.773 21.3919 137.152 21.2458 136.623 20.9538C136.259 20.7327 135.95 20.4509 135.696 20.1087C135.656 20.0542 135.618 19.9981 135.58 19.9405C135.523 19.8533 135.469 19.7622 135.419 19.6677C135.327 19.4777 135.251 19.2755 135.19 19.061L144.724 19.0383C144.759 18.8672 144.789 18.707 144.812 18.5581C144.835 18.4053 144.851 18.2645 144.861 18.1352C144.874 18.0389 144.884 17.9446 144.892 17.8528C144.907 17.6838 144.915 17.5224 144.915 17.3689C144.915 16.0735 144.623 14.924 144.039 13.9207C143.474 12.9171 142.69 12.1328 141.686 11.5671C140.683 11.0017 139.524 10.7188 138.211 10.7188C136.861 10.7188 135.647 11.0198 134.571 11.6218C133.494 12.2239 132.637 13.0542 131.998 14.1124C131.379 15.1521 131.068 16.3381 131.068 17.6699C131.068 19.0017 131.387 20.1968 132.026 21.2549C132.664 22.3129 133.54 23.1433 134.653 23.7454ZM135.191 16.1867C135.246 15.9949 135.312 15.814 135.391 15.6448C135.548 15.3322 135.736 15.0615 135.958 14.8325C136.036 14.7522 136.118 14.677 136.204 14.6069C136.302 14.5266 136.405 14.4528 136.514 14.3859C137.007 14.0757 137.581 13.9207 138.238 13.9207C138.859 13.9207 139.379 14.0576 139.798 14.3313C139.965 14.4289 140.116 14.5451 140.252 14.6801C140.47 14.8982 140.647 15.165 140.783 15.4807C140.875 15.6868 140.948 15.9165 141.005 16.1702L135.191 16.1867Z" fill="#18192E"/>
</svg>
