<svg width="149" height="140" viewBox="0 0 149 140" fill="none" xmlns="http://www.w3.org/2000/svg">
<path d="M51.7165 92.1255L76.0498 104.764V101.81L51.7165 89.1714V92.1255Z" fill="#18192E"/>
<path d="M53.0871 88.1359L77.4204 100.805L76.05 101.81L51.7167 89.1713L53.0871 88.1359Z" fill="#677274"/>
<path d="M75.8671 104.734L99.4086 118.773L99.5913 115.819L76.0194 101.78L75.8671 104.734Z" fill="#18192E"/>
<path d="M76.2936 100.744L99.8655 114.784L99.5914 115.819L76.0195 101.78L76.2936 100.744Z" fill="#677274"/>
<path d="M12.0951 81.253L10.7246 80.4917L45.382 60.4525L46.7524 61.2443L12.0951 81.253Z" fill="#677274"/>
<path d="M12.095 82.7454L10.7245 81.984V80.4917L12.095 81.2531V82.7454Z" fill="#18192E"/>
<path d="M12.0951 82.7454V81.2531L46.7524 61.2444V62.7367L12.0951 82.7454Z" fill="#18192E"/>
<path d="M48.2754 74.8578C48.2754 75.2232 48.5495 75.3755 48.8845 75.2232L56.285 71.1119C56.62 70.9291 56.894 70.4723 56.894 70.1069V64.1682C56.894 63.8028 56.62 63.6505 56.285 63.8028L48.8845 67.9141C48.5495 68.0969 48.2754 68.5537 48.2754 68.9191V74.8578Z" fill="#0E191B"/>
<path d="M60.1223 63.285L47.8795 70.3504L49.0977 66.6959L56.2241 62.1886L60.1223 63.285Z" fill="#0E191B"/>
<path d="M51.1991 67.305L55.1278 65.2036C56.3155 64.5336 57.9601 64.625 59.7873 65.6909C63.4419 67.7923 66.396 72.9086 66.396 77.1418C66.396 79.2737 65.6346 80.7355 64.4469 81.4359L60.5182 83.5373C59.3305 84.2073 57.686 84.1159 55.8587 83.05C52.2041 80.9487 49.25 75.8323 49.25 71.5991C49.25 69.4673 49.9809 68.0054 51.1991 67.305Z" fill="#2E373A"/>
<path d="M49.25 71.5992C49.25 75.8019 52.2041 80.9487 55.8586 83.0501C57.6859 84.0856 59.3 84.2074 60.5182 83.5374C61.7364 82.8674 62.4673 81.3751 62.4673 79.2433C62.4673 75.0405 59.5132 69.8937 55.8586 67.7923C54.0313 66.7569 52.3868 66.6351 51.1991 67.3051C49.9809 68.0055 49.25 69.4673 49.25 71.5992Z" fill="#555E61"/>
<path d="M49.646 72.0863C49.646 75.9236 52.326 80.5832 55.676 82.5018C58.9956 84.4204 61.7061 82.8673 61.7061 79.03C61.7061 75.1927 59.026 70.5331 55.676 68.6145C52.326 66.6958 49.646 68.249 49.646 72.0863Z" fill="#3B4447"/>
<path d="M51.6254 73.1219C51.6254 75.7106 53.4222 78.8474 55.6758 80.1265C57.899 81.4056 59.7263 80.3701 59.7263 77.7815C59.7263 75.1928 57.9295 72.056 55.6758 70.7769C53.4222 69.4978 51.6254 70.5333 51.6254 73.1219Z" fill="url(#paint0_linear_90_679)"/>
<path d="M51.9908 73.335C51.9908 75.68 53.6354 78.5427 55.6758 79.7C57.7163 80.8877 59.3608 79.9132 59.3608 77.5682C59.3608 75.2232 57.7163 72.3604 55.6758 71.2031C53.6354 70.0154 51.9908 70.99 51.9908 73.335Z" fill="url(#paint1_linear_90_679)"/>
<path d="M53.9095 70.6854C54.4272 70.655 55.0363 70.8072 55.6758 71.1727C57.7163 72.3604 59.3608 75.1927 59.3608 77.5377C59.3608 78.2686 59.2086 78.8777 58.904 79.3345C58.3863 79.365 57.7772 79.2127 57.1377 78.8473C55.0972 77.69 53.4526 74.8273 53.4526 72.4823C53.4526 71.7513 53.6049 71.1422 53.9095 70.6854Z" fill="url(#paint2_linear_90_679)"/>
<path d="M54.3665 70.7159C54.7624 70.7769 55.1887 70.9291 55.6456 71.2032C57.686 72.3909 59.3306 75.2232 59.3306 77.5682C59.3306 78.086 59.2392 78.5428 59.0869 78.9387C58.5387 79.091 57.8383 78.9692 57.1074 78.5428C55.2192 77.4464 53.6965 74.8273 53.6965 72.665C53.7269 71.7819 53.9706 71.1423 54.3665 70.7159Z" fill="url(#paint3_linear_90_679)"/>
<path d="M59.3306 77.5682C59.3306 77.7509 59.3306 77.9337 59.3001 78.1164C58.9347 78.0859 58.5083 77.9641 58.0515 77.7205C56.4069 76.7764 55.0974 74.4618 55.0974 72.5736C55.0974 71.9645 55.2496 71.4468 55.4933 71.1118C55.5542 71.1423 55.6151 71.1727 55.6456 71.2032C57.686 72.3605 59.3306 75.2232 59.3306 77.5682Z" fill="url(#paint4_linear_90_679)"/>
<path d="M55.7674 74.066C55.7674 74.9491 56.3765 76.0151 57.1378 76.4414C57.8992 76.8678 58.5083 76.5328 58.5083 75.6496C58.5083 74.7664 57.8992 73.7005 57.1378 73.2741C56.3765 72.8478 55.7674 73.1828 55.7674 74.066Z" fill="url(#paint5_linear_90_679)"/>
<path d="M64.873 85.4865C64.873 85.8519 65.1471 86.0042 65.4821 85.8519L72.8826 81.7405C73.2176 81.5578 73.4917 81.101 73.4917 80.7355V74.7969C73.4917 74.4314 73.2176 74.2791 72.8826 74.4314L65.4821 78.5428C65.1471 78.7255 64.873 79.1823 64.873 79.5478V85.4865Z" fill="#0E191B"/>
<path d="M72.6696 73.9441L76.5982 71.8428C77.786 71.1728 79.4305 71.2641 81.2578 72.3301C84.9124 74.4314 87.8665 79.5478 87.8665 83.781C87.8665 85.9128 87.1051 87.3746 85.9174 88.0751L81.9887 90.1765C80.801 90.8465 79.1564 90.7551 77.3291 89.6892C73.6746 87.5878 70.7205 82.4714 70.7205 78.2382C70.7205 76.1064 71.4514 74.6141 72.6696 73.9441Z" fill="#2E373A"/>
<path d="M70.7204 78.2383C70.7204 82.441 73.6745 87.5879 77.3291 89.6892C79.1564 90.7247 80.7705 90.8465 81.9886 90.1765C83.2068 89.5065 83.9377 88.0142 83.9377 85.8824C83.9377 81.6797 80.9836 76.5633 77.3291 74.4314C75.5018 73.396 73.8573 73.2742 72.6695 73.9746C71.4513 74.6142 70.7204 76.1065 70.7204 78.2383Z" fill="#555E61"/>
<path d="M71.1165 78.7255C71.1165 82.5628 73.7965 87.2223 77.1465 89.141C80.466 91.0596 83.1765 89.5064 83.1765 85.6691C83.1765 81.8318 80.4965 77.1723 77.1465 75.2536C73.7965 73.335 71.1165 74.8882 71.1165 78.7255Z" fill="#3B4447"/>
<path d="M76.4763 72.7259L64.2336 79.7914L65.4517 76.1368L72.5781 71.6295L76.4763 72.7259Z" fill="#0E191B"/>
<path d="M49.9503 64.9295L49.9807 64.8991C50.0416 64.8686 50.133 64.8077 50.1939 64.7773L58.0512 60.2395C59.513 59.5391 61.4317 59.7218 63.5635 60.94C68.0708 63.5591 71.7253 69.8936 71.7253 75.1014C71.7253 75.1928 71.7253 75.2841 71.7253 75.3755L64.0203 79.8219L62.8935 79.1823C62.8935 79.0909 62.8935 78.9996 62.8935 78.9082C62.8935 74.4314 59.7567 68.9495 55.8585 66.7264C51.9603 64.4727 48.8234 66.3 48.8234 70.7768C48.8234 70.8682 48.8234 70.9596 48.8234 71.0509L47.6966 70.4114C47.6966 70.32 47.6966 70.2286 47.6966 70.1373C47.6966 67.6095 48.5494 65.8127 49.9503 64.9295Z" fill="#18192E"/>
<path d="M62.8937 79.1823C62.8937 79.0909 62.8937 78.9996 62.8937 78.9082C62.8937 74.4314 59.7569 68.9495 55.8587 66.7263C51.9605 64.4727 48.8236 66.3 48.8236 70.7768C48.8236 70.8682 48.8236 70.9595 48.8236 71.0509L47.6968 70.4113C47.6968 70.32 47.6968 70.2286 47.6968 70.1373C47.6968 64.9295 51.3514 62.8281 55.8587 65.4168C60.366 68.0359 64.0205 74.3704 64.0205 79.5782C64.0205 79.6695 64.0205 79.7609 64.0205 79.8523L62.8937 79.1823Z" fill="#18192E"/>
<path d="M67.5226 76.7459L71.4513 74.6445C72.639 73.9745 74.2835 74.0659 76.1108 75.1014C79.7654 77.2027 82.7195 82.3191 82.7195 86.5523C82.7195 88.6841 81.9581 90.146 80.7704 90.8464L76.8417 92.9478C75.654 93.6178 74.0095 93.5264 72.1822 92.4605C68.5276 90.3591 65.5735 85.2428 65.5735 81.0096C65.5735 78.9082 66.3349 77.4464 67.5226 76.7459Z" fill="#2E373A"/>
<path d="M65.5735 81.04C65.5735 85.2428 68.5276 90.3896 72.1821 92.491C74.0094 93.5264 75.6235 93.6483 76.8417 92.9783C78.0599 92.3082 78.7908 90.816 78.7908 88.6842C78.7908 84.4814 75.8367 79.3346 72.1821 77.2332C70.3548 76.1977 68.7103 76.0759 67.5225 76.7764C66.3348 77.4464 65.5735 78.9082 65.5735 81.04Z" fill="#555E61"/>
<path d="M65.9998 81.5274C65.9998 85.3646 68.6798 90.0242 72.0298 91.9428C75.3494 93.8615 78.0598 92.3083 78.0598 88.471C78.0598 84.6337 75.3798 79.9742 72.0298 78.0555C68.6798 76.1369 65.9998 77.6901 65.9998 81.5274Z" fill="#3B4447"/>
<path d="M67.9489 82.5628C67.9489 85.1515 69.7457 88.2883 71.9993 89.5674C74.2225 90.8465 76.0498 89.811 76.0498 87.2224C76.0498 84.6338 74.253 81.4969 71.9993 80.2178C69.7761 78.9387 67.9489 79.9742 67.9489 82.5628Z" fill="url(#paint6_linear_90_679)"/>
<path d="M68.3145 82.776C68.3145 85.121 69.9591 87.9838 71.9996 89.141C74.04 90.3288 75.6846 89.3542 75.6846 87.0092C75.6846 84.6642 74.04 81.8015 71.9996 80.6442C69.9895 79.4564 68.3145 80.431 68.3145 82.776Z" fill="url(#paint7_linear_90_679)"/>
<path d="M70.2332 80.1569C70.7509 80.1264 71.36 80.2787 71.9996 80.6441C74.04 81.8319 75.6846 84.6642 75.6846 87.0092C75.6846 87.7401 75.5323 88.3492 75.2278 88.806C74.71 88.8364 74.1009 88.6842 73.4614 88.3187C71.4209 87.1614 69.7764 84.2987 69.7764 81.9537C69.7764 81.1923 69.9591 80.5832 70.2332 80.1569Z" fill="url(#paint8_linear_90_679)"/>
<path d="M70.7205 80.157C71.1164 80.2179 71.5427 80.3702 71.9996 80.6442C74.04 81.832 75.6846 84.6643 75.6846 87.0093C75.6846 87.527 75.5932 87.9838 75.4409 88.3797C74.8927 88.532 74.1923 88.4102 73.4614 87.9838C71.5732 86.8875 70.0505 84.2684 70.0505 82.1061C70.0809 81.2229 70.3246 80.5833 70.7205 80.157Z" fill="url(#paint9_linear_90_679)"/>
<path d="M75.6846 87.0091C75.6846 87.1919 75.6846 87.3746 75.6541 87.5573C75.2887 87.5268 74.8623 87.405 74.4055 87.1614C72.7609 86.2173 71.4514 83.9027 71.4514 82.0146C71.4514 81.4055 71.6036 80.8877 71.8473 80.5527C71.9082 80.5832 71.9691 80.6136 71.9996 80.6441C74.04 81.8014 75.6846 84.6641 75.6846 87.0091Z" fill="url(#paint10_linear_90_679)"/>
<path d="M72.0909 83.5068C72.0909 84.39 72.7 85.4559 73.4613 85.8823C74.2227 86.3087 74.8318 85.9737 74.8318 85.0905C74.8318 84.2073 74.2227 83.1414 73.4613 82.715C72.7304 82.2887 72.0909 82.6541 72.0909 83.5068Z" fill="url(#paint11_linear_90_679)"/>
<path d="M66.3045 74.3705L66.335 74.34C66.3959 74.3095 66.4872 74.2486 66.5482 74.2182L74.4055 69.6804C75.8673 68.98 77.7859 69.1627 79.9177 70.3809C84.425 73 88.0796 79.3346 88.0796 84.5423C88.0796 84.6337 88.0796 84.725 88.0796 84.8164L80.3746 89.2628L79.2477 88.6232C79.2477 88.5319 79.2477 88.4405 79.2477 88.3491C79.2477 83.8723 76.1109 78.3905 72.2127 76.1673C68.3145 73.9136 65.1777 75.7409 65.1777 80.2177C65.1777 80.3091 65.1777 80.4005 65.1777 80.4918L64.0509 79.8523C64.0509 79.7609 64.0509 79.6696 64.0509 79.5782C64.0509 77.0505 64.9036 75.2841 66.3045 74.3705Z" fill="#18192E"/>
<path d="M79.2477 88.6232C79.2477 88.5318 79.2477 88.4405 79.2477 88.3491C79.2477 83.8723 76.1109 78.3904 72.2127 76.1672C68.3145 73.9136 65.1776 75.7409 65.1776 80.2177C65.1776 80.3091 65.1776 80.4004 65.1776 80.4918L64.0508 79.8523C64.0508 79.7609 64.0508 79.6695 64.0508 79.5782C64.0508 74.3704 67.7054 72.2691 72.2127 74.8577C76.72 77.4768 80.3745 83.8114 80.3745 89.0191C80.3745 89.1105 80.3745 89.2018 80.3745 89.2932L79.2477 88.6232Z" fill="#18192E"/>
<path d="M39.474 62.5844L49.3109 56.8894L50.4072 57.5289L40.5704 63.1935L39.474 62.5844Z" fill="#677274"/>
<path d="M40.5704 63.1935L50.4072 57.5289V62.9499L40.5704 68.6144V63.1935Z" fill="#18192E"/>
<path d="M107.875 106.287L34.327 63.8331L35.8497 62.95L109.398 105.404L107.875 106.287Z" fill="#677274"/>
<path d="M109.398 105.404L35.8497 62.9499V59.3867L109.398 101.84V105.404Z" fill="#18192E"/>
<path d="M30.2767 65.8127L37.4031 61.7013V64.1986L30.2767 68.31V65.8127Z" fill="#18192E"/>
<path d="M32.2562 67.0003L39.3826 62.8889V65.3862L32.2562 69.4976V67.0003Z" fill="#18192E"/>
<path d="M82.0494 95.2623L89.1758 91.1509L90.729 92.0341L83.6026 96.1454L82.0494 95.2623Z" fill="#677274"/>
<path d="M83.6026 96.1454L90.729 92.0341V94.5313L83.6026 98.6427V96.1454Z" fill="#18192E"/>
<path d="M66.3348 86.4305L73.4612 82.3191L75.0144 83.2023L67.888 87.3137L66.3348 86.4305Z" fill="#677274"/>
<path d="M67.888 87.3136L75.0144 83.2023V85.6995L67.888 89.8109V87.3136Z" fill="#18192E"/>
<path d="M49.2498 76.7763L56.3762 72.6649L57.8989 73.5481L50.7725 77.6595L49.2498 76.7763Z" fill="#677274"/>
<path d="M50.7725 77.6595L57.8989 73.5481V76.0454L50.7725 80.1568V77.6595Z" fill="#18192E"/>
<path d="M40.3875 63.1326C40.4789 63.0717 40.6311 63.1022 40.7834 63.1935L49.4021 68.1577C49.7371 68.3404 49.9807 68.7972 49.9807 69.1931V72.939C49.9807 73.1522 49.8893 73.3045 49.7371 73.3349L42.3671 77.5072C42.4584 77.4463 42.5498 77.3245 42.5498 77.1418V73.3959C42.5498 73.0304 42.2757 72.5736 41.9711 72.3604L33.3525 67.3963C33.2002 67.3049 33.0479 67.3049 32.9566 67.3354L40.3875 63.1326Z" fill="url(#paint12_linear_90_679)"/>
<path d="M28.7235 64.9295L35.8499 60.8181L37.4031 61.7013L30.2767 65.8127L28.7235 64.9295Z" fill="#677274"/>
<path d="M97.6423 105.83L24.1248 63.3763L25.6475 62.4626L99.165 104.947L97.6423 105.83Z" fill="#677274"/>
<path d="M97.6423 107.779L24.1248 65.3253V63.3762L97.6423 105.83V107.779Z" fill="#18192E"/>
<path d="M24.8862 65.7517L97.6423 107.779V113.931L62.7109 93.7395L57.9904 93.4045L34.3271 79.7608L33.0176 79.2431L24.8862 74.5226V65.7517Z" fill="#18192E"/>
<path d="M24.8862 65.7517L97.6423 107.779V109.21L24.8862 67.2135V65.7517Z" fill="#18192E"/>
<path d="M110.159 98.5513L36.6416 56.0975L38.1644 55.2144L111.682 97.6681L110.159 98.5513Z" fill="#677274"/>
<path d="M109.398 101.84L35.8497 59.3867L37.4029 58.5035L110.92 100.957L109.398 101.84Z" fill="#677274"/>
<path d="M110.159 100.501L36.6417 58.0468V56.0977L110.159 98.5514V100.501Z" fill="#18192E"/>
<path d="M30.7335 66.1172L37.8598 62.0059L39.3826 62.889L32.2562 67.0004L30.7335 66.1172Z" fill="#677274"/>
<path d="M21.8406 90.2981C21.8406 90.6636 22.1147 90.8158 22.4497 90.6636L29.8501 86.5522C30.1851 86.3695 30.4592 85.9126 30.4592 85.5472V79.6085C30.4592 79.2431 30.1851 79.0908 29.8501 79.2431L22.4497 83.3544C22.1147 83.5372 21.8406 83.994 21.8406 84.3594V90.2981Z" fill="#0E191B"/>
<path d="M33.7178 78.7253L21.4446 85.7908L22.6627 82.1666L29.7891 77.6289L33.7178 78.7253Z" fill="#0E191B"/>
<path d="M24.7643 82.7453L28.693 80.6439C29.8807 79.9739 31.5253 80.0653 33.3525 81.1008C37.0071 83.2021 39.9612 88.3185 39.9612 92.5517C39.9612 94.6835 39.1998 96.1454 38.0121 96.8458L34.0834 98.9472C32.8957 99.6172 31.2512 99.5258 29.4239 98.4599C25.7693 96.3585 22.8152 91.2422 22.8152 87.009C22.8152 84.9381 23.5461 83.4458 24.7643 82.7453Z" fill="#2E373A"/>
<path d="M22.8152 87.0393C22.8152 91.242 25.7693 96.3889 29.4238 98.4903C31.2511 99.5257 32.8652 99.6475 34.0834 98.9775C35.3016 98.3075 36.0325 96.8152 36.0325 94.6834C36.0325 90.4807 33.0784 85.3338 29.4238 83.2325C27.5965 82.197 25.952 82.0752 24.7643 82.7757C23.5461 83.4457 22.8152 84.9379 22.8152 87.0393Z" fill="#555E61"/>
<path d="M23.2112 87.5267C23.2112 91.364 25.8912 96.0236 29.2412 97.9422C32.5608 99.8609 35.2712 98.3077 35.2712 94.4704C35.2712 90.6331 32.5912 85.9736 29.2412 84.0549C25.8912 82.1363 23.2112 83.6895 23.2112 87.5267Z" fill="#3B4447"/>
<path d="M25.1906 88.5621C25.1906 91.1507 26.9874 94.2876 29.241 95.5667C31.4642 96.8458 33.2915 95.8103 33.2915 93.2217C33.2915 90.633 31.4947 87.4962 29.241 86.2171C26.9874 84.938 25.1906 85.9735 25.1906 88.5621Z" fill="url(#paint13_linear_90_679)"/>
<path d="M25.5562 88.7752C25.5562 91.1202 27.2008 93.983 29.2413 95.1402C31.2817 96.328 32.9263 95.3534 32.9263 93.0084C32.9263 90.6634 31.2817 87.8007 29.2413 86.6434C27.2008 85.4861 25.5562 86.4302 25.5562 88.7752Z" fill="url(#paint14_linear_90_679)"/>
<path d="M27.4749 86.1561C27.9926 86.1257 28.6017 86.278 29.2413 86.6434C31.2817 87.8311 32.9263 90.6634 32.9263 93.0084C32.9263 93.7393 32.774 94.3484 32.4694 94.8052C31.9517 94.8357 31.3426 94.6834 30.7031 94.318C28.6626 93.1303 27.0181 90.298 27.0181 87.953C27.0181 87.1916 27.1703 86.5825 27.4749 86.1561Z" fill="url(#paint15_linear_90_679)"/>
<path d="M27.9316 86.1866C28.3275 86.2476 28.7539 86.3998 29.2107 86.6739C31.2512 87.8617 32.8958 90.6939 32.8958 93.0389C32.8958 93.5567 32.8044 94.0135 32.6521 94.4094C32.1039 94.5617 31.4035 94.4399 30.6726 94.0135C28.7844 92.9171 27.2616 90.298 27.2616 88.1357C27.2921 87.2526 27.5357 86.5826 27.9316 86.1866Z" fill="url(#paint16_linear_90_679)"/>
<path d="M32.8958 93.0085C32.8958 93.1912 32.8958 93.374 32.8653 93.5567C32.4998 93.5262 32.0735 93.4044 31.6167 93.1608C29.9721 92.2167 28.6626 89.9021 28.6626 88.0139C28.6626 87.4049 28.8148 86.8871 29.0585 86.5521C29.1194 86.5826 29.1803 86.613 29.2107 86.6435C31.2512 87.8312 32.8958 90.6635 32.8958 93.0085Z" fill="url(#paint17_linear_90_679)"/>
<path d="M29.3326 89.5366C29.3326 90.4198 29.9417 91.4857 30.703 91.9121C31.4644 92.3384 32.0735 92.0034 32.0735 91.1203C32.0735 90.2371 31.4644 89.1712 30.703 88.7448C29.9417 88.288 29.3326 88.6534 29.3326 89.5366Z" fill="url(#paint18_linear_90_679)"/>
<path d="M38.4382 100.927C38.4382 101.292 38.7123 101.444 39.0473 101.292L46.4478 97.1808C46.7828 96.9981 47.0569 96.5413 47.0569 96.1758V90.2372C47.0569 89.8717 46.7828 89.7195 46.4478 89.8717L39.0473 93.9831C38.7123 94.1658 38.4382 94.6226 38.4382 94.9881V100.927Z" fill="#0E191B"/>
<path d="M46.2348 89.3845L50.1634 87.2831C51.3512 86.6131 52.9957 86.7045 54.823 87.7399C58.4775 89.8413 61.4316 94.9577 61.4316 99.1909C61.4316 101.323 60.6703 102.785 59.4825 103.485L55.5539 105.586C54.3662 106.256 52.7216 106.165 50.8943 105.099C47.2398 102.998 44.2857 97.8813 44.2857 93.6481C44.2857 91.5467 45.0166 90.0849 46.2348 89.3845Z" fill="#2E373A"/>
<path d="M44.2856 93.6786C44.2856 97.8813 47.2397 103.028 50.8943 105.13C52.7216 106.165 54.3356 106.287 55.5538 105.617C56.772 104.947 57.5029 103.455 57.5029 101.323C57.5029 97.12 54.5488 92.0036 50.8943 89.8718C49.067 88.8363 47.4224 88.7145 46.2347 89.4149C45.0165 90.0849 44.2856 91.5468 44.2856 93.6786Z" fill="#555E61"/>
<path d="M44.6817 94.1659C44.6817 98.0032 47.3921 102.663 50.7117 104.581C54.0312 106.5 56.7417 104.947 56.7417 101.11C56.7417 97.2723 54.0617 92.6127 50.7117 90.6941C47.3617 88.7754 44.6817 90.3286 44.6817 94.1659Z" fill="#3B4447"/>
<path d="M50.0415 88.1662L37.7987 95.2317L39.0169 91.6076L46.1433 87.0698L50.0415 88.1662Z" fill="#0E191B"/>
<path d="M23.5155 80.4004L23.5459 80.3699C23.6068 80.3394 23.6982 80.2785 23.7591 80.2481L31.6164 75.7103C33.0782 75.0099 34.9969 75.1926 37.1287 76.4108C41.636 79.0299 45.2905 85.3645 45.2905 90.5722C45.2905 90.6636 45.2905 90.7549 45.2905 90.8463L37.5855 95.2927L36.4587 94.6531C36.4587 94.5618 36.4587 94.4704 36.4587 94.379C36.4587 89.9022 33.3219 84.4204 29.4237 82.1972C25.5255 79.9435 22.3886 81.7708 22.3886 86.2477C22.3886 86.339 22.3886 86.4304 22.3886 86.5217L21.2618 85.8822C21.2618 85.7908 21.2618 85.6995 21.2618 85.6081C21.2618 83.0804 22.1145 81.2835 23.5155 80.4004Z" fill="#18192E"/>
<path d="M36.4589 94.6531C36.4589 94.5617 36.4589 94.4704 36.4589 94.379C36.4589 89.9022 33.322 84.4203 29.4239 82.1972C25.5257 79.9435 22.3888 81.7708 22.3888 86.2476C22.3888 86.339 22.3888 86.4304 22.3888 86.5217L21.262 85.8822C21.262 85.7908 21.262 85.6994 21.262 85.6081C21.262 80.4003 24.9166 78.299 29.4239 80.8876C33.9311 83.5067 37.5857 89.8413 37.5857 95.049C37.5857 95.1404 37.5857 95.2317 37.5857 95.3231L36.4589 94.6531Z" fill="#18192E"/>
<path d="M41.0878 92.1862L45.0165 90.0849C46.2042 89.4149 47.8487 89.5062 49.676 90.5417C53.3306 92.643 56.2847 97.7594 56.2847 101.993C56.2847 104.124 55.5233 105.586 54.3356 106.287L50.4069 108.388C49.2192 109.058 47.5746 108.967 45.7474 107.901C42.0928 105.799 39.1387 100.683 39.1387 96.4499C39.1387 94.379 39.9001 92.8867 41.0878 92.1862Z" fill="#2E373A"/>
<path d="M39.1386 96.4802C39.1386 100.683 42.0927 105.799 45.7473 107.931C47.5746 108.967 49.1887 109.088 50.4069 108.418C51.625 107.748 52.356 106.256 52.356 104.124C52.356 99.9216 49.4019 94.7748 45.7473 92.6734C43.92 91.6379 42.2755 91.5161 41.0877 92.2166C39.9 92.8866 39.1386 94.3789 39.1386 96.4802Z" fill="#555E61"/>
<path d="M39.5652 96.9677C39.5652 100.805 42.2757 105.465 45.5952 107.383C48.9148 109.302 51.6252 107.749 51.6252 103.911C51.6252 100.074 48.9452 95.4145 45.5952 93.4958C42.2452 91.5772 39.5652 93.1304 39.5652 96.9677Z" fill="#3B4447"/>
<path d="M41.5141 98.003C41.5141 100.592 43.3109 103.728 45.5645 105.008C47.7877 106.287 49.615 105.251 49.615 102.663C49.615 100.074 47.8182 96.9371 45.5645 95.658C43.3413 94.3789 41.5141 95.4144 41.5141 98.003Z" fill="url(#paint19_linear_90_679)"/>
<path d="M41.91 98.2161C41.91 100.561 43.5546 103.424 45.595 104.581C47.6355 105.769 49.28 104.794 49.28 102.449C49.28 100.104 47.6355 97.2416 45.595 96.0843C43.5546 94.927 41.91 95.8711 41.91 98.2161Z" fill="url(#paint20_linear_90_679)"/>
<path d="M43.8287 95.5971C44.3464 95.5666 44.9555 95.7189 45.595 96.0843C47.6355 97.2721 49.28 100.104 49.28 102.449C49.28 103.18 49.1278 103.789 48.8232 104.246C48.3055 104.277 47.6964 104.124 47.0568 103.759C45.0164 102.571 43.3718 99.7389 43.3718 97.3939C43.3718 96.6325 43.5241 96.0234 43.8287 95.5971Z" fill="url(#paint21_linear_90_679)"/>
<path d="M44.2857 95.6276C44.6816 95.6885 45.1079 95.8407 45.5648 96.1148C47.6052 97.3026 49.2498 100.135 49.2498 102.48C49.2498 102.998 49.1584 103.454 49.0061 103.85C48.4579 104.003 47.7575 103.881 47.0266 103.454C45.1384 102.358 43.6156 99.7389 43.6156 97.5767C43.6461 96.6935 43.8897 96.0235 44.2857 95.6276Z" fill="url(#paint22_linear_90_679)"/>
<path d="M49.2498 102.449C49.2498 102.632 49.2498 102.815 49.2193 102.998C48.8539 102.967 48.4275 102.845 47.9707 102.602C46.3261 101.658 45.0166 99.343 45.0166 97.4549C45.0166 96.8458 45.1688 96.328 45.4125 95.993C45.4734 96.0235 45.5343 96.0539 45.5648 96.0844C47.6052 97.2721 49.2498 100.104 49.2498 102.449Z" fill="url(#paint23_linear_90_679)"/>
<path d="M45.6561 98.9775C45.6561 99.8607 46.2651 100.927 47.0265 101.353C47.7879 101.779 48.397 101.444 48.397 100.561C48.397 99.678 47.7879 98.6121 47.0265 98.1857C46.2956 97.7289 45.6561 98.0944 45.6561 98.9775Z" fill="url(#paint24_linear_90_679)"/>
<path d="M39.8697 89.8413L39.9002 89.8108C39.9611 89.7804 40.0524 89.7195 40.1133 89.689L47.9706 85.1513C49.4325 84.4508 51.3511 84.6335 53.4829 85.8517C57.9902 88.4708 61.6448 94.8054 61.6448 100.013C61.6448 100.104 61.6448 100.196 61.6448 100.287L53.9398 104.734L52.8129 104.094C52.8129 104.003 52.8129 103.911 52.8129 103.82C52.8129 99.3431 49.6761 93.8613 45.7779 91.6381C41.8797 89.3845 38.7429 91.2117 38.7429 95.6886C38.7429 95.7799 38.7429 95.8713 38.7429 95.9627L37.6161 95.3231C37.6161 95.2318 37.6161 95.1404 37.6161 95.049C37.6161 92.5213 38.4688 90.7245 39.8697 89.8413Z" fill="#18192E"/>
<path d="M52.8129 104.094C52.8129 104.003 52.8129 103.911 52.8129 103.82C52.8129 99.3432 49.676 93.8614 45.7778 91.6382C41.8797 89.3845 38.7428 91.2118 38.7428 95.6887C38.7428 95.78 38.7428 95.8714 38.7428 95.9628L37.616 95.3232C37.616 95.2318 37.616 95.1405 37.616 95.0491C37.616 89.8414 41.2706 87.74 45.7778 90.3286C50.2851 92.9477 53.9397 99.2823 53.9397 104.49C53.9397 104.581 53.9397 104.673 53.9397 104.764L52.8129 104.094Z" fill="#18192E"/>
<path d="M17.3334 76.1368L27.1702 70.4418L28.2666 71.0813L18.4298 76.7459L17.3334 76.1368Z" fill="#677274"/>
<path d="M18.3384 76.7459L28.1753 71.0813V76.5022L18.3384 82.1668V76.7459Z" fill="#18192E"/>
<path d="M17.242 81.5576V76.1367L18.3384 76.7458V82.1667L17.242 81.5576Z" fill="#18192E"/>
<path d="M68.4364 96.8764C69.4109 96.2977 71.025 96.2977 71.9996 96.8764C72.4868 97.1505 72.7305 97.5464 72.7305 97.9118V104.46C72.7305 104.825 72.4868 105.221 71.9996 105.495C71.025 106.074 69.4109 106.074 68.4364 105.495C67.9491 105.221 67.7055 104.825 67.7055 104.46V97.9118C67.675 97.5159 67.9186 97.1505 68.4364 96.8764Z" fill="#333E40"/>
<path d="M68.4364 96.8764C67.4618 97.455 67.4618 98.3686 68.4364 98.9473C69.4109 99.5259 71.025 99.5259 71.9996 98.9473C72.9741 98.3686 72.9741 97.455 71.9996 96.8764C71.025 96.2977 69.4109 96.2977 68.4364 96.8764Z" fill="#5A6567"/>
<path d="M72.6085 98.8864C73.583 98.3077 75.1971 98.3077 76.1717 98.8864C76.6589 99.1605 76.9026 99.5564 76.9026 99.9218V106.47C76.9026 106.835 76.6589 107.231 76.1717 107.505C75.1971 108.084 73.583 108.084 72.6085 107.505C72.1212 107.231 71.8776 106.835 71.8776 106.47V99.8914C71.8776 99.5259 72.1212 99.1605 72.6085 98.8864Z" fill="#333E40"/>
<path d="M72.6085 98.8864C71.6339 99.465 71.6339 100.379 72.6085 100.957C73.583 101.536 75.1971 101.536 76.1717 100.957C77.1462 100.379 77.1462 99.465 76.1717 98.8864C75.1971 98.3077 73.583 98.3077 72.6085 98.8864Z" fill="#5A6567"/>
<path d="M71.1467 104.551L78.0294 100.592C78.2122 100.47 78.3949 100.5 78.4862 100.592L92.6781 108.754C92.7999 108.815 92.8608 108.936 92.8608 109.15V115.576C92.8608 115.941 92.5867 116.398 92.2822 116.611L85.3995 120.57C85.2472 120.661 85.0949 120.661 84.9731 120.601L70.7508 112.408C70.7508 112.408 70.7508 112.408 70.7203 112.408C70.629 112.347 70.568 112.225 70.568 112.043V105.617C70.568 105.221 70.8421 104.734 71.1467 104.551Z" fill="url(#paint25_linear_90_679)"/>
<path d="M85.3995 120.54C85.0645 120.722 84.8208 120.57 84.8208 120.205V113.779C84.8208 113.413 85.0949 112.957 85.3995 112.743L92.2822 108.784C92.6172 108.601 92.8608 108.754 92.8608 109.119V115.545C92.8608 115.911 92.5867 116.367 92.2822 116.581L85.3995 120.54Z" fill="#9AA3A9"/>
<path opacity="0.2" d="M73.8266 106.043L80.7094 102.084C80.8921 101.962 81.0748 101.993 81.1662 102.084L81.7144 102.48C81.623 102.419 81.4707 102.419 81.3184 102.51L74.4357 106.47C74.1007 106.652 73.8571 107.109 73.8571 107.505V113.901L74.0398 114.296L73.4307 113.87C73.4307 113.87 73.4307 113.87 73.4002 113.87C73.3089 113.809 73.248 113.687 73.248 113.505V107.079C73.2175 106.683 73.4916 106.226 73.8266 106.043Z" fill="black"/>
<path d="M73.4308 105.8L80.3136 101.84C80.4963 101.719 80.6791 101.749 80.7704 101.84L81.3186 102.236C81.2272 102.175 81.075 102.175 80.9227 102.267L74.0399 106.226C73.7049 106.409 73.4613 106.866 73.4613 107.261V113.687L73.644 114.053L73.0349 113.626C73.0349 113.626 73.0349 113.626 73.0045 113.626C72.9131 113.566 72.8522 113.444 72.8522 113.261V106.835C72.8522 106.439 73.1263 105.982 73.4308 105.8Z" fill="url(#paint26_linear_90_679)"/>
<path opacity="0.2" d="M81.7753 110.611L88.6581 106.652C88.8408 106.531 89.0235 106.561 89.1149 106.652L89.6631 107.048C89.5717 106.987 89.4194 106.987 89.2672 107.079L82.3844 111.038C82.0494 111.221 81.8058 111.677 81.8058 112.073V118.499L81.9885 118.895L81.3794 118.469C81.3794 118.469 81.3794 118.469 81.349 118.469C81.2576 118.408 81.1967 118.286 81.1967 118.103V111.677C81.1967 111.251 81.4708 110.794 81.7753 110.611Z" fill="black"/>
<path d="M81.4099 110.368L88.2926 106.409C88.4753 106.287 88.6581 106.317 88.7494 106.409L89.2976 106.805C89.2062 106.744 89.054 106.744 88.9017 106.835L82.0189 110.794C81.6839 110.977 81.4403 111.434 81.4403 111.83V118.256L81.623 118.621L81.0139 118.195C81.0139 118.195 81.0139 118.195 80.9835 118.195C80.8921 118.134 80.8312 118.012 80.8312 117.829V111.403C80.8312 111.007 81.1053 110.551 81.4099 110.368Z" fill="url(#paint27_linear_90_679)"/>
<path d="M37.616 0L123.985 49.8543V93.4958L87.2875 114.54L0.91814 64.6857V21.0746L37.616 0Z" fill="#E1E8EC"/>
<path opacity="0.1" d="M87.2876 70.807V114.54L0.918233 64.6856V21.0746L87.2876 70.807ZM2.28869 63.5284V63.8938L2.65413 64.107L85.9171 112.195V111.708L2.62369 63.7415V23.6328L2.25823 23.4196V63.5284H2.28869Z" fill="black"/>
<path d="M78.8213 108.418L77.7858 110.764V111.555L76.9027 111.038V110.611L78.0295 107.962L78.8213 108.418Z" fill="#8897A0"/>
<path d="M50.5288 97.2722V96.6631L51.2597 96.2367L82.0798 114.053V115.971L81.5012 116.306L50.7116 98.4903V98.0031L50.8334 97.9117V97.4549L50.5288 97.2722Z" fill="#8897A0"/>
<path opacity="0.2" d="M81.3185 115.088L81.623 114.966V115.728L50.8334 97.9117V97.4548L81.3185 115.088Z" fill="#8897A0"/>
<path opacity="0.5" d="M51.2597 96.2367L82.0798 114.053L81.3185 114.479L50.5288 96.6631L51.2597 96.2367Z" fill="white"/>
<path opacity="0.2" d="M50.7116 98.003L81.5012 115.819L81.623 115.728L50.8334 97.9116L50.7116 98.003Z" fill="white"/>
<path d="M50.5288 100.774V100.135L51.2597 99.7085L82.0798 117.524V119.443L81.5012 119.809L50.7116 101.993V101.475L50.8334 101.414V100.927L50.5288 100.774Z" fill="#8897A0"/>
<path opacity="0.2" d="M81.3185 118.59L81.623 118.438V119.23L50.8334 101.414V100.927L81.3185 118.59Z" fill="#8897A0"/>
<path opacity="0.5" d="M51.2597 99.7085L82.0798 117.524L81.3185 117.951L50.5288 100.135L51.2597 99.7085Z" fill="white"/>
<path opacity="0.2" d="M50.7116 101.475L81.5012 119.291L81.623 119.23L50.8334 101.414L50.7116 101.475Z" fill="white"/>
<path d="M57.1375 95.8712L56.102 98.2163V99.0081L55.2188 98.4903V98.064L56.3456 95.4144L57.1375 95.8712Z" fill="#8897A0"/>
<path opacity="0.5" d="M57.1375 95.8713L56.102 98.2163V99.0081L55.6452 98.7644V98.2163L56.7415 95.6581L57.1375 95.8713Z" fill="#8897A0"/>
<path opacity="0.5" d="M78.8213 108.419L77.7858 110.764V111.555L77.329 111.312V110.764L78.4254 108.205L78.8213 108.419Z" fill="#8897A0"/>
<path opacity="0.1" d="M2.28855 23.4197L85.917 71.5989V112.195L85.6124 112.012V71.7816L2.28855 23.6633V23.4197Z" fill="black"/>
<path opacity="0.2" d="M122.615 52.1992V92.7039L122.28 92.4907V52.8083L88.9931 71.812L88.6581 71.5988L122.615 52.1992Z" fill="black"/>
<path opacity="0.2" d="M87.2875 70.807L123.985 49.8542V93.4958L87.318 114.57L87.2875 70.807ZM122.615 92.7039L122.28 92.5212L88.993 111.647V71.8425L88.658 71.6598V112.256L122.615 92.7039Z" fill="black"/>
<path d="M109.124 137.015L111.499 135.645L116.676 138.66L114.331 140L109.124 137.015Z" fill="#404B4D"/>
<path d="M109.124 136.62V137.015L114.331 140V139.604L109.124 136.62Z" fill="#273234"/>
<path d="M90.0895 125.534L90.6681 126.509L92.8608 125.534L106.565 130.742L106.078 121.148L97.764 117.281L91.1554 118.073L90.0895 125.534Z" fill="#0E191B"/>
<path d="M91.3989 129.554C91.3989 129.92 91.673 130.072 92.008 129.92L99.4085 125.808C99.7435 125.625 100.018 125.169 100.018 124.803V112.774C100.018 112.408 99.7435 112.256 99.4085 112.408L92.008 116.519C91.673 116.702 91.3989 117.159 91.3989 117.524V129.554Z" fill="#0E191B"/>
<path d="M94.4445 122.641L98.0381 120.509C99.2563 119.809 100.901 119.93 102.728 120.996C106.413 123.128 109.398 128.275 109.398 132.539C109.398 134.67 108.636 136.163 107.418 136.863L103.825 138.995C102.606 139.665 100.962 139.574 99.1345 138.508C95.4495 136.376 92.4649 131.229 92.4649 126.965C92.4649 124.834 93.2263 123.341 94.4445 122.641Z" fill="#2E373A"/>
<path d="M92.4648 126.965C92.4648 131.199 95.4494 136.376 99.1344 138.508C100.962 139.574 102.606 139.665 103.824 138.995C105.043 138.295 105.804 136.802 105.804 134.67C105.804 130.437 102.819 125.26 99.1344 123.128C97.3071 122.062 95.6321 121.971 94.4444 122.641C93.2262 123.341 92.4648 124.834 92.4648 126.965Z" fill="#555E61"/>
<path d="M92.8607 127.453C92.8607 131.32 95.5712 136.041 98.9212 137.96C102.271 139.909 104.982 138.325 104.982 134.457C104.982 130.59 102.271 125.869 98.9212 123.95C95.6017 122.032 92.8607 123.585 92.8607 127.453Z" fill="#3B4447"/>
<path d="M94.8098 128.336C94.8098 130.985 96.6676 134.183 98.9517 135.523C101.236 136.833 103.094 135.767 103.094 133.117C103.094 130.468 101.236 127.27 98.9517 125.93C96.6371 124.62 94.8098 125.686 94.8098 128.336Z" fill="url(#paint28_linear_90_679)"/>
<path d="M95.6322 128.488C95.6322 130.742 97.2158 133.513 99.1954 134.64C101.144 135.767 102.759 134.853 102.759 132.599C102.759 130.315 101.175 127.574 99.1954 126.448C97.2158 125.321 95.6322 126.234 95.6322 128.488Z" fill="url(#paint29_linear_90_679)"/>
<path d="M98.9516 126.265C99.1648 126.387 99.3475 126.509 99.5302 126.661C99.4084 126.569 99.3171 126.509 99.1952 126.448C97.2157 125.321 95.632 126.234 95.632 128.488C95.632 130.742 97.2157 133.513 99.1952 134.64C101.144 135.767 102.758 134.853 102.758 132.599C102.758 132.325 102.728 132.051 102.698 131.777C102.789 132.173 102.819 132.569 102.819 132.965C102.819 135.432 101.083 136.437 98.9516 135.188C96.8198 133.97 95.0839 130.955 95.0839 128.488C95.0839 126.021 96.7893 125.047 98.9516 126.265Z" fill="url(#paint30_linear_90_679)"/>
<path d="M95.8453 128.61C95.8453 130.772 97.368 133.422 99.2257 134.488C101.114 135.584 102.606 134.701 102.606 132.539C102.606 130.376 101.083 127.727 99.2257 126.661C97.368 125.564 95.8453 126.417 95.8453 128.61Z" fill="url(#paint31_linear_90_679)"/>
<path d="M96.4849 129.676C96.4849 131.168 97.5204 132.965 98.7995 133.696C100.079 134.427 101.114 133.848 101.114 132.356C101.114 130.864 100.079 129.067 98.7995 128.336C97.5508 127.605 96.4849 128.214 96.4849 129.676Z" fill="url(#paint32_linear_90_679)"/>
<path d="M98.9518 127.544C98.8909 127.818 98.9823 128.062 99.165 128.123C99.3477 128.153 99.5609 127.97 99.6218 127.696C99.6827 127.422 99.5914 127.179 99.4087 127.118C99.2259 127.087 99.0127 127.27 98.9518 127.544Z" fill="url(#paint33_linear_90_679)"/>
<path d="M101.845 131.32C101.571 131.351 101.358 131.534 101.388 131.716C101.419 131.899 101.662 132.021 101.936 131.99C102.21 131.96 102.424 131.777 102.393 131.595C102.363 131.412 102.119 131.29 101.845 131.32Z" fill="url(#paint34_linear_90_679)"/>
<path d="M101.723 133.483C101.48 133.361 101.205 133.361 101.145 133.483C101.084 133.605 101.236 133.787 101.51 133.909C101.754 134.031 102.028 134.031 102.089 133.909C102.119 133.818 101.967 133.605 101.723 133.483Z" fill="url(#paint35_linear_90_679)"/>
<path d="M100.474 134.366C100.383 134.183 100.2 134.092 100.109 134.153C100.018 134.214 100.018 134.396 100.139 134.579C100.231 134.762 100.414 134.853 100.505 134.792C100.566 134.731 100.566 134.549 100.474 134.366Z" fill="url(#paint36_linear_90_679)"/>
<path d="M100.627 129.036C100.383 129.189 100.292 129.463 100.414 129.615C100.535 129.798 100.81 129.798 101.053 129.645C101.297 129.493 101.388 129.219 101.266 129.067C101.145 128.884 100.87 128.884 100.627 129.036Z" fill="url(#paint37_linear_90_679)"/>
<path d="M97.1853 127.118C97.1853 127.392 97.3375 127.635 97.4898 127.605C97.6421 127.605 97.7639 127.361 97.7639 127.087C97.7639 126.813 97.6116 126.57 97.4594 126.6C97.2766 126.6 97.1548 126.844 97.1853 127.118Z" fill="url(#paint38_linear_90_679)"/>
<path d="M96.1498 128.732C96.3021 128.823 96.4848 128.854 96.5458 128.732C96.6067 128.64 96.5458 128.458 96.3935 128.366C96.2412 128.275 96.0585 128.245 95.9976 128.366C95.9062 128.488 95.9976 128.64 96.1498 128.732Z" fill="url(#paint39_linear_90_679)"/>
<path d="M96.424 130.65C96.4849 130.65 96.5154 130.529 96.5154 130.437C96.4849 130.346 96.424 130.255 96.3631 130.285C96.3022 130.285 96.2717 130.407 96.2717 130.498C96.2717 130.59 96.3631 130.65 96.424 130.65Z" fill="url(#paint40_linear_90_679)"/>
<path d="M98.6168 134.031C98.6777 134.061 98.7386 134.001 98.7691 133.909C98.7995 133.818 98.7691 133.757 98.7081 133.726C98.6472 133.696 98.5863 133.757 98.5559 133.848C98.5254 133.909 98.5559 134.001 98.6168 134.031Z" fill="url(#paint41_linear_90_679)"/>
<path d="M97.0635 132.234C97.094 132.295 97.1549 132.295 97.2158 132.264C97.2463 132.234 97.2767 132.173 97.2158 132.112C97.1854 132.051 97.1244 132.051 97.0635 132.082C97.0331 132.112 97.0331 132.204 97.0635 132.234Z" fill="url(#paint42_linear_90_679)"/>
<path d="M97.3072 130.437C97.3072 131.32 97.9163 132.356 98.6776 132.813C99.439 133.239 100.048 132.904 100.048 132.021C100.048 131.138 99.439 130.102 98.6776 129.645C97.9163 129.219 97.3072 129.554 97.3072 130.437Z" fill="url(#paint43_linear_90_679)"/>
<path d="M97.155 130.559C97.155 131.412 97.764 132.447 98.495 132.843C99.2259 133.269 99.835 132.934 99.835 132.082C99.835 131.229 99.2259 130.194 98.495 129.798C97.764 129.371 97.155 129.706 97.155 130.559Z" fill="url(#paint44_linear_90_679)"/>
<path d="M114.331 140L116.676 138.66V134.031L114.971 135.005L114.331 139.604V140Z" fill="#2E373A"/>
<path d="M109.124 137.015L111.499 135.645V131.016L109.794 132.021L109.124 136.62V137.015Z" fill="#2E373A"/>
<path d="M143.69 93.9525C143.69 94.318 143.964 94.4703 144.268 94.2875L146.583 92.9475C146.918 92.7648 147.161 92.308 147.161 91.9121V82.3493C147.161 81.9839 146.887 81.8316 146.583 82.0143L144.268 83.3543C143.933 83.5371 143.69 83.9939 143.69 84.3898V93.9525Z" fill="#5A6567"/>
<path d="M143.994 94.1962C143.994 94.5616 144.268 94.7139 144.573 94.5312L146.918 93.1912C147.253 93.0085 147.496 92.5516 147.496 92.1557V82.593C147.496 82.2275 147.222 82.0752 146.918 82.258L144.603 83.598C144.268 83.7807 144.025 84.2375 144.025 84.6334L143.994 94.1962Z" fill="#404B4D"/>
<path d="M88.993 125.778C88.993 125.778 89.2366 119.595 89.3584 118.59C89.4803 117.555 89.6325 116.824 89.8457 116.672C90.0589 116.55 92.1603 115.332 92.1603 115.332L92.4344 114.631L90.0894 113.109L91.4294 111.373L92.2516 110.55V108.419L91.7948 108.175C91.7948 108.175 92.7998 92.3385 92.9521 90.298C93.1044 88.2576 94.1398 85.6994 95.1144 84.8467C96.0889 83.9939 103.368 79.5171 107.875 76.7153C112.413 73.9134 120.057 69.6802 121.701 68.8275C123.346 67.9748 123.711 68.3707 124.381 68.8275C125.051 69.2843 142.258 80.3394 142.928 81.1007C143.141 81.3444 143.415 81.7098 143.659 82.1971C143.75 82.0144 143.842 81.8012 143.903 81.4967C143.903 81.4967 145.212 81.588 146.065 82.2885C146.065 82.2885 146.248 85.1512 146.156 85.943C146.095 86.4912 146.004 87.1308 145.365 87.8617C145.943 91.4858 146.857 98.5817 146.857 98.5817L147.04 103.241C147.892 103.668 148.41 105.221 148.471 105.647C148.532 106.043 148.745 108.54 148.471 109.759C148.197 111.007 146.491 112.317 146.491 112.317C147.435 112.591 147.222 114.966 147.344 116.611C147.466 118.225 147.435 120.083 146.339 121.179C145.243 122.275 141.466 125.138 141.466 125.138C141.862 126.143 140.766 127.026 140.766 127.026C140.766 127.026 127.549 134.975 127.183 134.975C126.818 134.975 125.356 134.518 125.356 134.518C125.356 134.518 121.123 136.741 119.021 137.411C116.92 138.081 115.032 136.924 115.032 136.924V135.34L111.164 133.33V132.813L109.093 131.655L107.966 132.325L106.261 131.412C106.261 131.412 105.134 126.722 104.129 123.859C103.124 121.027 101.236 119.26 99.6521 118.194C98.0685 117.129 95.2971 115.575 95.023 115.514C94.7489 115.454 94.4444 115.332 93.8962 115.301L92.7085 117.555L92.0385 118.225C92.0385 118.225 91.2466 119.839 90.9421 122.367C90.6071 124.895 90.7289 126.478 90.7289 126.478L88.993 125.778Z" fill="#282DAD"/>
<path opacity="0.15" d="M92.9522 90.298C93.0435 88.8666 93.5917 87.1916 94.2313 86.0039L115.61 98.734C115.61 98.734 115.732 101.444 116.737 102.967C117.773 104.49 121.245 102.663 122.98 101.688C123.194 101.566 123.559 101.353 124.077 101.048L138.573 98.9167L146.735 97.4853C146.826 98.1249 146.857 98.5208 146.857 98.5208L147.04 103.241C147.04 103.241 147.04 104.734 147.04 104.977C147.04 105.221 146.065 106.622 145.913 106.774C146.491 106.591 147.831 106.53 148.166 106.561C148.288 106.561 148.41 106.226 148.501 105.799C148.562 106.469 148.745 108.632 148.471 109.759C148.197 111.007 146.491 112.317 146.491 112.317C146.491 112.317 146.096 113.596 143.933 115.24C144.055 114.753 144.146 114.418 144.146 114.418C143.933 114.723 143.69 115.027 143.385 115.24C141.954 116.337 136.259 119.778 134.127 121.118C131.995 122.458 125.843 125.991 125.051 126.387C124.808 126.509 124.564 126.63 124.32 126.691L122.554 127.849C122.585 127.879 122.585 127.909 122.615 127.909C122.615 127.909 121.245 128.823 118.443 129.371C117.529 129.554 116.524 129.28 115.519 128.914L115.062 130.468C115.062 130.468 116.463 131.016 117.499 131.016C118.747 131.016 122.31 129.767 124.777 128.488C125.904 128.244 127.061 127.514 127.579 127.239C128.462 126.752 137.995 120.996 139.365 120.204C140.644 119.443 142.045 118.499 142.806 117.799C142.806 117.799 144.451 116.702 145.669 115.545C146.613 114.662 147.131 114.053 147.222 113.474C147.253 113.718 147.283 114.022 147.314 114.296C147.101 114.479 146.918 114.662 146.918 114.662L146.065 117.189L143.659 119.9C143.659 119.9 142.989 120.539 142.959 120.753C142.928 120.996 142.776 121.697 143.081 121.636C143.385 121.575 145.03 120.022 145.882 119.291C146.735 118.529 147.161 118.103 147.405 117.129C147.466 118.621 147.344 120.204 146.37 121.179C145.273 122.275 141.497 125.138 141.497 125.138C141.893 126.143 140.796 127.026 140.796 127.026C140.796 127.026 127.579 134.975 127.214 134.975C126.848 134.975 125.386 134.518 125.386 134.518C125.386 134.518 121.153 136.741 119.052 137.411C116.95 138.081 115.062 136.924 115.062 136.924V135.34L111.195 133.33V132.813L109.124 131.655L108.484 131.29V130.315L115.062 133.818V131.686L110.372 129.158C110.007 126.965 109.306 124.255 109.306 124.255L105.408 121.971C105.104 121.484 103.55 118.864 103.55 118.864L114.301 124.834V123.128L92.3126 110.581V108.419L91.8558 108.175C91.7949 108.175 92.7999 92.3385 92.9522 90.298ZM124.381 124.346C124.747 124.864 125.63 124.955 126.239 124.712C126.879 124.438 132.36 121.027 133.944 120.113C135.528 119.199 140.248 116.459 141.436 115.728C142.654 114.966 143.355 113.048 143.355 113.048L143.111 112.469C142.502 112.895 141.832 113.352 141.253 113.687C139.67 114.601 127.153 122.184 124.99 123.311C124.747 123.433 124.534 123.554 124.32 123.646C124.29 123.95 124.26 124.224 124.381 124.346ZM123.346 121.727C123.346 121.727 124.412 122.732 125.478 122.154C126.544 121.575 142.106 112.134 142.35 112.012C142.593 111.89 144.146 110.215 144.146 109.21C144.146 108.997 144.025 108.814 143.842 108.662C142.898 109.332 141.923 109.972 141.497 110.246C140.705 110.733 129.802 117.403 126.665 119.169C125.143 120.022 123.742 120.722 122.737 121.209L123.346 121.727ZM143.476 123.128C144.177 122.58 146.826 120.814 147.04 119.626C147.161 118.895 147.192 118.469 147.222 118.255L147.131 118.286C147.04 118.469 146.857 118.743 146.552 119.047C146.522 119.443 146.37 120.022 145.882 120.509C145.182 121.209 143.446 122.884 142.959 123.341C143.05 123.402 143.202 123.341 143.476 123.128ZM125.478 130.133C125.569 130.468 125.752 131.138 125.965 131.716C126.117 132.143 126.3 132.539 126.452 132.752C126.848 133.239 127.396 132.965 128.401 132.447C129.406 131.93 138.512 126.387 139.335 125.869C140.157 125.351 140.796 125.199 141.223 124.072C141.406 123.646 141.558 122.976 141.649 122.306L141.192 122.61L125.935 131.716L126.087 131.625C125.904 131.077 125.752 130.529 125.691 130.224C125.539 129.645 125.813 129.432 126.665 128.975C127.488 128.519 134.401 124.346 136.015 123.402C137.629 122.428 141.527 120.022 141.527 120.022C141.71 119.93 141.893 119.809 142.045 119.748C142.015 119.474 141.649 119.778 141.314 119.93C141.314 119.93 137.416 122.336 135.802 123.311C134.188 124.285 127.275 128.427 126.452 128.884C125.6 129.341 125.325 129.554 125.478 130.133ZM119.844 136.65C120.483 136.498 123.163 135.219 123.772 134.945C124.107 134.792 124.381 134.701 124.534 134.488C124.381 134.579 124.199 134.64 123.955 134.731C122.585 135.219 119.844 136.163 118.717 136.315C118.9 136.62 119.326 136.772 119.844 136.65ZM118.534 135.097C119.356 134.914 121.732 134.031 123.011 133.452C124.29 132.874 124.625 132.752 124.655 132.356C124.686 131.96 124.107 130.985 124.107 130.985L122.524 131.838L119.448 133.056C119.448 133.056 117.225 134.427 117.285 134.67C117.377 134.914 117.712 135.28 118.534 135.097ZM119.509 123.737C119.509 123.554 119.752 123.189 120.057 122.793C120.392 122.397 120.91 121.758 120.91 121.758C120.91 121.758 118.717 122.367 117.681 122.367C116.646 122.367 115.001 121.758 115.001 121.758C115.001 121.758 114.331 122.428 114.301 122.58C114.27 122.641 114.27 122.702 114.27 122.793C116.494 124.133 119.509 123.737 119.509 123.737ZM97.3681 104.581C98.1904 105.19 117.59 116.976 117.59 116.976L117.255 115.636C117.255 115.636 100.444 105.099 98.4036 103.759C96.3631 102.419 96.2413 100.896 96.2413 100.896L96.7895 90.4807L95.9063 89.9326C95.9063 89.9326 95.2667 97.3939 94.9926 99.9521C94.7186 102.541 96.5154 104.003 97.3681 104.581Z" fill="black"/>
<path opacity="0.15" d="M88.993 125.778C88.993 125.778 89.2366 119.595 89.3584 118.59C89.4498 117.799 89.5716 117.159 89.7239 116.854C90.3939 117.311 91.9775 118.286 91.9775 118.286C91.8557 118.529 91.1857 120.083 90.8812 122.397C90.5462 124.925 90.668 126.509 90.668 126.509L88.993 125.778Z" fill="black"/>
<path opacity="0.15" d="M91.4294 116.611L92.1603 115.362L92.4344 114.662L90.0894 113.139L91.4294 111.403L91.3076 111.555C91.3076 111.555 99.1649 116.154 100.657 117.189C102.18 118.194 103.916 120.113 105.499 123.25C107.083 126.387 107.936 132.356 107.936 132.356L106.23 131.442C106.23 131.442 105.104 126.752 104.099 123.889C103.094 121.057 101.205 119.291 99.6217 118.225C98.038 117.159 95.2667 115.606 94.9926 115.545C94.7185 115.484 94.4139 115.362 93.8657 115.332L92.678 117.585C92.678 117.585 91.9776 117.098 91.5816 116.915C91.2162 116.794 91.4294 116.611 91.4294 116.611Z" fill="black"/>
<path opacity="0.3" d="M103.52 118.864C103.52 118.864 105.073 121.483 105.378 121.971L109.276 124.255C109.276 124.255 109.976 126.965 110.342 129.158L108.454 130.315V131.29L109.093 131.655L107.966 132.325C107.966 132.325 107.144 126.356 105.53 123.219C103.946 120.083 102.21 118.164 100.688 117.159L103.52 118.864Z" fill="url(#paint45_linear_90_679)"/>
<path opacity="0.3" d="M94.9927 100.013C95.2668 97.4548 95.9064 89.9934 95.9064 89.9934L96.7896 90.5416L96.2414 100.957C96.2414 100.957 96.3327 102.48 98.4037 103.82C100.444 105.16 117.255 115.697 117.255 115.697L117.59 117.037C117.59 117.037 98.2209 105.221 97.3682 104.642C96.5155 104.003 94.7187 102.541 94.9927 100.013Z" fill="url(#paint46_linear_90_679)"/>
<path opacity="0.2" d="M119.509 123.737C119.509 123.737 119.57 124.072 119.722 124.468C119.905 124.864 120.331 125.747 120.575 126.173C120.818 126.539 121.123 126.996 122.036 126.783C121.854 126.904 121.64 127.057 121.397 127.209C120.483 127.818 118.351 128.275 116.95 128.153C115.55 128.031 114.21 127.3 114.21 127.3V124.803V123.098C114.21 123.098 114.21 122.945 114.21 122.823C116.494 124.133 119.509 123.737 119.509 123.737Z" fill="url(#paint47_linear_90_679)"/>
<path opacity="0.3" d="M120.94 122.093C120.94 122.093 119.965 123.219 119.813 123.402C119.691 123.585 119.691 123.829 119.813 124.164C119.935 124.529 120.727 126.113 120.94 126.295C121.153 126.478 121.64 126.752 122.463 126.021C122.463 126.021 121.701 124.346 121.397 123.615C121.092 122.915 120.94 122.093 120.94 122.093Z" fill="url(#paint48_linear_90_679)"/>
<path opacity="0.15" d="M120.057 122.793C120.392 122.397 120.91 121.758 120.91 121.758L121.031 121.971L121.214 122.58C121.397 123.219 122.067 124.712 122.067 124.712C122.158 124.925 122.25 125.138 122.341 125.29C122.341 125.29 122.493 125.656 122.767 126.052C122.767 126.082 122.737 126.143 122.706 126.173C122.706 126.173 122.706 126.204 122.676 126.204C122.646 126.234 122.646 126.265 122.615 126.295L122.585 126.326C122.554 126.356 122.524 126.387 122.524 126.417C122.493 126.448 122.493 126.448 122.463 126.478C122.432 126.508 122.432 126.508 122.402 126.539C122.341 126.569 122.311 126.63 122.25 126.661C122.25 126.661 122.25 126.661 122.219 126.691C122.189 126.722 122.128 126.752 122.097 126.783C121.184 126.965 120.879 126.539 120.636 126.173C120.361 125.778 119.935 124.894 119.783 124.468C119.6 124.072 119.57 123.737 119.57 123.737C119.509 123.554 119.752 123.189 120.057 122.793ZM119.844 124.194C119.966 124.559 120.757 126.143 120.971 126.326C121.184 126.508 121.671 126.783 122.493 126.052C122.493 126.052 121.732 124.377 121.427 123.646C121.123 122.915 120.971 122.123 120.971 122.123C120.971 122.123 119.996 123.25 119.844 123.433C119.691 123.585 119.691 123.828 119.844 124.194Z" fill="black"/>
<path opacity="0.3" d="M115.001 130.437L115.458 128.884C116.463 129.249 117.468 129.524 118.382 129.341C121.184 128.793 122.554 127.879 122.554 127.879C123.102 128.549 123.894 128.64 124.686 128.458C122.219 129.737 118.626 130.985 117.407 130.985C116.402 130.985 115.001 130.437 115.001 130.437Z" fill="url(#paint49_linear_90_679)"/>
<path opacity="0.3" d="M114.27 126.935V127.3C114.27 127.3 114.788 127.574 115.519 127.818L115.489 128.884L115.032 130.437V131.686L110.342 129.158C109.976 126.965 109.276 124.255 109.276 124.255L114.27 126.935Z" fill="url(#paint50_linear_90_679)"/>
<path opacity="0.3" d="M123.925 134.731C122.554 135.219 119.813 136.163 118.686 136.315C118.626 136.224 118.595 136.132 118.565 136.041C118.473 135.554 119.052 135.279 120.331 134.853C120.971 134.64 122.95 133.757 123.711 133.452C124.442 133.148 124.503 133.452 124.564 133.604C124.716 134.061 124.686 134.305 124.534 134.488C124.381 134.549 124.199 134.64 123.925 134.731Z" fill="url(#paint51_linear_90_679)"/>
<path opacity="0.4" d="M142.989 123.372C143.477 122.915 145.182 121.21 145.913 120.54C146.4 120.052 146.552 119.474 146.583 119.078C146.887 118.773 147.07 118.499 147.162 118.316L147.253 118.286C147.253 118.499 147.192 118.925 147.07 119.656C146.857 120.844 144.238 122.61 143.507 123.159C143.202 123.341 143.05 123.402 142.989 123.372Z" fill="url(#paint52_linear_90_679)"/>
<path opacity="0.4" d="M145.822 119.291C144.969 120.052 143.324 121.575 143.02 121.636C142.715 121.697 142.867 120.996 142.898 120.753C142.928 120.509 143.598 119.9 143.598 119.9L146.004 117.189L146.857 114.662C146.857 114.662 147.04 114.479 147.253 114.296C147.314 115.058 147.283 115.91 147.344 116.611C147.344 116.794 147.375 116.976 147.375 117.159C147.131 118.073 146.705 118.499 145.822 119.291Z" fill="url(#paint53_linear_90_679)"/>
<g opacity="0.3">
<path d="M145.882 120.54C145.182 121.24 143.446 122.915 142.959 123.372C142.837 123.341 142.867 123.128 142.867 123.128C142.867 123.128 142.807 122.184 143.324 121.819C143.842 121.484 145.791 119.717 146.4 119.2C146.461 119.139 146.492 119.108 146.552 119.047C146.522 119.474 146.37 120.052 145.882 120.54Z" fill="url(#paint54_linear_90_679)"/>
<path d="M147.131 118.316C147.192 118.194 147.222 118.134 147.222 118.134C147.222 118.134 147.222 118.194 147.222 118.286L147.131 118.316Z" fill="url(#paint55_linear_90_679)"/>
</g>
<path opacity="0.15" d="M115.001 121.636L92.2821 108.571V108.418L115.001 121.514V121.636Z" fill="black"/>
<path opacity="0.15" d="M148.227 107.109C148.258 106.622 148.197 106.53 148.197 106.53C148.319 106.469 148.41 106.165 148.471 105.769C148.532 106.439 148.715 108.601 148.44 109.728C148.166 110.977 146.461 112.286 146.461 112.286C146.4 112.317 146.339 112.347 146.309 112.378C147.192 111.494 147.496 110.672 147.679 109.972C147.923 109.241 148.197 107.596 148.227 107.109Z" fill="black"/>
<path opacity="0.3" d="M148.014 106.926C148.014 106.926 148.106 106.713 147.74 106.713C147.405 106.713 146.339 106.835 146.187 106.865C146.035 106.896 146.004 107.079 145.943 107.261C145.882 107.444 145.791 108.023 145.73 108.419C145.669 108.815 145.152 112.53 145.152 112.53C145.152 112.53 145.974 112.225 146.583 111.616C147.222 111.007 147.527 110.002 147.74 108.936C147.923 107.87 147.984 107.261 148.014 106.926Z" fill="url(#paint56_linear_90_679)"/>
<path opacity="0.2" d="M147.161 113.444C147.07 114.053 146.552 114.631 145.608 115.515C144.36 116.672 142.745 117.768 142.745 117.768C142.776 117.738 142.837 117.707 142.867 117.646C143.324 117.19 143.72 116.002 143.933 115.18C146.126 113.565 146.491 112.256 146.491 112.256C146.857 112.408 147.04 112.865 147.161 113.444Z" fill="url(#paint57_linear_90_679)"/>
<g opacity="0.15">
<path d="M114.545 102.663C114.575 102.784 114.575 102.906 114.575 103.059C114.605 102.937 114.575 102.815 114.545 102.663Z" fill="black"/>
<path d="M93.4699 87.8312L113.052 99.678C113.052 99.678 114.27 100.531 114.575 102.693C114.331 101.201 113.052 100.378 113.052 100.378L93.3176 88.4403C93.3481 88.1966 93.409 88.0139 93.4699 87.8312Z" fill="black"/>
</g>
<path d="M141.04 126.113C140.888 125.96 140.705 125.625 140.187 125.96C139.67 126.295 129.772 132.204 129.406 132.417C129.071 132.63 128.462 133.269 128.188 133.696C127.884 134.153 127.396 134.549 127.061 134.488C126.696 134.427 126.27 134.153 126.27 134.153L127.518 133.513C127.518 133.513 128.006 132.904 128.462 132.417C129.741 131.716 138.512 126.387 139.335 125.869C139.913 125.504 140.37 125.321 140.736 124.894C141.131 124.864 141.436 125.138 141.436 125.138C141.558 125.443 141.527 125.747 141.436 126.021C141.284 126.113 141.101 126.204 141.04 126.113Z" fill="#2E383B"/>
<path opacity="0.15" d="M119.478 99.739C123.894 97.6985 139.852 87.7398 142.137 86.0344C143.964 84.6639 145.182 84.1766 146.065 82.2885C146.065 82.2885 146.248 85.1512 146.157 85.943C146.096 86.4912 146.004 87.1307 145.365 87.8616C145.365 87.8616 144.238 88.7753 140.705 90.968C137.172 93.1608 124.716 100.774 122.981 101.719C121.275 102.693 117.773 104.52 116.737 102.998C116.189 102.145 115.885 100.957 115.732 100.044C116.555 100.348 117.834 100.5 119.478 99.739Z" fill="black"/>
<path opacity="0.1" d="M141.314 79.9435C142.228 80.5526 142.806 80.9789 142.928 81.1008C143.141 81.3444 143.416 81.7098 143.659 82.1971C143.324 83.2935 139.061 86.0344 137.781 86.9785L124.838 94.8358C123.407 95.6276 121.336 96.9676 118.778 97.9117C116.22 98.8558 115.61 98.7644 115.61 98.7644L112.23 96.7544L141.314 79.9435Z" fill="url(#paint58_linear_90_679)"/>
<path opacity="0.2" d="M120.331 69.5889L137.325 80.4612C137.264 80.4916 137.233 80.5221 137.172 80.5525L120.179 69.6802C120.24 69.6498 120.27 69.6193 120.331 69.5889Z" fill="white"/>
<path opacity="0.15" d="M119.539 70.0153L136.563 80.918C136.502 80.9485 136.441 80.9789 136.411 81.0094L119.387 70.1066C119.448 70.0762 119.478 70.0457 119.539 70.0153Z" fill="black"/>
<path opacity="0.15" d="M116.128 71.9338L133.274 82.8975C133.213 82.928 133.152 82.9584 133.122 82.9889L115.945 71.9947C116.037 71.9947 116.098 71.9643 116.128 71.9338Z" fill="black"/>
<path opacity="0.2" d="M133.883 82.5321L116.737 71.5684C116.798 71.538 116.829 71.5075 116.889 71.4771L134.035 82.4407C134.005 82.4712 133.944 82.5016 133.883 82.5321Z" fill="white"/>
<path opacity="0.2" d="M99.439 81.9839L116.92 92.4907C116.859 92.5212 116.829 92.5516 116.768 92.5821L99.3171 82.0752C99.3476 82.0448 99.4085 82.0143 99.439 81.9839Z" fill="white"/>
<path opacity="0.15" d="M116.006 93.0389L98.5559 82.532C98.6168 82.5016 98.6473 82.4711 98.7082 82.4407L116.159 92.9475C116.128 92.978 116.067 93.0084 116.006 93.0389Z" fill="black"/>
<path opacity="0.2" d="M102.85 79.8521L120.361 90.3894C120.3 90.4198 120.27 90.4503 120.209 90.4807L102.698 79.9434C102.728 79.913 102.789 79.8825 102.85 79.8521Z" fill="white"/>
<path opacity="0.15" d="M119.448 90.9376L101.997 80.4307C102.058 80.4003 102.089 80.3698 102.15 80.3394L119.6 90.8462C119.57 90.8767 119.509 90.9071 119.448 90.9376Z" fill="black"/>
<g opacity="0.4">
<path d="M114.94 121.788H115.062L114.819 115.301L115.306 114.449V114.418C115.306 114.296 113.783 102.602 113.722 102.084C113.692 101.505 113.296 100.561 112.93 100.074L112.839 100.135C113.205 100.622 113.57 101.536 113.631 102.084C113.661 102.602 115.093 113.687 115.184 114.418L114.697 115.271V115.301L114.94 121.788Z" fill="black"/>
</g>
<g opacity="0.4">
<path d="M119.788 116.96L120.965 121.751L120.847 121.78L119.669 116.989L119.788 116.96Z" fill="black"/>
</g>
<g opacity="0.4">
<path d="M145.852 107.2L146.126 101.262H146.035L145.73 107.17L145.852 107.2Z" fill="black"/>
</g>
<g opacity="0.3">
<path d="M111.286 98.5817L111.712 96.3889C111.712 96.3889 112.047 95.6885 112.687 95.2926C112.809 95.2012 113.235 94.9271 113.874 94.5312C116.524 92.8257 122.98 89.0189 127.031 86.6739C132.056 83.7807 138.665 79.8216 138.725 79.7607C138.725 79.7607 139.761 79.2125 140.096 79.1516L140.065 79.0298C139.7 79.0907 138.695 79.6389 138.634 79.6693C138.573 79.6998 131.934 83.6893 126.94 86.5825C122.889 88.9275 116.433 92.7344 113.783 94.4398C113.144 94.8662 112.717 95.1403 112.595 95.2012C111.925 95.5971 111.59 96.328 111.59 96.3585L111.164 98.5512L111.286 98.5817Z" fill="black"/>
</g>
<path opacity="0.4" d="M100.231 106.53L100.109 112.926L99.9872 112.865L100.109 106.5L100.688 105.282L101.114 93.4957H101.236L100.809 105.312L100.231 106.53Z" fill="black"/>
<path opacity="0.4" d="M99.5609 118.195L99.5914 116.489L100.566 115.301V113.322L100.688 113.383V115.332L99.7132 116.52L99.6827 118.255C99.6523 118.255 99.6523 118.225 99.6218 118.225C99.5914 118.225 99.5609 118.225 99.5609 118.195Z" fill="black"/>
<path d="M122.981 100.409C124.686 99.4344 137.172 91.8512 140.705 89.6585C144.238 87.4657 145.365 86.5521 145.365 86.5521C145.7 86.1562 145.974 85.6994 146.156 85.3035C146.156 85.5776 146.156 85.8212 146.126 85.9735C146.065 86.5216 145.974 87.1612 145.334 87.8921C145.334 87.8921 144.207 88.8057 140.675 90.9985C137.142 93.1912 124.686 100.805 122.95 101.749C121.245 102.724 117.742 104.551 116.707 103.028C116.494 102.693 116.311 102.328 116.189 101.962C117.255 103.454 121.275 101.353 122.981 100.409Z" fill="#404B4D"/>
<path d="M110.646 129.341L108.758 130.498V130.864L115.001 134.244V131.686L110.646 129.341Z" fill="#404B4D"/>
<path d="M115.001 133.726V134.244L108.758 130.864V130.498L115.001 133.726Z" fill="#273234"/>
<path d="M100.688 115.18L104.342 117.281V115.667L100.688 113.565V115.18Z" fill="#404B4D"/>
<path d="M126.726 119.139C129.863 117.372 140.766 110.733 141.558 110.215C142.35 109.728 145.273 107.779 145.852 107.109L145.608 108.023L144.207 109.21L142.563 109.789C142.441 110.52 141.497 111.434 141.497 111.434C141.497 111.434 126.848 120.144 125.813 120.753C124.777 121.362 124.351 120.753 124.351 120.753L123.376 121.727L121.214 122.61L121.031 121.971C121.031 121.971 123.589 120.905 126.726 119.139Z" fill="#2E383B"/>
<path d="M124.991 123.311C127.153 122.154 139.639 114.601 141.253 113.687C142.837 112.773 145.212 110.916 145.212 110.916L145.091 111.677C144.908 111.86 143.355 113.048 143.355 113.048L141.619 113.626C141.497 114.144 140.949 114.997 140.553 115.21C140.126 115.423 127.792 122.824 126.879 123.28C125.996 123.768 125.386 123.341 125.386 123.341L124.381 124.346L122.341 125.29C122.25 125.138 122.189 124.925 122.067 124.712C122.067 124.742 122.828 124.468 124.991 123.311Z" fill="#2E383B"/>
<path d="M123.041 126.417C123.529 126.935 124.229 126.752 125.051 126.356C125.843 125.96 131.965 122.397 134.127 121.088C136.137 119.839 141.223 116.763 143.05 115.454C142.928 115.88 142.563 117.007 141.984 117.494C141.253 118.134 139.426 119.321 137.842 120.265C136.259 121.21 129.68 125.138 128.462 125.839C127.244 126.539 125.112 127.849 124.229 128.001C123.376 128.153 122.615 128.184 122.493 127.727C122.371 127.3 122.31 126.6 122.31 126.6C122.31 126.6 122.554 126.295 122.737 126.052C122.828 126.174 122.92 126.295 123.041 126.417Z" fill="#2E383B"/>
<path d="M141.192 122.61C141.071 123.189 140.736 124.438 140.34 124.742C140.096 124.925 129.467 131.29 128.554 131.869C128.006 132.234 126.879 132.813 126.331 132.63C126.178 132.417 126.056 132.082 125.904 131.716L141.192 122.61Z" fill="#2E383B"/>
<path d="M115.945 100.957C116.128 101.658 116.372 102.419 116.768 102.998C117.803 104.52 121.275 102.693 123.011 101.718C124.716 100.744 137.203 93.1607 140.735 90.9679C144.268 88.7752 145.395 87.8616 145.395 87.8616C145.974 91.4857 146.887 98.5816 146.887 98.5816L146.948 99.9521C146.674 100.713 146.248 101.505 145.517 102.084C143.629 103.515 136.776 107.657 133.091 109.911C129.406 112.134 122.615 116.123 120.575 116.793C118.534 117.494 117.133 117.342 116.798 116.002C116.494 114.662 115.275 105.19 114.971 103.272C114.697 101.597 115.215 101.323 115.945 100.957Z" fill="#141C1E"/>
<path d="M116.22 101.901C116.372 102.297 116.524 102.663 116.737 102.967C117.773 104.49 121.245 102.663 122.981 101.688C124.686 100.714 137.172 93.1303 140.705 90.9376C142.898 89.5671 144.147 88.7144 144.817 88.2576C145.03 89.5367 145.761 94.4399 145.913 95.9321C146.065 97.6681 146.431 98.4903 145.212 99.4649C143.964 100.409 136.959 104.642 133.122 106.896C129.285 109.149 122.25 113.291 120.544 114.053C118.808 114.784 117.225 115.667 116.829 112.804C116.433 109.941 115.55 103.942 115.458 103.028C115.367 102.389 115.641 102.145 116.22 101.901Z" fill="#303E42"/>
<path d="M116.006 107.353C122.463 103.394 137.568 94.5312 138.36 94.0135C139.274 93.4349 141.893 95.2317 143.507 96.2976C144.512 96.9676 145.212 98.2467 145.608 99.0994C145.486 99.2212 145.365 99.3431 145.212 99.4649C143.964 100.409 136.959 104.642 133.122 106.896C129.284 109.149 122.249 113.291 120.544 114.053C118.808 114.784 117.224 115.667 116.829 112.804C116.585 111.403 116.28 109.271 116.006 107.353Z" fill="#39464A"/>
<path d="M102.454 95.993V104.947C102.454 104.947 102.576 106.195 103.977 107.078C105.378 107.931 112.352 112.408 112.352 112.408C112.352 112.408 113.753 113.352 113.692 111.769C113.631 110.185 112.931 103.028 112.9 102.51C112.87 101.993 112.261 101.17 111.103 100.5C109.946 99.8303 104.495 96.6021 103.886 96.2366C103.246 95.9016 102.454 95.5057 102.454 95.993Z" fill="#141C1E"/>
<path d="M104.434 106.835C103.033 105.982 102.911 104.703 102.911 104.703V95.8103C103.185 95.9017 103.55 96.0844 103.855 96.2671C104.464 96.6326 109.915 99.8608 111.073 100.531C112.23 101.17 112.839 102.023 112.87 102.541C112.9 103.059 113.6 110.215 113.661 111.799C113.661 112.104 113.631 112.317 113.54 112.469C113.174 112.469 112.778 112.195 112.778 112.195C112.778 112.195 105.835 107.688 104.434 106.835Z" fill="#303E42"/>
<path d="M118.808 103.82C121.975 102.023 122.95 103.15 124.046 104.307C125.143 105.434 125.173 107.505 122.158 108.723C119.143 109.911 112.139 107.596 118.808 103.82Z" fill="#3D4B4F"/>
<path opacity="0.7" d="M140.705 90.9681C141.497 90.4808 142.167 90.0544 142.745 89.689C143.05 91.5772 143.598 95.2317 143.172 95.2317C142.715 95.2622 139.365 93.2522 138.177 92.5212C139.243 91.8817 140.096 91.3335 140.705 90.9681Z" fill="#C5D0D3"/>
<path opacity="0.2" d="M140.705 90.9681C142.898 89.5976 144.147 88.7449 144.817 88.2881C145.03 89.5672 145.761 94.4704 145.913 95.9627C146.065 97.6986 146.431 98.5209 145.212 99.4954C144.786 99.8304 143.69 100.531 142.258 101.414C140.614 99.404 138.056 96.7849 134.553 94.7749C137.142 93.1608 139.487 91.7295 140.705 90.9681Z" fill="white"/>
<path d="M130.564 128.914C130.655 128.914 130.716 128.884 130.807 128.854L137.416 124.894C137.66 124.742 137.873 124.407 137.873 124.103V123.158C137.873 122.884 137.69 122.763 137.538 122.763C137.446 122.763 137.386 122.793 137.294 122.823L130.686 126.783C130.442 126.935 130.229 127.27 130.229 127.574V128.518C130.229 128.793 130.381 128.914 130.564 128.914Z" fill="#939A9E"/>
<path d="M130.35 128.519C130.35 128.762 130.533 128.854 130.746 128.732L137.355 124.773C137.568 124.651 137.751 124.346 137.751 124.103V123.159C137.751 122.915 137.568 122.824 137.355 122.945L130.746 126.904C130.533 127.026 130.35 127.331 130.35 127.574V128.519Z" fill="#DEE5E9"/>
<path opacity="0.2" d="M116.615 103.637C116.128 102.906 115.854 101.932 115.702 101.079C115.793 101.048 115.884 100.988 115.976 100.957C116.159 101.658 116.402 102.419 116.798 102.998C117.834 104.52 121.305 102.693 123.041 101.718C124.747 100.744 137.233 93.1607 140.766 90.9679C144.299 88.7752 145.425 87.8616 145.425 87.8616C145.456 87.9834 145.456 88.1052 145.486 88.2575C145.425 88.3488 145.365 88.4402 145.273 88.5316C145.273 88.5316 144.146 89.4452 140.614 91.6379C137.081 93.8307 124.625 101.444 122.889 102.388C121.123 103.333 117.651 105.19 116.615 103.637Z" fill="black"/>
<path d="M145.882 120.539C145.608 120.814 145.212 121.209 144.756 121.636C144.573 121.484 144.39 121.24 144.268 121.088C144.999 120.448 145.913 119.626 146.339 119.26L146.491 119.352C146.461 119.717 146.278 120.144 145.882 120.539Z" fill="white"/>
<path d="M118.717 136.315C118.656 136.224 118.625 136.132 118.595 136.041C118.504 135.554 119.082 135.28 120.361 134.853C120.605 134.762 121.031 134.61 121.519 134.396C121.64 134.64 121.884 135.158 121.884 135.462C120.666 135.858 119.387 136.224 118.717 136.315Z" fill="white"/>
<path d="M115.214 131.99C115.214 132.112 115.306 132.234 115.397 132.265L116.25 132.6C116.341 132.63 116.433 132.569 116.433 132.478V132.173C116.433 132.051 116.341 131.93 116.25 131.899L115.397 131.564C115.306 131.534 115.214 131.595 115.214 131.686V131.99Z" fill="#F09041"/>
<path d="M89.2064 125.26C89.2064 125.382 89.2977 125.504 89.3891 125.534L90.2418 125.9C90.3332 125.93 90.4246 125.9 90.4246 125.778V125.473C90.4246 125.351 90.3332 125.23 90.2418 125.199L89.3891 124.834C89.2977 124.803 89.2064 124.834 89.2064 124.955V125.26Z" fill="#F09041"/>
<path d="M123.772 130.254C123.955 130.65 124.655 132.021 124.29 132.386C123.894 132.752 122.371 133.391 121.305 133.848C120.24 134.305 118.382 134.914 117.955 134.945C117.529 134.975 117.255 134.823 117.225 134.396C117.194 133.939 117.225 132.508 117.225 132.325C117.225 132.143 117.59 131.96 118.077 131.869C118.565 131.747 121.031 130.924 121.884 130.529C122.706 130.133 123.59 129.919 123.772 130.254Z" fill="url(#paint59_linear_90_679)"/>
<path d="M120.97 132.386C120.97 133.026 121.397 133.27 121.945 132.965C122.493 132.66 122.919 131.899 122.919 131.26C122.919 130.62 122.493 130.376 121.945 130.681C121.397 131.016 120.97 131.777 120.97 132.386Z" fill="white"/>
<path d="M118.351 131.777C118.778 131.655 119.478 131.412 120.179 131.168C120.27 131.32 120.361 131.534 120.361 131.808C120.361 132.599 119.813 133.574 119.113 134C118.412 134.396 117.864 134.061 117.864 133.269C117.834 132.752 118.047 132.204 118.351 131.777Z" fill="white"/>
<path d="M146.857 114.662C146.857 114.662 146.826 116.854 146.796 117.189C146.766 117.494 146.644 118.073 146.248 118.438C145.821 118.773 143.659 120.814 143.294 121.027C142.928 121.24 142.776 121.27 142.928 120.6C143.081 119.961 143.751 117.768 144.299 117.129C144.847 116.489 146.857 114.662 146.857 114.662Z" fill="url(#paint60_linear_90_679)"/>
<path d="M146.096 117.433C145.395 117.829 144.847 117.525 144.847 116.702C144.847 116.641 144.847 116.611 144.847 116.55C145.639 115.758 146.857 114.631 146.857 114.631C146.857 114.631 146.826 115.971 146.826 116.733C146.583 117.037 146.339 117.281 146.096 117.433Z" fill="white"/>
<path d="M144.299 117.129C144.299 117.098 144.329 117.098 144.299 117.129C144.695 117.037 144.999 117.281 144.999 117.799C144.999 118.438 144.573 119.199 144.025 119.504C143.72 119.687 143.446 119.687 143.263 119.504C143.537 118.621 143.964 117.524 144.299 117.129Z" fill="white"/>
<path d="M123.772 130.254C123.955 130.65 124.655 132.021 124.29 132.386C123.894 132.752 122.371 133.391 121.305 133.848C120.24 134.305 118.382 134.914 117.955 134.945C117.529 134.975 117.255 134.823 117.225 134.396C117.194 133.939 117.225 132.508 117.225 132.325C117.225 132.143 117.59 131.96 118.077 131.869C118.565 131.747 121.031 130.924 121.884 130.529C122.706 130.133 123.59 129.919 123.772 130.254Z" fill="url(#paint61_linear_90_679)"/>
<path d="M117.225 132.325C117.225 132.143 117.59 131.96 118.077 131.869C118.565 131.747 121.031 130.925 121.884 130.529C122.706 130.163 123.62 129.919 123.772 130.255C123.955 130.65 124.655 132.021 124.29 132.386C123.894 132.752 122.371 133.391 121.305 133.848C120.24 134.305 118.382 134.914 117.955 134.945C117.529 134.975 117.255 134.823 117.225 134.396C117.194 133.94 117.225 132.508 117.225 132.325ZM117.285 134.396C117.316 134.731 117.499 134.884 117.834 134.884C117.864 134.884 117.895 134.884 117.955 134.884C118.382 134.853 120.24 134.214 121.275 133.787C122.25 133.391 123.833 132.721 124.229 132.325C124.381 132.173 124.412 131.686 123.711 130.285C123.65 130.194 123.559 130.133 123.376 130.133C123.041 130.133 122.493 130.285 121.884 130.559C121.031 130.925 118.534 131.777 118.077 131.899C117.59 132.021 117.285 132.173 117.285 132.295C117.285 132.539 117.255 133.94 117.285 134.396Z" fill="#2E383B"/>
<path d="M146.857 114.662C146.857 114.662 146.826 116.854 146.796 117.189C146.766 117.494 146.644 118.073 146.248 118.438C145.821 118.773 143.659 120.814 143.294 121.027C142.928 121.24 142.776 121.27 142.928 120.6C143.081 119.961 143.751 117.768 144.299 117.129C144.847 116.489 146.857 114.662 146.857 114.662Z" fill="url(#paint62_linear_90_679)"/>
<path d="M143.233 120.966C143.598 120.753 145.761 118.712 146.187 118.377C146.613 118.042 146.705 117.464 146.735 117.129C146.766 116.854 146.796 115.088 146.796 114.692C146.826 114.662 146.826 114.662 146.826 114.662C146.826 114.662 146.796 116.854 146.766 117.189C146.735 117.494 146.613 118.073 146.217 118.438C145.791 118.773 143.629 120.814 143.263 121.027C143.05 121.149 142.928 121.209 142.867 121.118C142.959 121.118 143.08 121.057 143.233 120.966Z" fill="#2E383B"/>
<path d="M110.129 116.641C110.281 116.641 110.433 116.58 110.616 116.489L112.534 115.393C112.656 115.332 112.687 115.179 112.626 115.058C112.565 114.936 112.413 114.905 112.291 114.966L110.372 116.063C110.25 116.154 110.129 116.154 110.037 116.124C109.976 116.093 109.915 115.971 109.915 115.819V102.632C109.915 102.206 110.22 101.658 110.616 101.444L112.534 100.348C112.656 100.287 112.687 100.135 112.626 100.013C112.565 99.8912 112.413 99.8608 112.291 99.9217L110.372 101.018C109.854 101.323 109.428 102.023 109.428 102.632V115.819C109.428 116.154 109.55 116.428 109.794 116.55C109.915 116.611 110.007 116.641 110.129 116.641Z" fill="#404B4D"/>
<path d="M106.657 114.997C106.657 115.362 106.931 115.514 107.235 115.332L109.55 113.992C109.885 113.809 110.129 113.352 110.129 112.956V103.394C110.129 103.028 109.855 102.876 109.55 103.059L107.235 104.399C106.9 104.581 106.657 105.038 106.657 105.434V114.997Z" fill="#5A6567"/>
<path d="M106.961 115.24C106.961 115.606 107.235 115.758 107.54 115.575L109.854 114.235C110.189 114.053 110.433 113.596 110.433 113.2V103.637C110.433 103.272 110.159 103.119 109.854 103.302L107.54 104.642C107.205 104.825 106.961 105.282 106.961 105.678V115.24Z" fill="#404B4D"/>
<path d="M95.6322 70.1676L112.961 60.1785C112.961 60.1785 115.489 61.6403 117.56 62.828C119.63 64.0158 122.128 68.188 122.128 68.188C122.128 68.188 122.615 69.7108 122.615 70.9594C122.615 71.203 122.554 71.3858 122.432 71.5076L104.982 81.5272C104.525 81.8317 103.642 81.4967 103.642 81.4967L95.6626 76.8981L95.6017 76.8676V73.5176L95.6322 70.1676Z" fill="#E1E8EC"/>
<path opacity="0.1" d="M103.672 81.4967C103.672 81.4967 105.317 82.1058 105.317 80.8571C105.317 79.6085 104.829 78.0857 104.829 78.0857C104.829 78.0857 102.332 73.9135 100.261 72.7257C98.1903 71.538 95.6625 70.0762 95.6625 70.0762V76.8371L103.672 81.4967Z" fill="black"/>
<path d="M104.738 75.8931L119.752 67.0613C119.844 67.1831 119.935 67.3049 119.996 67.4267L104.982 76.2586C104.921 76.1063 104.829 76.0149 104.738 75.8931Z" fill="#4A585C"/>
<path d="M104.251 75.2231L119.234 66.3912C119.326 66.5131 119.417 66.6349 119.509 66.7262L104.525 75.5581C104.433 75.4363 104.342 75.3144 104.251 75.2231Z" fill="#4A585C"/>
<path d="M105.164 76.5021L120.178 67.6703C120.27 67.7921 120.361 67.9139 120.422 68.0357L105.408 76.8676C105.347 76.7458 105.256 76.624 105.164 76.5021Z" fill="#4A585C"/>
<path d="M106.017 77.8117L121.031 68.9799C121.062 69.0408 121.092 69.0712 121.092 69.0712C121.092 69.0712 121.123 69.193 121.184 69.3758L106.139 78.2381C106.078 78.0553 106.048 77.9031 106.017 77.8117Z" fill="#4A585C"/>
<path d="M105.591 77.1417L120.605 68.3098C120.696 68.4316 120.788 68.5535 120.849 68.6753L105.834 77.5071C105.774 77.4158 105.682 77.2939 105.591 77.1417Z" fill="#4A585C"/>
<defs>
<linearGradient id="paint0_linear_90_679" x1="55.885" y1="70.6032" x2="55.4043" y2="80.9529" gradientUnits="userSpaceOnUse">
<stop stop-color="#F3F5F7"/>
<stop offset="1" stop-color="#999D9E"/>
</linearGradient>
<linearGradient id="paint1_linear_90_679" x1="57.8988" y1="79.0768" x2="52.7401" y2="70.7139" gradientUnits="userSpaceOnUse">
<stop stop-color="#F3F5F7"/>
<stop offset="1" stop-color="#999D9E"/>
</linearGradient>
<linearGradient id="paint2_linear_90_679" x1="59.3393" y1="75.0295" x2="53.4429" y2="75.0295" gradientUnits="userSpaceOnUse">
<stop stop-color="#C3C5C7"/>
<stop offset="1" stop-color="#696D6E"/>
</linearGradient>
<linearGradient id="paint3_linear_90_679" x1="59.3395" y1="74.8588" x2="53.7262" y2="74.8588" gradientUnits="userSpaceOnUse">
<stop stop-color="#F3F5F7"/>
<stop offset="1" stop-color="#999D9E"/>
</linearGradient>
<linearGradient id="paint4_linear_90_679" x1="59.3395" y1="74.615" x2="55.1053" y2="74.615" gradientUnits="userSpaceOnUse">
<stop stop-color="#C1C3C5"/>
<stop offset="1" stop-color="#676B6C"/>
</linearGradient>
<linearGradient id="paint5_linear_90_679" x1="56.4693" y1="72.2673" x2="58.3485" y2="79.6695" gradientUnits="userSpaceOnUse">
<stop stop-color="#F3F5F7"/>
<stop offset="1" stop-color="#999D9E"/>
</linearGradient>
<linearGradient id="paint6_linear_90_679" x1="72.233" y1="80.0461" x2="71.7524" y2="90.3956" gradientUnits="userSpaceOnUse">
<stop stop-color="#F3F5F7"/>
<stop offset="1" stop-color="#999D9E"/>
</linearGradient>
<linearGradient id="paint7_linear_90_679" x1="74.2474" y1="88.5197" x2="69.0885" y2="80.1565" gradientUnits="userSpaceOnUse">
<stop stop-color="#F3F5F7"/>
<stop offset="1" stop-color="#999D9E"/>
</linearGradient>
<linearGradient id="paint8_linear_90_679" x1="75.6879" y1="84.4722" x2="69.7909" y2="84.4722" gradientUnits="userSpaceOnUse">
<stop stop-color="#C3C5C7"/>
<stop offset="1" stop-color="#696D6E"/>
</linearGradient>
<linearGradient id="paint9_linear_90_679" x1="75.6879" y1="84.3018" x2="70.0743" y2="84.3018" gradientUnits="userSpaceOnUse">
<stop stop-color="#F3F5F7"/>
<stop offset="1" stop-color="#999D9E"/>
</linearGradient>
<linearGradient id="paint10_linear_90_679" x1="75.6879" y1="84.0577" x2="71.4531" y2="84.0577" gradientUnits="userSpaceOnUse">
<stop stop-color="#C1C3C5"/>
<stop offset="1" stop-color="#676B6C"/>
</linearGradient>
<linearGradient id="paint11_linear_90_679" x1="72.8178" y1="81.7103" x2="74.697" y2="89.1121" gradientUnits="userSpaceOnUse">
<stop stop-color="#F3F5F7"/>
<stop offset="1" stop-color="#999D9E"/>
</linearGradient>
<linearGradient id="paint12_linear_90_679" x1="39.438" y1="63.9822" x2="45.332" y2="76.0977" gradientUnits="userSpaceOnUse">
<stop stop-color="#B8BFC3"/>
<stop offset="0.1261" stop-color="#C7CED1"/>
<stop offset="0.4556" stop-color="#EBF2F2"/>
<stop offset="0.6324" stop-color="#F8FFFF"/>
<stop offset="0.7175" stop-color="#EBF2F6"/>
<stop offset="0.8952" stop-color="#B8BFC3"/>
<stop offset="1" stop-color="#89939A"/>
</linearGradient>
<linearGradient id="paint13_linear_90_679" x1="29.4516" y1="86.0524" x2="28.971" y2="96.4018" gradientUnits="userSpaceOnUse">
<stop stop-color="#F3F5F7"/>
<stop offset="1" stop-color="#999D9E"/>
</linearGradient>
<linearGradient id="paint14_linear_90_679" x1="31.4657" y1="94.5259" x2="26.307" y2="86.163" gradientUnits="userSpaceOnUse">
<stop stop-color="#F3F5F7"/>
<stop offset="1" stop-color="#999D9E"/>
</linearGradient>
<linearGradient id="paint15_linear_90_679" x1="32.9063" y1="90.4789" x2="27.0096" y2="90.4789" gradientUnits="userSpaceOnUse">
<stop stop-color="#C3C5C7"/>
<stop offset="1" stop-color="#696D6E"/>
</linearGradient>
<linearGradient id="paint16_linear_90_679" x1="32.9063" y1="90.3079" x2="27.2926" y2="90.3079" gradientUnits="userSpaceOnUse">
<stop stop-color="#F3F5F7"/>
<stop offset="1" stop-color="#999D9E"/>
</linearGradient>
<linearGradient id="paint17_linear_90_679" x1="32.9063" y1="90.0644" x2="28.6718" y2="90.0644" gradientUnits="userSpaceOnUse">
<stop stop-color="#C1C3C5"/>
<stop offset="1" stop-color="#676B6C"/>
</linearGradient>
<linearGradient id="paint18_linear_90_679" x1="30.0362" y1="87.7163" x2="31.9155" y2="95.1186" gradientUnits="userSpaceOnUse">
<stop stop-color="#F3F5F7"/>
<stop offset="1" stop-color="#999D9E"/>
</linearGradient>
<linearGradient id="paint19_linear_90_679" x1="45.7994" y1="95.4951" x2="45.3188" y2="105.844" gradientUnits="userSpaceOnUse">
<stop stop-color="#F3F5F7"/>
<stop offset="1" stop-color="#999D9E"/>
</linearGradient>
<linearGradient id="paint20_linear_90_679" x1="47.8137" y1="103.969" x2="42.6549" y2="95.6056" gradientUnits="userSpaceOnUse">
<stop stop-color="#F3F5F7"/>
<stop offset="1" stop-color="#999D9E"/>
</linearGradient>
<linearGradient id="paint21_linear_90_679" x1="49.2539" y1="99.9215" x2="43.3578" y2="99.9215" gradientUnits="userSpaceOnUse">
<stop stop-color="#C3C5C7"/>
<stop offset="1" stop-color="#696D6E"/>
</linearGradient>
<linearGradient id="paint22_linear_90_679" x1="49.2541" y1="99.7506" x2="43.6411" y2="99.7506" gradientUnits="userSpaceOnUse">
<stop stop-color="#F3F5F7"/>
<stop offset="1" stop-color="#999D9E"/>
</linearGradient>
<linearGradient id="paint23_linear_90_679" x1="49.2541" y1="99.5071" x2="45.0202" y2="99.5071" gradientUnits="userSpaceOnUse">
<stop stop-color="#C1C3C5"/>
<stop offset="1" stop-color="#676B6C"/>
</linearGradient>
<linearGradient id="paint24_linear_90_679" x1="46.3841" y1="97.1591" x2="48.2633" y2="104.561" gradientUnits="userSpaceOnUse">
<stop stop-color="#F3F5F7"/>
<stop offset="1" stop-color="#999D9E"/>
</linearGradient>
<linearGradient id="paint25_linear_90_679" x1="84.9038" y1="105.053" x2="78.4999" y2="116.145" gradientUnits="userSpaceOnUse">
<stop offset="0.4393" stop-color="#B8BFC3"/>
<stop offset="0.4438" stop-color="#BAC1C5"/>
<stop offset="0.5216" stop-color="#DEE5E9"/>
<stop offset="0.5633" stop-color="#EBF2F6"/>
<stop offset="0.8396" stop-color="#B8BFC3"/>
<stop offset="1" stop-color="#89939A"/>
</linearGradient>
<linearGradient id="paint26_linear_90_679" x1="79.1314" y1="100.86" x2="72.0473" y2="113.131" gradientUnits="userSpaceOnUse">
<stop offset="0.4393" stop-color="#D2D9DD"/>
<stop offset="0.5171" stop-color="#F2F4F5"/>
<stop offset="0.5633" stop-color="white"/>
<stop offset="0.8396" stop-color="#D2D9DD"/>
<stop offset="1" stop-color="#A3ADB4"/>
</linearGradient>
<linearGradient id="paint27_linear_90_679" x1="87.1045" y1="105.435" x2="80.0205" y2="117.705" gradientUnits="userSpaceOnUse">
<stop offset="0.4393" stop-color="#D2D9DD"/>
<stop offset="0.5171" stop-color="#F2F4F5"/>
<stop offset="0.5633" stop-color="white"/>
<stop offset="0.8396" stop-color="#D2D9DD"/>
<stop offset="1" stop-color="#A3ADB4"/>
</linearGradient>
<linearGradient id="paint28_linear_90_679" x1="98.1141" y1="125.213" x2="100.081" y2="138.362" gradientUnits="userSpaceOnUse">
<stop stop-color="#F3F5F7"/>
<stop offset="1" stop-color="#999D9E"/>
</linearGradient>
<linearGradient id="paint29_linear_90_679" x1="100.173" y1="136.652" x2="99.1413" y2="130.256" gradientUnits="userSpaceOnUse">
<stop stop-color="#E6E8EA"/>
<stop offset="1" stop-color="#8C9091"/>
</linearGradient>
<linearGradient id="paint30_linear_90_679" x1="100.042" y1="133.643" x2="96.9609" y2="126.036" gradientUnits="userSpaceOnUse">
<stop stop-color="#F3F5F7"/>
<stop offset="1" stop-color="#999D9E"/>
</linearGradient>
<linearGradient id="paint31_linear_90_679" x1="98.4107" y1="126.206" x2="100.422" y2="136.632" gradientUnits="userSpaceOnUse">
<stop stop-color="#F3F5F7"/>
<stop offset="1" stop-color="#999D9E"/>
</linearGradient>
<linearGradient id="paint32_linear_90_679" x1="98.7955" y1="128.331" x2="98.8649" y2="136.606" gradientUnits="userSpaceOnUse">
<stop stop-color="#F3F5F7"/>
<stop offset="1" stop-color="#999D9E"/>
</linearGradient>
<linearGradient id="paint33_linear_90_679" x1="99.6327" y1="127.624" x2="98.9285" y2="127.624" gradientUnits="userSpaceOnUse">
<stop stop-color="#8F9193"/>
<stop offset="1" stop-color="#35393A"/>
</linearGradient>
<linearGradient id="paint34_linear_90_679" x1="102.405" y1="131.672" x2="101.394" y2="131.672" gradientUnits="userSpaceOnUse">
<stop stop-color="#8F9193"/>
<stop offset="1" stop-color="#35393A"/>
</linearGradient>
<linearGradient id="paint35_linear_90_679" x1="102.081" y1="133.712" x2="101.137" y2="133.712" gradientUnits="userSpaceOnUse">
<stop stop-color="#8F9193"/>
<stop offset="1" stop-color="#35393A"/>
</linearGradient>
<linearGradient id="paint36_linear_90_679" x1="100.546" y1="134.472" x2="100.036" y2="134.472" gradientUnits="userSpaceOnUse">
<stop stop-color="#8F9193"/>
<stop offset="1" stop-color="#35393A"/>
</linearGradient>
<linearGradient id="paint37_linear_90_679" x1="101.312" y1="129.336" x2="100.37" y2="129.336" gradientUnits="userSpaceOnUse">
<stop stop-color="#8F9193"/>
<stop offset="1" stop-color="#35393A"/>
</linearGradient>
<linearGradient id="paint38_linear_90_679" x1="97.7603" y1="127.116" x2="97.1726" y2="127.116" gradientUnits="userSpaceOnUse">
<stop stop-color="#8F9193"/>
<stop offset="1" stop-color="#35393A"/>
</linearGradient>
<linearGradient id="paint39_linear_90_679" x1="96.5671" y1="128.568" x2="95.9498" y2="128.568" gradientUnits="userSpaceOnUse">
<stop stop-color="#8F9193"/>
<stop offset="1" stop-color="#35393A"/>
</linearGradient>
<linearGradient id="paint40_linear_90_679" x1="96.5149" y1="130.462" x2="96.2561" y2="130.462" gradientUnits="userSpaceOnUse">
<stop stop-color="#8F9193"/>
<stop offset="1" stop-color="#35393A"/>
</linearGradient>
<linearGradient id="paint41_linear_90_679" x1="98.7964" y1="133.873" x2="98.5507" y2="133.873" gradientUnits="userSpaceOnUse">
<stop stop-color="#8F9193"/>
<stop offset="1" stop-color="#35393A"/>
</linearGradient>
<linearGradient id="paint42_linear_90_679" x1="97.2526" y1="132.185" x2="97.04" y2="132.185" gradientUnits="userSpaceOnUse">
<stop stop-color="#8F9193"/>
<stop offset="1" stop-color="#35393A"/>
</linearGradient>
<linearGradient id="paint43_linear_90_679" x1="97.3345" y1="130.664" x2="100.062" y2="131.797" gradientUnits="userSpaceOnUse">
<stop stop-color="#F3F5F7"/>
<stop offset="1" stop-color="#999D9E"/>
</linearGradient>
<linearGradient id="paint44_linear_90_679" x1="98.2153" y1="129.896" x2="99.2787" y2="135.304" gradientUnits="userSpaceOnUse">
<stop stop-color="#F3F5F7"/>
<stop offset="1" stop-color="#999D9E"/>
</linearGradient>
<linearGradient id="paint45_linear_90_679" x1="105.559" y1="122.905" x2="108.889" y2="135.069" gradientUnits="userSpaceOnUse">
<stop stop-color="white"/>
<stop offset="1"/>
</linearGradient>
<linearGradient id="paint46_linear_90_679" x1="103.574" y1="102.171" x2="101.244" y2="96.315" gradientUnits="userSpaceOnUse">
<stop stop-color="white"/>
<stop offset="1"/>
</linearGradient>
<linearGradient id="paint47_linear_90_679" x1="118.135" y1="123.854" x2="118.195" y2="129.174" gradientUnits="userSpaceOnUse">
<stop stop-color="white"/>
<stop offset="0.1072" stop-color="#FAFAFA"/>
<stop offset="0.2309" stop-color="#ECECEC"/>
<stop offset="0.3629" stop-color="#D5D5D5"/>
<stop offset="0.5005" stop-color="#B5B5B5"/>
<stop offset="0.6427" stop-color="#8B8B8B"/>
<stop offset="0.7887" stop-color="#585858"/>
<stop offset="0.9349" stop-color="#1D1D1D"/>
<stop offset="1"/>
</linearGradient>
<linearGradient id="paint48_linear_90_679" x1="122.789" y1="123.652" x2="119.552" y2="125.105" gradientUnits="userSpaceOnUse">
<stop stop-color="white"/>
<stop offset="1"/>
</linearGradient>
<linearGradient id="paint49_linear_90_679" x1="117.931" y1="129.61" x2="130.689" y2="124.819" gradientUnits="userSpaceOnUse">
<stop stop-color="white"/>
<stop offset="1"/>
</linearGradient>
<linearGradient id="paint50_linear_90_679" x1="111.618" y1="129.729" x2="113.429" y2="123.45" gradientUnits="userSpaceOnUse">
<stop stop-color="white"/>
<stop offset="1"/>
</linearGradient>
<linearGradient id="paint51_linear_90_679" x1="124.647" y1="134.804" x2="118.585" y2="134.804" gradientUnits="userSpaceOnUse">
<stop stop-color="white"/>
<stop offset="1"/>
</linearGradient>
<linearGradient id="paint52_linear_90_679" x1="145.456" y1="119.861" x2="146.152" y2="117.273" gradientUnits="userSpaceOnUse">
<stop stop-color="white"/>
<stop offset="1"/>
</linearGradient>
<linearGradient id="paint53_linear_90_679" x1="145.886" y1="117.296" x2="146.659" y2="115.557" gradientUnits="userSpaceOnUse">
<stop stop-color="white"/>
<stop offset="1"/>
</linearGradient>
<linearGradient id="paint54_linear_90_679" x1="142.688" y1="122.912" x2="146.032" y2="120.203" gradientUnits="userSpaceOnUse">
<stop stop-color="white"/>
<stop offset="1"/>
</linearGradient>
<linearGradient id="paint55_linear_90_679" x1="142.175" y1="122.276" x2="145.518" y2="119.568" gradientUnits="userSpaceOnUse">
<stop stop-color="white"/>
<stop offset="1"/>
</linearGradient>
<linearGradient id="paint56_linear_90_679" x1="143.864" y1="109.696" x2="147.656" y2="109.588" gradientUnits="userSpaceOnUse">
<stop stop-color="white"/>
<stop offset="1"/>
</linearGradient>
<linearGradient id="paint57_linear_90_679" x1="147.148" y1="115.05" x2="142.727" y2="115.05" gradientUnits="userSpaceOnUse">
<stop stop-color="white"/>
<stop offset="0.1072" stop-color="#FAFAFA"/>
<stop offset="0.2309" stop-color="#ECECEC"/>
<stop offset="0.3629" stop-color="#D5D5D5"/>
<stop offset="0.5005" stop-color="#B5B5B5"/>
<stop offset="0.6427" stop-color="#8B8B8B"/>
<stop offset="0.7887" stop-color="#585858"/>
<stop offset="0.9349" stop-color="#1D1D1D"/>
<stop offset="1"/>
</linearGradient>
<linearGradient id="paint58_linear_90_679" x1="127.81" y1="89.2363" x2="129.862" y2="92.5352" gradientUnits="userSpaceOnUse">
<stop stop-color="white"/>
<stop offset="1"/>
</linearGradient>
<linearGradient id="paint59_linear_90_679" x1="124.39" y1="132.516" x2="117.207" y2="132.516" gradientUnits="userSpaceOnUse">
<stop stop-color="white"/>
<stop offset="1" stop-color="#969696"/>
</linearGradient>
<linearGradient id="paint60_linear_90_679" x1="146.847" y1="117.898" x2="142.878" y2="117.898" gradientUnits="userSpaceOnUse">
<stop stop-color="white"/>
<stop offset="1" stop-color="#969696"/>
</linearGradient>
<linearGradient id="paint61_linear_90_679" x1="124.39" y1="132.516" x2="117.207" y2="132.516" gradientUnits="userSpaceOnUse">
<stop stop-color="white"/>
<stop offset="1" stop-color="white"/>
</linearGradient>
<linearGradient id="paint62_linear_90_679" x1="146.847" y1="117.898" x2="142.878" y2="117.898" gradientUnits="userSpaceOnUse">
<stop stop-color="white"/>
<stop offset="1" stop-color="white"/>
</linearGradient>
</defs>
</svg>
