<svg width="142" height="30" viewBox="0 0 142 30" fill="none" xmlns="http://www.w3.org/2000/svg">
<g clip-path="url(#clip0_172_745)">
<path d="M0.758301 19.9821L10.786 15.519L16.5578 18.8663L17.7238 29.848L10.6111 29.7891L11.6605 22.1548L10.4362 21.4501L4.43123 26.1484L0.758301 19.9821Z" fill="#B4C0D3"/>
<path opacity="0.6" d="M17.1992 18.3965L26.0611 24.9147L29.559 18.6314L22.446 15.7539V14.3445L29.559 11.4082L26.0611 5.18335L17.1992 11.7018V18.3965Z" fill="#18192E"/>
<path d="M16.5578 11.1732L17.7238 0.19165L10.6111 0.309065L11.6605 7.94334L10.4362 8.64803L4.37293 3.95003L0.758301 10.0574L10.786 14.5205L16.5578 11.1732Z" fill="#18192E"/>
<path d="M53.2882 13.7035V23.9916H57.1162V10.8804H51.5413V13.7035H53.2882Z" fill="#18192E"/>
<path d="M53.1692 9.03838C53.5202 9.40516 54.0545 9.58854 54.7722 9.58854C55.4904 9.58854 56.0163 9.40516 56.3511 9.03838C56.7023 8.65543 56.8775 8.17686 56.8775 7.60283C56.8775 7.01254 56.7023 6.53403 56.3511 6.16723C56.0163 5.78449 55.4904 5.59302 54.7722 5.59302C54.0545 5.59302 53.5202 5.78449 53.1692 6.16723C52.8344 6.53403 52.667 7.01254 52.667 7.60283C52.667 8.17686 52.8344 8.65543 53.1692 9.03838Z" fill="#18192E"/>
<path d="M39.962 23.7051C41.0464 24.1994 42.3784 24.4467 43.9573 24.4467C45.4407 24.4467 46.7165 24.2153 47.7855 23.7529C48.8542 23.2903 49.6755 22.6442 50.2497 21.8147C50.8401 20.9694 51.1351 19.9885 51.1351 18.8719C51.1351 17.7873 50.8562 16.8701 50.298 16.1203C49.7553 15.3548 48.9981 14.7566 48.0247 14.3261C47.0517 13.8794 45.9272 13.6002 44.6513 13.4887L43.3113 13.3691C42.5139 13.3051 41.9397 13.0899 41.5888 12.723C41.2378 12.3562 41.0624 11.9254 41.0624 11.4311C41.0624 11.0481 41.1583 10.6973 41.3492 10.3783C41.5409 10.0433 41.8279 9.78017 42.2108 9.58868C42.6096 9.39739 43.0961 9.30162 43.6703 9.30162C44.2762 9.30162 44.7788 9.41319 45.1776 9.63664C45.2653 9.68384 45.3488 9.73429 45.4271 9.7879L45.446 9.80118C45.4751 9.8214 45.5041 9.8424 45.5322 9.86357C45.7743 10.0487 45.9673 10.2681 46.1108 10.5218C46.3178 10.8728 46.4221 11.2635 46.4221 11.6942H50.2497C50.2497 10.5457 49.9864 9.5488 49.4605 8.70349C48.9341 7.84222 48.1764 7.18029 47.1876 6.71757C46.2142 6.23906 45.0421 5.99976 43.6703 5.99976C42.3623 5.99976 41.2298 6.22325 40.2727 6.66978C39.3159 7.10053 38.5663 7.72257 38.024 8.53591C37.4972 9.34941 37.2339 10.3146 37.2339 11.4311C37.2339 12.9782 37.753 14.2223 38.7895 15.1635C39.8261 16.1046 41.2141 16.6468 42.9526 16.7904L44.2686 16.91C45.3369 17.0057 46.1108 17.2211 46.5893 17.5559C47.0674 17.875 47.307 18.3136 47.307 18.8719C47.307 19.1285 47.2651 19.3691 47.1809 19.5939C47.1184 19.7607 47.033 19.9188 46.9244 20.0683C46.6688 20.403 46.2941 20.6663 45.7997 20.8579C45.3052 21.0491 44.6911 21.1448 43.9573 21.1448C43.1439 21.1448 42.4818 21.0334 41.9716 20.8097C41.461 20.5706 41.0785 20.2596 40.8228 19.8769C40.5837 19.4939 40.4643 19.0793 40.4643 18.6326H36.6602C36.6602 19.7651 36.9392 20.7698 37.4972 21.6473C38.0557 22.5086 38.8772 23.1945 39.962 23.7051Z" fill="#18192E"/>
<path d="M65.6576 24.1595C64.3336 24.1595 63.2649 23.9999 62.4518 23.681C61.638 23.3457 61.0401 22.7957 60.657 22.0301C60.2903 21.2485 60.107 20.196 60.107 18.8719V13.6801H58.1211V10.8808H60.107V7.33984H63.6717V10.8808H67.5V13.6801H63.6717V19.0156C63.6717 19.6377 63.8314 20.1162 64.1503 20.4509C64.4851 20.7699 64.9556 20.9295 65.5619 20.9295H67.5V24.1595H65.6576Z" fill="#18192E"/>
<path fill-rule="evenodd" clip-rule="evenodd" d="M72.1088 23.8727C72.9699 24.2554 73.9591 24.4469 75.0756 24.4469C76.1758 24.4469 77.1492 24.2554 77.9944 23.8727C78.8399 23.4899 79.5418 22.9555 80.0999 22.2697C80.6581 21.5837 81.0332 20.802 81.2241 19.9248H77.7072C77.548 20.3234 77.2448 20.6585 76.7982 20.9296C76.3516 21.2008 75.7769 21.3364 75.0756 21.3364C74.6407 21.3364 74.2524 21.285 73.91 21.1822C73.6497 21.1039 73.416 20.9961 73.2093 20.8581C72.7308 20.5388 72.3798 20.0922 72.1566 19.5182C72.0945 19.3546 72.0416 19.1835 71.9969 19.0053C71.9514 18.8248 71.9147 18.637 71.887 18.4415H81.4637V17.1494C81.4637 15.9531 81.2084 14.8526 80.6982 13.8478C80.1876 12.8268 79.4458 12.0053 78.4732 11.3833C77.5159 10.7453 76.3354 10.4263 74.9317 10.4263C73.863 10.4263 72.9058 10.6178 72.0605 11.0005C71.2318 11.3673 70.5379 11.8697 69.9794 12.5077C69.4213 13.1458 68.9906 13.8717 68.6871 14.6852C68.4001 15.4825 68.2566 16.3199 68.2566 17.1972V17.6757C68.2566 18.5212 68.4001 19.3505 68.6871 20.1641C68.9906 20.9616 69.4213 21.6871 69.9794 22.3413C70.5536 22.9792 71.2629 23.4899 72.1088 23.8727ZM71.9531 16.0756C71.9636 16.025 71.9747 15.9751 71.9871 15.926C72.0202 15.7907 72.0586 15.6611 72.102 15.5372C72.1266 15.4667 72.1526 15.3979 72.1807 15.3311C72.4197 14.7408 72.7706 14.2943 73.233 13.9913C73.4061 13.878 73.5934 13.7859 73.7946 13.715C74.133 13.5962 74.5123 13.5366 74.9317 13.5366C75.5862 13.5366 76.1279 13.6882 76.5588 13.9913C77.0053 14.2783 77.3405 14.701 77.5637 15.2592C77.582 15.3043 77.599 15.3502 77.6155 15.3966C77.642 15.4706 77.6665 15.5465 77.6894 15.6243C77.723 15.7401 77.7527 15.8599 77.7788 15.9837C77.7976 16.0751 77.814 16.1685 77.8285 16.2642H71.9162C71.9273 16.2003 71.9397 16.1375 71.9531 16.0756Z" fill="#18192E"/>
<path d="M83.0435 23.992V10.8808H86.0821V14.183C86.1232 13.9867 86.1702 13.7984 86.2228 13.6176C86.2679 13.4655 86.3162 13.3186 86.3691 13.1776C86.7041 12.2844 87.2065 11.6146 87.8764 11.1678C88.5463 10.7053 89.3674 10.4741 90.3408 10.4741H90.508C91.4972 10.4741 92.3185 10.7053 92.9726 11.1678C93.6425 11.6146 94.1451 12.2844 94.48 13.1776L94.5064 13.2451L94.5288 13.3067C94.5439 13.2632 94.5597 13.2202 94.5754 13.1776C94.9264 12.2844 95.437 11.6146 96.1069 11.1678C96.7767 10.7053 97.5985 10.4741 98.5715 10.4741H98.7389C99.7274 10.4741 100.557 10.7053 101.227 11.1678C101.913 11.6146 102.431 12.2844 102.782 13.1776C103.133 14.0709 103.309 15.1875 103.309 16.5273V23.992H99.4803V16.3119C99.4803 15.5941 99.2892 15.012 98.9061 14.5655C98.5394 14.1187 98.013 13.8954 97.3272 13.8954C96.6412 13.8954 96.0989 14.1268 95.7003 14.5893C95.3015 15.0359 95.102 15.634 95.102 16.3838V23.992H91.2498V16.3119C91.2498 15.5941 91.0585 15.012 90.6756 14.5655C90.3089 14.1187 89.7903 13.8954 89.1209 13.8954C88.4185 13.8954 87.8684 14.1268 87.4696 14.5893C87.071 15.0359 86.8713 15.634 86.8713 16.3838V23.992H83.0435Z" fill="#18192E"/>
<path fill-rule="evenodd" clip-rule="evenodd" d="M113.534 21.4655V23.9916H116.573V15.9526C116.573 14.7403 116.334 13.7515 115.855 12.9858C115.376 12.2042 114.675 11.6221 113.75 11.2393C112.841 10.8565 111.716 10.665 110.376 10.665C110.086 10.665 109.783 10.6681 109.467 10.6745C109.28 10.6783 109.088 10.6831 108.893 10.6889C108.366 10.7049 107.856 10.7288 107.362 10.7608L106.984 10.7862C106.79 10.7997 106.608 10.813 106.436 10.8265C106.307 10.8365 106.185 10.8465 106.07 10.8565V14.0866C106.564 14.0545 107.114 14.0226 107.72 13.9908C107.89 13.9819 108.058 13.9736 108.225 13.9659C108.466 13.9547 108.703 13.9451 108.938 13.9366C109.124 13.9299 109.308 13.924 109.491 13.9189C110.065 13.9029 110.528 13.895 110.879 13.895C111.58 13.895 112.091 14.0624 112.41 14.3975C112.729 14.7325 112.888 15.2349 112.888 15.9048V15.9526H110.52C109.355 15.9526 108.327 16.1042 107.433 16.4073C106.54 16.6943 105.846 17.1489 105.352 17.771C104.857 18.3772 104.61 19.1588 104.61 20.1158C104.61 20.9932 104.809 21.7508 105.208 22.3886C105.607 23.0106 106.157 23.4893 106.859 23.8239C107.577 24.1592 108.406 24.3268 109.347 24.3268C110.256 24.3268 111.022 24.1592 111.644 23.8239C112.282 23.4893 112.777 23.0106 113.128 22.3886C113.189 22.2839 113.247 22.1752 113.301 22.0621C113.377 21.9025 113.444 21.7342 113.504 21.5582L113.534 21.4655ZM112.888 19.1349V18.0821H110.496C109.826 18.0821 109.308 18.2495 108.941 18.5845C108.59 18.9035 108.414 19.3422 108.414 19.9004C108.414 20.1632 108.458 20.4019 108.545 20.6173C108.633 20.8331 108.765 21.0247 108.941 21.1923C109.308 21.5116 109.826 21.6709 110.496 21.6709C110.623 21.6709 110.746 21.6646 110.865 21.652C110.963 21.6421 111.057 21.6274 111.148 21.609C111.324 21.5729 111.49 21.5219 111.644 21.4556C111.995 21.2964 112.282 21.0331 112.505 20.6659C112.729 20.2992 112.857 19.7887 112.888 19.1349Z" fill="#18192E"/>
<path d="M118.864 23.992V10.8808H121.902V15.2085C122.048 13.9731 122.415 12.9769 123.003 12.2206C123.8 11.2158 124.948 10.7134 126.448 10.7134H126.951V14.015H125.993C124.941 14.015 124.127 14.3021 123.553 14.8763C122.979 15.4346 122.691 16.2481 122.691 17.3167V23.992H118.864Z" fill="#18192E"/>
<path d="M131.806 17.8669H133.074L137.213 23.9917H141.519L136.271 16.4697L140.586 10.8806H136.567L131.806 17.1148V6.52612H127.978V23.9917H131.806V17.8669Z" fill="#18192E"/>
</g>
<defs>
<clipPath id="clip0_172_745">
<rect width="140.769" height="30" fill="white" transform="translate(0.75)"/>
</clipPath>
</defs>
</svg>
